<svg width="1024" height="1024" viewBox="0 0 1024 1024" fill="none" xmlns="http://www.w3.org/2000/svg">
<path d="M137.297 803.141C127.922 803.141 123.047 796.812 123.047 784.719V771.641C123.047 759.547 127.922 753.219 137.156 753.219C144.75 753.219 149.953 758.844 150.141 767.375H161.625C161.438 752.047 152.391 743 137.344 743C120.938 743 111.328 753.547 111.328 771.641V784.719C111.328 802.812 120.938 813.359 137.344 813.359C152.109 813.359 161.625 804.219 161.625 789.828H150.141C150 798.078 145.125 803.141 137.297 803.141ZM241.781 773.797V760.672H220.266V768.828H231.234V803.844H221.25V812H257.016V803.844H241.734V789.125C241.734 777.266 247.969 770.797 259.828 770.797C262.641 770.797 266.016 771.359 268.312 772.25V760.391C266.531 759.688 263.859 759.312 260.953 759.312C251.203 759.312 245.484 763.906 243.375 773.797H241.781ZM335.625 830.422C346.969 830.422 352.359 826.109 356.812 813.172L375.141 760.672H363.562L351 801.641H350.297L337.734 760.672H325.781L344.203 812.375L343.5 814.672C341.906 819.5 339.141 821.422 334.125 821.422C333.375 821.422 331.734 821.375 331.266 821.281V830.328C331.781 830.375 333.844 830.422 335.625 830.422ZM462.562 759.828C455.156 759.828 449.953 763.109 447.797 769.109H446.859V760.672H435.797V829.203H447.047V803.609H447.984C449.906 809.516 455.156 812.891 462.562 812.891C474.375 812.891 481.688 804.594 481.688 790.906V781.766C481.688 768.125 474.375 759.828 462.562 759.828ZM458.672 769.391C466.031 769.391 470.578 774.406 470.578 782.469V790.531C470.578 798.547 466.031 803.609 458.672 803.609C451.359 803.609 446.812 798.594 446.812 790.531V782.469C446.812 774.406 451.359 769.391 458.672 769.391ZM573.75 812V758.188H592.312V744.359H538.031V758.188H556.594V812H573.75ZM672.516 813.219C687.984 813.219 697.641 804.312 697.641 790.016V781.812C697.641 767.516 687.984 758.609 672.516 758.609C657.047 758.609 647.391 767.516 647.391 781.812V790.016C647.391 804.312 657.047 813.219 672.516 813.219ZM672.516 771.125C678 771.125 681.422 775.438 681.422 782.234V789.594C681.422 796.391 678 800.703 672.516 800.703C667.031 800.703 663.609 796.391 663.609 789.594V782.234C663.609 775.438 667.031 771.125 672.516 771.125ZM779.859 813.219C795.328 813.219 804.984 804.312 804.984 790.016V781.812C804.984 767.516 795.328 758.609 779.859 758.609C764.391 758.609 754.734 767.516 754.734 781.812V790.016C754.734 804.312 764.391 813.219 779.859 813.219ZM779.859 771.125C785.344 771.125 788.766 775.438 788.766 782.234V789.594C788.766 796.391 785.344 800.703 779.859 800.703C774.375 800.703 770.953 796.391 770.953 789.594V782.234C770.953 775.438 774.375 771.125 779.859 771.125ZM910.5 812V799.625H896.109V740.281H865.266V752.656H879.562V799.625H863.906V812H910.5Z" fill="white"/>
<path d="M70 423.792C70 294.315 175.33 189 304.807 189C356.108 189 403.616 205.552 442.296 233.588C406.449 268.48 380.384 313.37 368.694 363.712C352.679 346.676 329.966 336.022 304.807 336.022C256.393 336.022 217.031 375.383 217.031 423.792C217.031 463.396 243.391 496.953 279.5 507.838V657.231C161.88 644.571 70 544.707 70 423.792Z" stroke="white" stroke-width="25"/>
<path d="M466.074 594.256C462.339 597.79 458.503 601.209 454.542 604.484C450.577 607.787 446.487 610.947 442.296 613.987C410.051 637.358 371.672 652.756 330.075 657.233V507.838C345.005 503.332 358.269 494.944 368.694 483.863C373.412 478.848 377.536 473.281 380.993 467.263C388.349 454.446 392.563 439.606 392.563 423.792C392.563 356.721 420.839 296.147 466.074 253.314C469.809 249.785 473.645 246.366 477.606 243.087C481.586 239.788 485.676 236.623 489.866 233.588C528.533 205.552 575.772 189 628.689 189H668.5H911V332.665H850.375H820.062H789.75V657.231L668.5 657.233V494.949V332.665H628.689C607.423 335.015 577.383 348.901 563.449 363.712C558.74 368.742 554.612 374.304 551.155 380.312C543.824 393.143 539.594 407.979 539.594 423.792C539.594 490.849 511.319 551.438 466.074 594.256Z" stroke="white" stroke-width="25"/>
<rect x="839" y="495" width="72" height="162" stroke="white" stroke-width="25"/>
</svg>
