<svg width="106" height="106" viewBox="0 0 106 106" fill="none" xmlns="http://www.w3.org/2000/svg">
<path d="M2.95684 87.9023C-0.754162 91.6133 -0.900561 98.498 3.05444 102.453C7.05834 106.408 13.8943 106.262 17.6052 102.6L52.6638 67.4922L87.7223 102.551C91.5803 106.408 98.2693 106.408 102.224 102.404C106.179 98.4004 106.228 91.7597 102.371 87.8535L67.3611 52.8438L102.371 17.7852C106.228 13.9277 106.228 7.23828 102.224 3.28318C98.2693 -0.67192 91.5803 -0.720719 87.7223 3.13668L52.6638 38.1953L17.6052 3.08788C13.8943 -0.574225 7.00954 -0.769525 3.05444 3.23438C-0.900561 7.23828 -0.754162 14.0742 2.95684 17.7363L38.0154 52.8438L2.95684 87.9023Z" fill="black"/>
</svg>
