<svg width="502" height="500" viewBox="0 0 502 500" fill="none" xmlns="http://www.w3.org/2000/svg">
<path d="M119.641 76.8893H401.079V441.699H119.641V76.8893Z" fill="#C8E1FF"/>
<path d="M362.37 185.349V269.373C359.752 302.544 346.403 329.278 322.321 349.576C298.24 369.874 278.987 380.311 264.561 380.886C250.159 380.303 230.917 369.863 206.836 349.565C182.754 329.266 169.405 302.532 166.787 269.362V185.349L264.549 157.383L362.37 185.349ZM292.526 311.042L276.598 271.984C276.326 270.411 276.511 268.794 277.131 267.323C277.75 265.853 278.778 264.591 280.094 263.687C283.877 261.225 287.021 257.898 289.264 253.981C291.466 250.071 292.595 245.65 292.538 241.163C292.424 233.714 289.366 226.613 284.032 221.413C281.456 218.826 278.394 216.774 275.023 215.374C271.652 213.974 268.037 213.254 264.386 213.256C260.732 213.226 257.109 213.933 253.733 215.335C250.358 216.736 247.299 218.803 244.74 221.413C242.16 224.01 240.118 227.093 238.732 230.482C237.346 233.872 236.644 237.501 236.665 241.163C236.608 245.65 237.738 250.071 239.94 253.981C242.183 257.898 245.326 261.225 249.11 263.687C250.425 264.591 251.453 265.853 252.073 267.323C252.693 268.794 252.877 270.411 252.606 271.984L236.677 311.042H292.526Z" fill="#79B8FF"/>
<path d="M367.684 285.955C363.688 287.516 359.517 288.584 355.262 289.136C354.56 289.317 353.817 289.26 353.151 288.973C352.484 288.686 351.932 288.186 351.58 287.551C351.282 286.964 351.156 286.305 351.215 285.65C351.275 284.994 351.519 284.369 351.918 283.846C352.151 283.44 352.412 283.05 352.699 282.68C353.094 282.172 353.365 281.578 353.492 280.947C353.619 280.316 353.598 279.664 353.431 279.042C353.264 278.42 352.955 277.845 352.529 277.363C352.103 276.88 351.571 276.503 350.974 276.26C349.938 275.743 348.777 275.527 347.623 275.636C346.47 275.745 345.37 276.175 344.449 276.878C343.581 277.473 342.982 278.386 342.781 279.419C342.581 280.453 342.795 281.524 343.377 282.401C343.877 283.067 344.329 283.767 344.729 284.498C345.016 285.023 345.149 285.618 345.113 286.216C345.077 286.813 344.873 287.388 344.525 287.875C344.177 288.361 343.699 288.74 343.146 288.967C342.592 289.194 341.986 289.261 341.396 289.159C339.035 288.887 336.698 288.435 334.405 287.807C330.163 286.642 326.132 284.894 321.867 283.881C320.043 283.421 318.195 283.06 316.332 282.797C315.027 282.634 313.664 282.622 312.755 283.962C311.683 285.582 311.764 287.05 313.268 288.879C313.761 289.368 314.12 289.975 314.31 290.642C314.499 291.31 314.514 292.015 314.351 292.69C314.057 293.711 313.449 294.614 312.612 295.268C311.775 295.923 310.752 296.297 309.69 296.337C308.55 296.541 307.374 296.382 306.329 295.882C305.284 295.382 304.422 294.567 303.864 293.552C303.528 292.947 303.362 292.262 303.385 291.571C303.408 290.879 303.618 290.207 303.992 289.625C304.354 289.019 304.843 288.46 305.158 287.889C305.488 287.373 305.682 286.781 305.72 286.17C305.759 285.558 305.642 284.947 305.379 284.393C305.087 283.826 304.624 283.364 304.055 283.076C303.486 282.787 302.84 282.685 302.21 282.785C299.79 282.969 297.398 283.423 295.078 284.137L283.764 287.633C281.43 288.307 279.045 288.795 276.633 289.089C275.905 289.232 275.151 289.144 274.476 288.836C273.801 288.529 273.239 288.019 272.869 287.376C272.596 286.785 272.494 286.129 272.575 285.482C272.655 284.836 272.914 284.224 273.324 283.717C273.743 283.042 274.302 282.447 274.652 281.737C275.098 280.804 275.17 279.737 274.854 278.753C274.538 277.769 273.857 276.944 272.951 276.446C270.061 274.547 266.018 275.503 264.584 278.171C264.203 278.813 264.022 279.554 264.066 280.3C264.109 281.046 264.375 281.761 264.829 282.354C265.167 282.844 265.482 283.333 265.819 283.822C266.258 284.37 266.513 285.042 266.548 285.742C266.584 286.443 266.398 287.137 266.018 287.726C265.144 288.996 263.687 289.194 262.126 289.019C256.871 288.413 251.965 286.584 246.978 284.929C243.894 283.908 240.723 283.175 237.504 282.739C235.896 282.517 234.382 282.832 233.613 284.347C233.311 285.003 233.204 285.732 233.306 286.446C233.407 287.161 233.712 287.832 234.183 288.378C234.931 289.166 235.444 290.147 235.663 291.21C235.759 292.076 235.588 292.95 235.171 293.715C234.754 294.479 234.112 295.098 233.333 295.486C232.036 296.273 230.488 296.534 229.005 296.218C227.521 295.902 226.215 295.032 225.351 293.785C224.92 293.121 224.701 292.342 224.724 291.551C224.747 290.76 225.01 289.995 225.479 289.357C225.978 288.736 226.422 288.073 226.808 287.376C228.066 284.3 225.899 282.447 223.312 282.715C219.278 283.169 215.317 284.124 211.52 285.558M286.607 309.865C295.777 304.855 292.037 318.022 290.429 322.1C288.658 326.609 282.983 335.792 286.444 340.441C288.774 343.622 291.455 340.196 294.135 339.625C298.05 338.798 299.961 343.121 299.133 346.465C297.479 353.456 291.42 346.22 287.644 348.458C280.723 352.559 293.296 371.704 295.288 375.98" stroke="#2B66CF" stroke-width="3" stroke-miterlimit="10"/>
<path d="M290.348 243.762C289.031 247.525 281.655 265.237 291.175 262.475C295.16 261.31 299.46 260.623 299.401 266.402C299.343 271.937 295.253 272.228 291.245 270.329C281.503 265.785 288.04 282.447 289.264 285.966M289.38 207.535C290.546 210.588 296.255 227.262 287.539 223.627C284.603 222.403 282.168 220.131 279.779 223.941C279.052 225.162 278.771 226.596 278.984 228.001C279.196 229.405 279.889 230.692 280.944 231.643M289.334 207.407C288.413 207.744 287.481 208.071 286.549 208.385C283.235 209.508 279.815 210.289 276.342 210.716C275.668 210.82 274.979 210.701 274.379 210.377C273.78 210.053 273.302 209.542 273.021 208.921C272.205 207.302 272.916 205.985 273.79 204.75C274.372 204.164 274.779 203.426 274.962 202.62C275.145 201.814 275.098 200.973 274.826 200.193C274.553 199.412 274.067 198.724 273.422 198.207C272.778 197.69 272 197.365 271.18 197.269C270.008 196.917 268.754 196.954 267.605 197.374C266.456 197.794 265.474 198.575 264.806 199.6C264.374 200.231 264.143 200.978 264.143 201.744C264.143 202.509 264.374 203.256 264.806 203.888C265.369 204.663 265.872 205.481 266.309 206.335C266.561 206.843 266.664 207.412 266.609 207.976C266.553 208.54 266.34 209.078 265.994 209.527C265.593 210.022 265.063 210.397 264.464 210.613C263.864 210.829 263.217 210.876 262.592 210.751C258.779 210.18 255.03 209.247 251.394 207.966C248.273 206.753 245.068 205.767 241.804 205.018C240.343 204.692 238.865 204.446 237.376 204.284C236.692 204.116 235.971 204.179 235.326 204.463C234.681 204.748 234.148 205.238 233.811 205.857C233.479 206.553 233.361 207.333 233.473 208.097C233.585 208.86 233.922 209.573 234.44 210.145C235.136 210.858 235.603 211.763 235.78 212.743C235.896 215.167 234.743 216.705 232.214 217.544C230.99 217.997 229.647 218.013 228.413 217.588C227.179 217.163 226.13 216.324 225.444 215.214C225.005 214.516 224.804 213.695 224.872 212.873C224.939 212.052 225.271 211.274 225.817 210.658C226.304 210.064 226.697 209.4 226.982 208.688C227.868 206.136 226.435 204.214 223.813 204.295C221.143 204.468 218.503 204.957 215.948 205.752C211.648 206.917 207.546 208.747 203.13 209.702C201.499 210.063 199.856 210.39 198.201 210.634C197.526 210.802 196.815 210.764 196.161 210.525C195.507 210.286 194.94 209.858 194.531 209.294C194.158 208.675 193.981 207.958 194.022 207.237C194.064 206.515 194.322 205.823 194.764 205.251C194.9 204.989 195.064 204.743 195.253 204.517C197.665 201.93 196.022 198.691 193.54 197.607C191.058 196.523 188.029 197.164 186.619 198.842C185.938 199.54 185.53 200.458 185.468 201.43C185.406 202.403 185.695 203.366 186.281 204.144C186.619 204.657 187.073 205.099 187.365 205.635C187.714 206.176 187.908 206.802 187.925 207.446C187.941 208.089 187.78 208.725 187.458 209.283C187.08 209.78 186.572 210.164 185.991 210.392C185.409 210.62 184.776 210.684 184.16 210.576C181.701 210.311 179.272 209.824 176.901 209.119C175.141 208.572 163.932 204.062 162.172 203.526M367.684 325.048C364.689 324.232 361.788 323.09 358.712 322.566C357.406 322.345 356.101 322.077 354.773 321.972C352.21 321.785 350.369 323.964 351.592 326.761C351.807 327.254 352.098 327.71 352.454 328.113C354.948 330.898 353.235 333.811 350.951 334.964C349.839 335.499 348.594 335.697 347.37 335.534C346.147 335.37 344.998 334.852 344.065 334.044C343.26 333.308 342.775 332.287 342.712 331.199C342.649 330.111 343.013 329.041 343.727 328.218C344.505 327.416 344.982 326.371 345.078 325.258C345.139 324.819 345.099 324.373 344.962 323.952C344.824 323.531 344.593 323.146 344.286 322.828C343.978 322.509 343.603 322.264 343.187 322.112C342.771 321.96 342.326 321.904 341.886 321.949C339.392 322.089 336.922 322.507 334.521 323.195C332.517 323.685 330.583 324.477 328.614 325.13M247.514 309.62C243.867 318.43 254.354 326.586 253.188 337.073C253.188 339.404 253.188 341.734 249.693 341.734C247.362 341.734 245.032 338.238 242.701 339.404C241.631 339.95 240.736 340.785 240.118 341.815C239.5 342.846 239.184 344.029 239.206 345.23C239.206 353.386 247.362 348.726 253.188 348.726C254.354 359.213 248.527 368.534 246.651 378.544M252.513 277.367C251.138 284.02 245.521 292.806 246.885 299.693C248.248 306.579 255.519 297.246 259.108 301.767" stroke="#2B66CF" stroke-width="3" stroke-miterlimit="10"/>
<path d="M246.651 157.756C248.201 164.2 251.126 170.224 252.478 176.714C252.955 178.952 254.26 182.541 251.907 184.184C249.11 186.106 247.176 182.576 244.612 182.319C238.891 181.748 237.901 191.373 242.981 193.028C245.952 193.995 247.339 190.802 250.077 190.849C253.095 190.849 253.305 193.505 253.06 195.894C252.396 202.408 249.238 208.35 247.712 214.643C247.164 216.88 245.743 220.83 247.362 222.881C249.413 225.479 251.534 223.16 253.585 222.263C258.921 219.933 262.429 227.017 258.933 231.014C256.09 234.265 254.097 231.259 251.126 230.397C247.397 229.301 246.593 232.552 246.943 235.477C247.852 242.911 251.604 249.658 252.769 257.022" stroke="#2B66CF" stroke-width="3" stroke-miterlimit="10"/>
<path d="M249.798 246.617C247.041 247.817 244.15 248.682 241.187 249.192C239.594 249.672 237.931 249.881 236.269 249.809C233.216 249.366 232.925 246.826 233.939 244.787C234.151 244.437 234.393 244.106 234.661 243.797C236.7 241.047 235.92 238.821 233.659 237.19C232.413 236.391 230.921 236.069 229.456 236.283C227.992 236.497 226.654 237.233 225.689 238.355C225.108 239.095 224.803 240.015 224.829 240.955C224.854 241.896 225.208 242.798 225.829 243.505C226.356 244.128 226.77 244.838 227.052 245.603C227.265 246.131 227.33 246.708 227.241 247.271C227.151 247.834 226.911 248.361 226.544 248.798C226.178 249.235 225.701 249.564 225.162 249.75C224.623 249.937 224.044 249.973 223.487 249.856C219.403 249.394 215.394 248.419 211.555 246.954C211.304 246.846 211.059 246.726 210.821 246.593M328.474 286.083C326.942 290.003 325.878 294.09 325.304 298.259C325.187 298.785 325.178 299.329 325.278 299.858C325.378 300.387 325.585 300.89 325.887 301.336C326.971 302.792 329.056 302.967 331.037 301.557C331.69 300.977 332.45 300.53 333.275 300.24C335.419 299.739 337.446 300.776 338.437 303.293C338.888 304.423 338.99 305.661 338.731 306.849C338.471 308.037 337.861 309.12 336.98 309.958C336.262 310.619 335.326 310.993 334.351 311.008C333.375 311.023 332.428 310.678 331.69 310.04C330.899 309.365 329.967 308.876 328.963 308.607C328.516 308.527 328.056 308.546 327.616 308.662C327.177 308.779 326.768 308.989 326.419 309.28C326.069 309.571 325.787 309.935 325.593 310.345C325.398 310.756 325.296 311.205 325.293 311.66C325.414 314.115 325.805 316.549 326.458 318.919C327.413 323.079 329.278 326.936 330.303 331.084C330.863 333.414 331.34 335.663 331.702 337.982C331.833 338.601 331.78 339.245 331.549 339.834C331.317 340.423 330.918 340.931 330.4 341.295C329.882 341.659 329.269 341.862 328.637 341.88C328.004 341.898 327.38 341.73 326.843 341.396C326.358 341.171 325.897 340.898 325.468 340.581C322.904 338.507 320.189 339.171 318.721 342.165C318.174 343.251 317.963 344.474 318.115 345.68C318.266 346.886 318.773 348.019 319.571 348.935C319.926 349.348 320.361 349.685 320.848 349.927C321.336 350.168 321.867 350.31 322.411 350.342C322.954 350.375 323.498 350.298 324.011 350.117C324.524 349.935 324.996 349.652 325.398 349.285C326.074 348.71 326.87 348.292 327.728 348.061C330.49 347.386 332.028 349.39 331.725 351.872C331.323 355.092 330.605 358.265 329.581 361.345C329.243 362.37 328.928 363.396 328.59 364.421M249.798 325.165C245.981 326.75 241.967 327.812 237.866 328.322C235.395 328.66 234.265 328.054 233.613 326.493C233.369 325.78 233.329 325.014 233.495 324.279C233.662 323.545 234.029 322.871 234.556 322.333C235.232 321.625 235.661 320.718 235.78 319.746C235.863 318.835 235.646 317.922 235.162 317.146C234.679 316.37 233.954 315.773 233.1 315.447C231.786 314.736 230.249 314.557 228.807 314.948C227.364 315.338 226.127 316.268 225.351 317.544C224.963 318.182 224.779 318.924 224.825 319.67C224.871 320.416 225.144 321.13 225.607 321.716C226.314 322.55 226.855 323.511 227.204 324.547C227.34 324.999 227.367 325.476 227.28 325.94C227.194 326.404 226.998 326.841 226.708 327.213C226.418 327.585 226.043 327.882 225.614 328.079C225.185 328.276 224.715 328.368 224.244 328.346C221.447 328.221 218.678 327.735 216.006 326.901C214.2 326.435 212.44 325.817 210.693 325.188" stroke="#2B66CF" stroke-width="3" stroke-miterlimit="10"/>
<path d="M328.474 285.838C329.541 283.521 330.324 281.084 330.804 278.579C331.411 276.505 331.717 274.354 331.713 272.193C331.671 271.704 331.512 271.231 331.251 270.815C330.99 270.398 330.634 270.05 330.211 269.798C329.789 269.547 329.313 269.399 328.822 269.368C328.332 269.336 327.841 269.422 327.39 269.618C326.553 270.005 325.77 270.499 325.06 271.086C324.357 271.522 323.544 271.747 322.717 271.732C321.891 271.718 321.086 271.465 320.399 271.005C319.314 270.087 318.577 268.826 318.309 267.431C318.042 266.035 318.261 264.591 318.931 263.338C319.365 262.389 320.129 261.63 321.08 261.201C322.031 260.773 323.106 260.704 324.104 261.007C325.024 261.479 325.894 262.041 326.703 262.685C327.218 263.024 327.815 263.216 328.431 263.241C329.047 263.265 329.658 263.122 330.198 262.825C330.779 262.483 331.241 261.971 331.523 261.359C331.804 260.746 331.891 260.062 331.771 259.399C331.294 255.141 330.244 250.966 328.649 246.989V246.698C327.227 247.222 325.794 247.747 324.337 248.166C321.594 248.959 318.798 249.559 315.971 249.961C315.308 250.077 314.625 249.999 314.005 249.737C313.385 249.474 312.853 249.038 312.475 248.481C312.201 247.935 312.068 247.33 312.086 246.72C312.104 246.11 312.274 245.514 312.58 244.985C312.776 244.625 313.019 244.292 313.302 243.995C315.505 241.256 314.619 238.705 311.939 237.003C309.9 235.698 305.892 236.397 304.47 238.355C303.839 239.062 303.49 239.977 303.49 240.924C303.49 241.872 303.839 242.787 304.47 243.494C305.19 244.3 305.687 245.28 305.915 246.337C306.264 248.959 304.319 250.194 302.128 249.984C299.798 249.765 297.495 249.316 295.253 248.644C293.3 248.205 291.401 247.552 289.59 246.698" stroke="#2B66CF" stroke-width="3" stroke-linejoin="round"/>
<path d="M210.681 325.188C209.809 327.511 209.077 329.885 208.49 332.296C208.048 334.218 207.713 336.163 207.488 338.122C207.373 338.694 207.421 339.287 207.625 339.834C207.829 340.381 208.181 340.859 208.642 341.217C209.104 341.574 209.656 341.795 210.236 341.856C210.817 341.916 211.402 341.814 211.928 341.559C212.511 341.387 213.051 341.093 213.512 340.697C215.948 338.215 219.525 339.532 220.667 342.678C221.078 343.782 221.168 344.979 220.927 346.132C220.686 347.285 220.123 348.346 219.304 349.192C218.582 349.932 217.599 350.359 216.566 350.381C215.533 350.402 214.532 350.017 213.78 349.308C213.057 348.728 212.219 348.307 211.322 348.073C208.991 347.42 207.255 349.238 207.511 351.65C207.885 355.527 208.791 359.334 210.203 362.965C210.36 363.445 210.484 363.936 210.576 364.433M210.588 168.325C209.547 171.209 208.718 174.165 208.106 177.169C207.908 178.404 207.675 179.628 207.5 180.863C207.37 181.503 207.433 182.168 207.68 182.773C207.926 183.378 208.346 183.897 208.886 184.265C209.401 184.578 209.991 184.743 210.593 184.743C211.196 184.743 211.786 184.578 212.301 184.265C212.719 184.067 213.111 183.817 213.466 183.519C216.088 181.119 219.548 182.273 220.679 185.64C221.119 186.752 221.206 187.972 220.929 189.135C220.652 190.299 220.023 191.348 219.129 192.142C218.419 192.812 217.486 193.195 216.51 193.214C215.534 193.233 214.586 192.889 213.85 192.247C213.268 191.739 212.596 191.344 211.869 191.082C208.921 190.045 207.208 192.107 207.442 194.507C207.849 198.457 208.761 202.338 210.157 206.055C211.814 210.436 213.047 214.966 213.839 219.583C214.2 221.82 213.209 223.673 211.38 223.988C210.747 224.064 210.106 223.999 209.501 223.797C208.897 223.596 208.345 223.263 207.884 222.823C206.451 221.599 204.878 221.063 203.223 221.902C202.354 222.327 201.623 222.991 201.118 223.817C200.612 224.642 200.352 225.595 200.369 226.563C200.275 227.411 200.372 228.27 200.653 229.076C200.933 229.882 201.389 230.616 201.988 231.224C202.686 231.969 203.642 232.419 204.661 232.479C205.68 232.54 206.684 232.208 207.465 231.55C207.919 231.236 208.35 230.874 208.84 230.595C209.378 230.228 210.01 230.025 210.661 230.008C211.312 229.992 211.954 230.163 212.51 230.501C213.05 230.872 213.467 231.394 213.71 232.002C213.952 232.609 214.009 233.275 213.874 233.916C213.5 236.963 212.849 239.97 211.928 242.899C210.506 247.292 208.688 251.569 207.978 256.171C207.686 257.422 207.522 258.698 207.488 259.982C207.616 262.778 210.028 263.978 212.522 262.673C212.93 262.418 213.32 262.134 213.687 261.823C216.705 259.644 219.513 261.217 220.609 263.769C221.599 266.099 220.982 269.595 218.733 271.051C217.993 271.541 217.115 271.78 216.23 271.732C215.344 271.683 214.497 271.351 213.815 270.783C213.461 270.478 213.092 270.19 212.708 269.921C212.175 269.546 211.548 269.328 210.897 269.291C210.247 269.254 209.599 269.4 209.026 269.711C208.411 270.108 207.931 270.683 207.652 271.36C207.373 272.037 207.308 272.783 207.465 273.498C208.007 277.622 209.035 281.666 210.529 285.547M289.264 246.698C285.427 245.231 281.442 244.183 277.379 243.575C276.254 243.32 275.075 243.49 274.069 244.053C272.415 245.125 272.263 247.49 273.696 249.32C274.49 250.119 275.005 251.153 275.165 252.268C275.202 253.376 274.835 254.461 274.132 255.318C273.428 256.176 272.437 256.748 271.343 256.929C270.281 257.253 269.149 257.267 268.08 256.97C267.011 256.673 266.049 256.076 265.307 255.251C264.648 254.56 264.262 253.654 264.221 252.7C264.181 251.746 264.488 250.81 265.085 250.066C265.861 249.202 266.385 248.142 266.6 247.001C266.649 246.562 266.605 246.118 266.472 245.698C266.338 245.277 266.117 244.89 265.824 244.56C265.53 244.23 265.171 243.966 264.769 243.784C264.366 243.603 263.93 243.508 263.489 243.505C261.199 243.637 258.932 244.028 256.731 244.671C254.465 245.187 252.243 245.884 250.089 246.756M328.346 325.165C324.371 326.79 320.191 327.86 315.924 328.346C314.433 328.52 313.046 328.346 312.231 326.773C311.917 326.139 311.799 325.427 311.89 324.726C311.981 324.025 312.278 323.367 312.743 322.834C313.489 321.739 314.456 320.69 314.316 319.269C314.083 316.845 312.51 315.61 310.401 314.969C309.221 314.644 307.97 314.682 306.812 315.079C305.654 315.476 304.643 316.213 303.911 317.194C303.458 317.898 303.236 318.725 303.276 319.56C303.316 320.396 303.615 321.198 304.132 321.855C304.846 322.668 305.357 323.638 305.624 324.687C305.749 325.133 305.766 325.602 305.673 326.056C305.58 326.51 305.38 326.935 305.089 327.295C304.798 327.656 304.425 327.941 304.001 328.128C303.577 328.315 303.115 328.397 302.652 328.369C299.856 328.233 297.088 327.744 294.414 326.912C290.208 325.817 286.258 323.813 282.005 322.974C280.28 322.636 278.567 322.263 276.843 322.007C276.092 321.819 275.301 321.885 274.593 322.195C273.884 322.505 273.299 323.041 272.927 323.72C272.659 324.395 272.585 325.132 272.715 325.847C272.845 326.561 273.173 327.225 273.662 327.763C274.167 328.354 274.58 329.018 274.885 329.732C275.689 332.063 274.221 334.475 271.552 335.244C270.468 335.638 269.291 335.7 268.171 335.425C267.051 335.149 266.038 334.546 265.26 333.694C264.626 332.988 264.257 332.085 264.214 331.137C264.172 330.19 264.459 329.257 265.027 328.497C265.837 327.659 266.363 326.587 266.53 325.433C266.599 325.003 266.574 324.564 266.458 324.145C266.341 323.726 266.135 323.337 265.854 323.005C265.573 322.673 265.223 322.405 264.829 322.221C264.435 322.037 264.006 321.94 263.571 321.937C262.285 321.94 261.005 322.104 259.76 322.426C256.855 322.885 254.01 323.667 251.277 324.757C250.877 324.904 250.469 325.029 250.054 325.13" stroke="#2B66CF" stroke-width="3" stroke-miterlimit="10"/>
<path d="M210.588 246.617C206.621 245.129 202.502 244.085 198.306 243.505C196.605 243.296 195.207 243.669 194.426 245.055C194.107 245.705 193.991 246.436 194.093 247.153C194.195 247.87 194.51 248.539 194.997 249.075C195.801 250.159 196.686 251.231 196.558 252.641C196.496 253.382 196.25 254.095 195.843 254.718C195.436 255.34 194.881 255.852 194.228 256.206C191.478 257.838 187.458 256.812 186.223 254.61C185.799 253.896 185.596 253.072 185.639 252.243C185.683 251.413 185.971 250.615 186.467 249.949C186.936 249.398 187.328 248.787 187.633 248.131C187.936 247.593 188.077 246.978 188.037 246.362C187.997 245.745 187.778 245.153 187.407 244.659C187.036 244.165 186.53 243.789 185.949 243.578C185.368 243.367 184.739 243.329 184.137 243.47C181.979 243.705 179.842 244.095 177.74 244.636C175.654 245.183 161.217 250.637 159.213 251.429" stroke="#2B66CF" stroke-width="3" stroke-miterlimit="10"/>
<path d="M292.002 158.793C292.002 158.793 286.328 176.481 285.978 181.119C285.628 185.757 290.476 184.848 292.317 183.449C294.158 182.051 300.159 180.758 299.39 188.74C299.393 189.382 299.26 190.018 298.997 190.604C298.735 191.191 298.351 191.715 297.87 192.141C297.389 192.567 296.822 192.885 296.208 193.074C295.594 193.263 294.947 193.319 294.309 193.237C294.309 193.237 289.707 189.567 288.052 191.012C286.398 192.457 283.892 192.177 288.879 206.556C288.879 206.556 288.658 207.779 290.045 207.232C291.431 206.684 302.862 202.326 305.298 205.496C307.733 208.665 303.934 209.201 303.561 212.289C303.188 215.377 305.892 218.546 309.015 217.87C312.137 217.194 316.356 215.377 312.51 209.236C309.609 204.657 314.841 202.245 327.926 207.08C327.926 207.08 328.614 207.278 328.288 208.176C327.961 209.073 324.722 218.441 325.409 221.459C326.097 224.477 329.674 224.454 331.562 222.799C333.449 221.145 338.728 220.469 339.078 227.274C339.322 232.086 333.694 232.517 333.694 232.517C333.694 232.517 328.101 228.579 326.703 230.56C325.305 232.541 324.151 234.452 328.602 246.651C328.602 246.651 336.153 243.645 341.42 243.47C346.686 243.296 345.346 248.225 343.517 250.112C341.688 252 343.296 257.71 348.481 257.104C353.666 256.498 354.505 252.221 352.757 250.007C351.009 247.793 349.669 243.016 355.67 243.564C359.003 243.824 362.283 244.553 365.412 245.731L366.67 175.258L292.002 158.793ZM167.626 285.244C167.626 285.244 180.047 289.485 185.43 289.112C190.814 288.74 186.363 282.517 186.363 282.517C186.363 282.517 182.867 275.631 191.14 275.607C198.19 275.607 197.153 282.191 194.496 284.242C192.806 285.547 194.111 291.233 201.114 288.658C204.204 287.444 207.363 286.417 210.576 285.582C210.576 285.582 214.351 295.626 213.711 300.578C213.209 304.505 206.777 300.578 206.777 300.578C206.777 300.578 201.289 298.364 200.392 304.633C199.495 310.902 204.878 311.625 207.383 310.133C209.889 308.642 213.477 307.01 213.885 311.636C214.083 313.967 210.693 325.176 210.693 325.176L204.086 323.079L177.064 322.1L167.626 285.244Z" fill="#C8E1FF"/>
<path d="M236.98 311.17H292.328L274.85 268.057C286.502 259.318 293.358 252.54 292.328 239.509C291.162 224.75 279.75 213.447 264.946 213.291C249.976 213.134 238.163 224.585 236.98 239.509C235.947 252.54 242.806 259.9 253.876 268.057L236.98 311.17Z" fill="#C8E1FF"/>
<path d="M227.926 155.332C229.686 156.37 232.109 157.733 232.937 155.845C234.102 153.049 230.327 150.811 230.327 150.811C230.327 150.811 233.822 153.608 235.116 150.811C236.409 148.015 232.296 145.987 232.296 145.987C234.486 147.071 237.318 144.822 232.296 141.641C219.059 133.147 210.087 136.572 210.087 136.572L194.647 150.8C194.647 150.8 197.164 163.617 210.087 166.647C218.581 168.628 216.763 162.219 212.265 161.427C209.818 160.996 207.838 157.418 208.35 155.321C208.863 153.223 211.252 145.51 227.926 155.332V155.332Z" fill="#0366D6"/>
<path d="M164.619 150.893C164.619 150.893 177.006 140.674 171.203 137.738C166.822 135.524 156.335 147.654 156.335 147.654" fill="#0366D6"/>
<path d="M143.016 157.663C166.122 137.854 167.323 145.731 170.166 150.392C173.009 155.053 179.021 166.391 172.077 169.63C165.132 172.869 155.227 174.617 155.227 174.617L143.016 157.663Z" fill="#0366D6"/>
<path d="M146.22 154.995C146.22 154.995 153.864 138.646 157.36 139.497C160.855 140.348 158.921 148.003 155.938 151.557" fill="#0366D6"/>
<path d="M158.618 146.488C156.116 147.569 153.839 149.11 151.907 151.033" stroke="#05264C" stroke-width="3" stroke-miterlimit="10"/>
<path d="M173.522 156.836C173.522 156.836 178.486 149.133 176.61 144.379C174.734 139.625 172.555 140.161 172.555 140.161L164.526 148.597" fill="#0366D6"/>
<path d="M173.813 162.685C173.813 162.685 181.014 155.134 180.117 151.301C179.22 147.467 177.157 144.787 174.349 145.172C171.541 145.556 168.523 156.94 168.523 156.94" fill="#0366D6"/>
<path d="M173.836 168.371C173.836 168.371 182.086 161.135 181.061 157.139C180.035 153.142 174.792 152.594 174.792 152.594" fill="#0366D6"/>
<path d="M232.284 145.976C232.284 145.976 225.188 139.66 219.339 139.858M172.508 140.161C172.508 140.161 173.673 143.389 166.927 148.702L172.508 140.161ZM177.111 145.813C177.111 145.813 178.276 149.04 171.529 154.354L177.111 145.813ZM179.499 154.75C179.499 154.75 178.602 157.465 174.838 161.438L179.499 154.75ZM230.315 150.8C230.315 150.8 223.242 144.729 217.194 144.542L230.315 150.8Z" stroke="#05264C" stroke-width="3" stroke-miterlimit="10"/>
<path d="M92.8878 116.577C92.8878 116.577 97.4904 158.642 99.8792 168.371C102.268 178.101 127.437 168.872 142.993 157.663L155.204 174.617C155.204 174.617 123.568 213.174 95.6727 211.846C67.7771 210.518 32.226 122.823 32.226 122.823C21.7389 86.0014 56.9288 53.6546 56.9288 53.6546C60.0167 53.037 99.0985 4.98299 147.712 27.099C175.922 39.9166 194.647 95.0319 210.087 136.572L194.647 150.8L143.797 85.8965L99.8559 125.188" fill="#27AE60"/>
<path d="M148.038 91.2682L194.647 150.811L201.907 144.123C198.411 136.188 192.841 129.208 187.411 122.38C182.61 116.356 177.775 110.285 171.983 105.204C165.062 99.1218 156.94 94.6008 148.9 90.1146L148.038 91.2682ZM155.262 174.617L143.051 157.675C127.448 168.884 102.268 178.113 99.9374 168.383C98.7721 163.454 96.966 150.205 95.4979 138.355L92.5265 176.155C91.9556 183.38 91.4778 191.07 94.857 197.467C98.2361 203.864 105.099 207.558 112.452 208.56C134.906 199.425 155.262 174.617 155.262 174.617Z" fill="#219653"/>
<path d="M119.641 132.517C136.444 132.517 150.066 118.896 150.066 102.093C150.066 85.2904 136.444 71.6691 119.641 71.6691C102.839 71.6691 89.2173 85.2904 89.2173 102.093C89.2173 118.896 102.839 132.517 119.641 132.517Z" fill="#0366D6"/>
<path d="M130.478 123.324C132.412 126.239 135.411 128.28 138.833 129.01M129.942 111.776C131.494 115.107 133.919 117.955 136.96 120.019C140 122.083 143.542 123.285 147.211 123.498L129.942 111.776ZM140.895 112.872C143.088 114.876 145.832 116.175 148.772 116.6L140.895 112.872Z" stroke="#05264C" stroke-width="3" stroke-miterlimit="10"/>
<path d="M235.652 39.4272C245.987 39.4272 254.365 31.0488 254.365 20.7136C254.365 10.3784 245.987 2 235.652 2C225.316 2 216.938 10.3784 216.938 20.7136C216.938 31.0488 225.316 39.4272 235.652 39.4272Z" stroke="#05264C" stroke-width="3" stroke-miterlimit="10"/>
<path d="M299.681 94.927L331.981 92.6665L339.776 115.027C338.767 115.759 337.717 116.432 336.63 117.043C335.465 117.684 334.3 118.371 333.135 118.896C333.135 118.896 327.11 120.399 328.555 115.4C328.648 114.874 328.769 114.352 328.917 113.839C330.35 110.343 327.67 108.013 324.85 107.838C323.656 107.793 322.473 108.079 321.431 108.663C320.389 109.246 319.528 110.106 318.942 111.147C318.509 112.101 318.439 113.181 318.746 114.183C319.053 115.185 319.715 116.04 320.608 116.589C321.616 117.066 322.416 117.895 322.857 118.919C323.058 119.314 323.166 119.749 323.174 120.192C323.182 120.634 323.09 121.073 322.903 121.475C322.717 121.876 322.442 122.231 322.099 122.51C321.756 122.79 321.354 122.989 320.923 123.091C318.402 123.844 315.793 124.263 313.163 124.337C311.217 124.442 309.282 124.454 307.336 124.466V124.337C307.417 120.038 307.05 115.743 306.241 111.52C306.157 110.853 305.882 110.225 305.451 109.711C305.019 109.196 304.448 108.817 303.806 108.618C303.221 108.47 302.606 108.484 302.028 108.661C301.451 108.838 300.933 109.17 300.532 109.621C300.102 109.997 299.733 110.438 299.436 110.926C298.015 113.582 295.113 113.979 292.783 111.916C291.763 111.047 291.061 109.863 290.786 108.551C290.512 107.239 290.682 105.873 291.268 104.668C291.72 103.749 292.505 103.035 293.463 102.671C294.421 102.308 295.482 102.322 296.43 102.711C298.119 103.387 299.926 103.55 301.266 102.14C302.606 100.73 302.058 98.8771 301.161 97.2924C300.718 96.5156 300.264 95.7388 299.797 94.962L299.681 94.927ZM367.649 407.395C367.649 407.395 369.222 403.829 366.099 398.423C362.976 393.016 362.079 393.762 359.247 397.782C356.416 401.802 352.652 396.791 352.396 395.043C352.14 393.296 351.918 388.775 358.129 389.672C364.339 390.569 361.158 385.349 360.366 383.682C359.387 381.643 353.433 376.493 353.433 376.493L353.654 376.586C351.279 376.662 348.917 376.979 346.605 377.53C344.73 377.917 342.881 378.423 341.07 379.045C340.427 379.175 339.837 379.494 339.376 379.961C338.915 380.428 338.604 381.022 338.483 381.667C338.168 383.251 339.077 384.207 340.044 385.162C340.385 385.461 340.781 385.691 341.21 385.838C344.705 387.213 344.391 390.814 342.503 392.829C341.588 393.949 340.289 394.689 338.859 394.904C337.429 395.12 335.97 394.795 334.766 393.995C334.174 393.58 333.72 392.998 333.462 392.323C333.205 391.648 333.156 390.911 333.321 390.208C333.496 389.321 333.582 388.42 333.577 387.516C333.576 386.918 333.406 386.333 333.085 385.828C332.765 385.323 332.308 384.92 331.767 384.665C331.226 384.41 330.624 384.314 330.031 384.387C329.438 384.461 328.877 384.701 328.415 385.081C324.904 387.376 321.667 390.066 318.767 393.098C318.639 393.226 318.546 393.389 318.429 393.529C319.939 394.934 321.363 396.428 322.694 398.003C324.198 399.797 325.591 401.68 326.866 403.643C327.219 404.119 327.431 404.684 327.479 405.275C327.527 405.866 327.408 406.458 327.137 406.985C326.865 407.511 326.451 407.951 325.941 408.255C325.432 408.558 324.848 408.712 324.256 408.7C323.422 408.737 322.588 408.639 321.785 408.409C320.962 408.248 320.108 408.355 319.349 408.713C318.591 409.072 317.966 409.663 317.567 410.401C316.087 412.953 317.334 416.425 319.432 417.975C320.262 418.676 321.33 419.031 322.415 418.966C323.499 418.901 324.517 418.421 325.258 417.626C325.695 416.971 326.084 416.286 326.423 415.575C327.716 413.652 329.266 412.976 331.084 413.885C331.555 414.178 331.962 414.564 332.281 415.018C332.599 415.473 332.822 415.987 332.937 416.53C333.62 418.628 334.165 420.769 334.568 422.939L367.777 407.01L367.649 407.395Z" stroke="#05264C" stroke-width="3" stroke-linecap="round" stroke-linejoin="round"/>
<path d="M25.3046 179.511C25.3046 190.72 2 190.72 2 201.93C2 213.14 25.3046 213.14 25.3046 224.349C25.3046 235.559 2 235.559 2 246.768C2 257.978 25.3046 257.978 25.3046 269.199C25.3046 280.42 2 280.408 2 291.629" stroke="#05264C" stroke-width="3" stroke-miterlimit="10"/>
<path d="M307.337 433.671H291.42L283.461 447.444L291.42 461.228H307.337L315.295 447.444L307.337 433.671Z" stroke="#79B8FF" stroke-width="3" stroke-miterlimit="10"/>
<path d="M342.55 146.686C344.741 146.952 346.916 147.341 349.063 147.852C351.35 148.328 353.58 149.043 355.717 149.984C356.189 150.175 356.605 150.482 356.925 150.878C357.245 151.274 357.459 151.745 357.546 152.247C357.634 152.748 357.592 153.264 357.425 153.744C357.257 154.225 356.97 154.655 356.591 154.995C356.086 155.539 355.475 155.975 354.796 156.276C354.192 156.504 353.642 156.855 353.181 157.306C352.72 157.757 352.357 158.299 352.116 158.898C351.312 161.042 352.606 163.722 355.193 165.05C356.127 165.596 357.21 165.834 358.287 165.729C359.364 165.624 360.381 165.183 361.193 164.468C362.615 163.186 362.685 161.66 362.359 159.912C362.151 159.217 362.159 158.475 362.382 157.784C362.604 157.093 363.031 156.486 363.605 156.043C364.197 155.597 364.926 155.372 365.667 155.406C366.407 155.44 367.112 155.731 367.66 156.23C369.741 157.628 371.691 159.211 373.487 160.961C375.521 162.783 377.016 165.129 377.81 167.742C376.489 168.98 375.187 170.238 373.906 171.518C372.157 173.313 370.573 175.263 369.175 177.344C368.677 177.892 368.385 178.597 368.351 179.338C368.317 180.078 368.543 180.807 368.989 181.399C369.425 181.984 370.028 182.422 370.719 182.655C371.411 182.888 372.156 182.905 372.857 182.704C374.605 182.366 376.132 182.436 377.413 183.869C378.129 184.681 378.57 185.698 378.675 186.775C378.779 187.852 378.542 188.935 377.996 189.87C376.668 192.457 373.976 193.75 371.844 192.946C371.245 192.705 370.703 192.343 370.251 191.881C369.8 191.42 369.45 190.87 369.222 190.266C368.92 189.587 368.484 188.977 367.94 188.472C367.601 188.092 367.171 187.805 366.69 187.638C366.209 187.471 365.694 187.429 365.192 187.516C364.691 187.604 364.22 187.818 363.824 188.138C363.428 188.458 363.12 188.873 362.93 189.346C361.989 191.483 361.274 193.713 360.797 195.999C360.287 198.147 359.898 200.321 359.632 202.513H359.481C355.001 202.068 350.603 201.017 346.407 199.39C345.956 199.197 345.556 198.902 345.24 198.527C344.924 198.152 344.7 197.708 344.587 197.231C344.473 196.754 344.473 196.257 344.587 195.78C344.701 195.303 344.925 194.859 345.241 194.484C345.878 193.808 346.642 193.265 347.49 192.888C348.311 192.612 349.021 192.079 349.515 191.367C350.008 190.655 350.259 189.803 350.229 188.938C350.1 185.442 346.232 182.983 343.156 183.706C340.336 184.37 339.439 185.838 339.777 188.751C339.868 189.091 339.931 189.438 339.963 189.788C340.009 190.443 339.902 191.1 339.652 191.706C339.401 192.313 339.013 192.853 338.518 193.284C337.982 193.681 337.333 193.896 336.665 193.896C335.998 193.896 335.349 193.681 334.813 193.284C328.818 188.427 323.143 183.188 317.824 177.6L342.864 146.686H342.55Z" stroke="#05264C" stroke-width="3" stroke-miterlimit="10"/>
<path d="M251.58 128.521C251.988 132.471 252.489 136.677 252.617 137.842C252.876 139.996 253.265 142.133 253.783 144.24C253.895 144.917 254.211 145.545 254.687 146.04C255.163 146.535 255.778 146.874 256.451 147.013C257.021 147.108 257.606 147.051 258.147 146.846C258.687 146.641 259.164 146.297 259.527 145.848C260.009 145.286 260.439 144.682 260.809 144.041C261.255 143.362 261.893 142.83 262.642 142.515C263.391 142.199 264.218 142.114 265.015 142.27C267.789 142.783 269.898 146.197 269.327 149.262C269.256 149.872 269.048 150.459 268.717 150.976C268.386 151.494 267.941 151.93 267.416 152.25C266.892 152.57 266.301 152.766 265.689 152.824C265.077 152.882 264.46 152.799 263.885 152.583C263.336 152.361 262.752 152.235 262.161 152.21C259.049 152.14 257.721 154.284 258.665 156.871C259.16 157.971 259.774 159.014 260.494 159.982C262.255 162.809 264.272 165.469 266.519 167.929C263.368 170.795 259.896 173.286 256.171 175.351C254.4 176.342 253.025 176.342 251.755 175.095C251.333 174.578 251.039 173.969 250.895 173.317C250.751 172.666 250.762 171.989 250.928 171.343C250.976 171.177 251.043 171.017 251.126 170.865C252.524 166.892 249.238 164.188 245.3 165.097C244.358 165.271 243.477 165.684 242.74 166.296C242.003 166.908 241.436 167.699 241.093 168.593C240.68 169.481 240.614 170.492 240.91 171.426C241.205 172.36 241.84 173.149 242.69 173.638C243.54 174.092 244.299 174.701 244.927 175.433C245.265 175.804 245.504 176.255 245.621 176.743C245.738 177.232 245.729 177.742 245.595 178.226C245.461 178.71 245.207 179.153 244.856 179.512C244.504 179.871 244.068 180.135 243.587 180.28C241.007 181.139 238.329 181.668 235.617 181.853C233.682 182.086 231.748 182.156 229.79 182.214C229.775 179.901 229.627 177.59 229.348 175.293C229.138 173.836 224.687 161.881 222.251 154.948C222.251 154.948 237.399 136.304 251.499 128.497L251.58 128.521Z" fill="#CDE1FC" stroke="#05264C" stroke-width="3" stroke-linecap="round" stroke-linejoin="round"/>
<path d="M69.8629 284.405C76.1374 284.405 81.2239 279.318 81.2239 273.044C81.2239 266.769 76.1374 261.683 69.8629 261.683C63.5884 261.683 58.502 266.769 58.502 273.044C58.502 279.318 63.5884 284.405 69.8629 284.405Z" stroke="#79B8FF" stroke-width="3" stroke-miterlimit="10"/>
<path d="M316.862 34.5845L327.253 44.9748L316.862 55.364L306.472 44.9748L316.862 34.5845ZM440.114 353.002V375.001H418.115V353.002H440.114Z" stroke="#05264C" stroke-width="3" stroke-miterlimit="10"/>
<path d="M373.044 91.6411C378.649 91.6411 378.649 103.293 384.253 103.293C389.858 103.293 389.858 91.6411 395.463 91.6411C401.068 91.6411 401.068 103.293 406.672 103.293C412.277 103.293 412.277 91.6411 417.893 91.6411C423.51 91.6411 423.498 103.293 429.115 103.293" stroke="#2088FF" stroke-width="3" stroke-miterlimit="10"/>
<path d="M99.9026 330.466C99.9026 330.466 77.6234 317.311 60.4712 328.066C43.319 338.821 37.0268 389.136 67.3344 442.258C97.642 495.381 130.257 509.725 151.382 488.565C172.508 467.404 189.695 386.572 189.695 386.572L169.117 381.993C165.894 401.193 156.375 418.775 142.061 431.97C142.061 431.97 134.219 393.657 111.636 382.797L99.9026 330.466Z" fill="#F2C94C"/>
<path d="M174.955 414.992C177.612 409.865 177.507 403.724 176.423 398.038C175.456 392.923 173.766 387.947 172.811 382.832L169.117 382.004C165.892 401.2 156.373 418.778 142.061 431.97L145.708 455.437C146.873 452.093 147.875 449.448 149.087 446.115C150.578 441.967 152.105 437.761 154.773 434.253C160.425 426.784 170.644 423.312 174.955 414.992V414.992Z" fill="#E3BF50"/>
<path d="M111.636 388.961C128.439 388.961 142.061 375.34 142.061 358.537C142.061 341.734 128.439 328.113 111.636 328.113C94.8336 328.113 81.2123 341.734 81.2123 358.537C81.2123 375.34 94.8336 388.961 111.636 388.961Z" fill="#FDAEB7"/>
<path d="M142.061 432.016L145.696 455.437" stroke="#05264C" stroke-width="3" stroke-miterlimit="10"/>
<path d="M169.117 382.051C169.117 382.051 167.626 366.81 173.207 354.715C178.789 342.62 181.888 338.285 181.888 338.285C181.888 338.285 182.82 335.803 184.988 336.735C187.155 337.668 184.988 341.396 184.988 341.396L180.327 354.424C180.327 354.424 185.29 354.424 193.354 361.59C201.417 368.756 189.695 386.642 189.695 386.642" fill="#FDAEB7"/>
<path d="M95.9058 327.915C97.7468 331.41 95.7426 336.164 100.439 337.726C105.694 339.474 112.172 336.293 117.579 336.561C123.72 336.817 128.462 340.569 128.602 346.896C128.707 351.685 126.33 358.141 129.93 362.242C133.1 365.866 139.194 363.745 143.366 364.678M180.338 354.412L178.136 361.578L180.338 354.412Z" stroke="#05264C" stroke-width="3" stroke-miterlimit="10"/>
<path d="M116.181 475.467C108.036 467.519 100.823 458.668 94.6823 449.087C82.6688 430.711 73.0207 409.551 54.6683 397.502C52.9354 396.306 51.0186 395.4 48.9937 394.822C52.5855 411.936 58.8788 428.37 67.6373 443.505C95.9058 493.109 126.167 508.863 147.281 493.61C135.454 490.907 124.815 483.729 116.181 475.467Z" fill="#E3BF50"/>
<path d="M262.592 162.802L250.578 158.502C250.578 158.502 245.614 157.337 246.919 153.713C248.224 150.089 264.561 157.139 264.561 157.139" fill="#F2C94C"/>
<path d="M308.956 260.681C311.673 260.875 314.33 261.579 316.787 262.755M259.993 155.332C259.993 155.332 262.976 156.498 268.01 155.332H259.993Z" stroke="#05264C" stroke-width="3" stroke-miterlimit="10"/>
<path d="M327.379 266.076C299.005 254.948 300.497 262.825 299.355 268.173C298.213 273.522 296.267 286.199 303.899 286.968C309.179 287.348 314.487 287.011 319.676 285.966L327.379 266.076Z" fill="#F2C94C"/>
<path d="M323.487 264.608C323.487 264.608 310.844 251.709 307.861 253.689C304.878 255.67 309.189 262.231 313.174 264.608" fill="#F2C94C"/>
<path d="M306.777 267.206C306.777 267.206 294.391 263.862 293.727 259.294C293.063 254.727 299.739 250.334 302.909 250.951C306.078 251.569 300.229 259.108 300.229 259.108L309.935 262.161" fill="#F2C94C"/>
<path d="M298.353 275.351C298.353 275.351 291.128 269.723 291.361 264.608C291.594 259.492 293.797 259.294 293.797 259.294L304.167 264.608" fill="#F2C94C"/>
<path d="M299.972 280.968C299.972 280.968 290.65 276.213 290.266 272.298C289.881 268.383 290.918 265.179 293.692 264.608C296.465 264.037 303.013 273.79 303.013 273.79" fill="#F2C94C"/>
<path d="M301.848 286.316C301.848 286.316 291.676 282.203 291.361 278.101C291.047 273.999 295.777 271.751 295.777 271.751" fill="#F2C94C"/>
<path d="M502 209.341C502 209.341 502.524 139.94 463.699 123.405C424.873 106.871 281.667 151.499 281.667 151.499V168.022C281.667 168.022 333.449 172.974 404.505 167.474C404.505 167.474 448.026 199.425 430.944 271.028C430.944 271.028 405.053 287.003 387.982 285.896C370.911 284.789 327.39 266.088 327.39 266.088L319.676 285.978C319.676 285.978 365.388 316.752 397.397 318.942C429.406 321.133 477.448 306.533 492.689 269.921C502.035 247.351 502 209.341 502 209.341Z" fill="#0366D6"/>
<path d="M448.026 193.098C448.873 191.059 450.055 189.177 451.522 187.528C452.267 186.702 453.194 186.062 454.23 185.658C455.265 185.253 456.381 185.095 457.488 185.197C460.04 185.605 461.904 187.737 464.037 189.194C467.742 191.723 472.45 192.247 476.54 194.088C480.629 195.929 484.428 200.252 483.007 204.517C481.969 207.605 478.637 209.294 476.959 212.091C475.689 214.2 475.479 216.752 474.885 219.14C474.291 221.529 473.067 224.046 470.76 224.967C468.674 225.747 466.309 224.967 464.444 223.696C462.58 222.426 461.019 220.818 459.084 219.7C454.552 217.066 448.76 217.661 444.018 215.423L448.026 193.098ZM281.667 151.499L275.421 138.681C275.421 138.681 271.925 132.273 259.877 141.979C247.828 151.685 255.659 168.896 281.655 168.057" fill="#F2C94C"/>
<path d="M430.944 271.04C430.944 271.04 405.053 287.015 387.982 285.908C370.911 284.801 327.39 266.099 327.39 266.099L326.574 268.208L360.366 285.908C365.994 289.044 371.862 291.728 377.914 293.936C388.002 297.305 398.793 297.987 409.224 295.917C414.083 294.95 418.954 293.307 422.764 290.091C428.847 285.022 428.777 278.625 430.921 271.016" fill="#005CC5"/>
<path d="M423.009 242.27C439.812 242.27 453.433 228.649 453.433 211.846C453.433 195.043 439.812 181.422 423.009 181.422C406.206 181.422 392.585 195.043 392.585 211.846C392.585 228.649 406.206 242.27 423.009 242.27Z" fill="#F2C94C"/>
<path d="M449.634 198.854C451.169 200.614 452.303 202.686 452.959 204.927C453.615 207.168 453.777 209.525 453.433 211.834" stroke="#05264C" stroke-width="3" stroke-miterlimit="10"/>
<path d="M396.162 168.103C385.387 166.423 374.914 163.181 365.074 158.479C358.735 155.437 352.676 151.802 346.22 149.005C336.705 145.077 326.661 142.575 316.414 141.583C295.813 147.118 281.655 151.522 281.655 151.522V168.045C281.655 168.045 329.429 172.624 396.162 168.103V168.103Z" fill="#005CC5"/>
<path d="M292.002 275.351C292.002 275.351 293.738 277.612 298.562 280.152M293.692 259.294C293.692 259.294 293.692 262.72 301.778 265.517L293.692 259.294ZM291.291 266.134C291.291 266.134 291.291 269.56 299.378 272.356L291.291 266.134Z" stroke="#05264C" stroke-width="3" stroke-miterlimit="10"/>
</svg>
