<svg xmlns="http://www.w3.org/2000/svg" width="163" height="127" fill="none" viewBox="0 0 163 127"><path fill="#fff" d="M14.4361 119.28C12.5288 119.28 11.5357 117.988 11.5357 115.527V113.18C11.5357 110.719 12.5288 109.427 14.4273 109.427C15.9478 109.427 17.0025 110.535 17.0552 112.196H18.9009C18.8658 109.41 17.187 107.749 14.4449 107.749C11.4214 107.749 9.65482 109.744 9.65482 113.18V115.527C9.65482 118.963 11.4214 120.959 14.4449 120.959C17.1167 120.959 18.9009 119.262 18.9009 116.696H17.0552C17.0201 118.296 16.0181 119.28 14.4361 119.28ZM33.0566 113.558V111.115H29.2685V112.468H31.3515V119.341H29.4531V120.695H35.9745V119.341H33.0654V116.423C33.0654 114.077 34.2695 112.732 36.4316 112.732C36.9589 112.732 37.5829 112.846 38.0136 113.004V111.071C37.6972 110.939 37.1786 110.869 36.6337 110.869C34.7968 110.869 33.6806 111.756 33.3027 113.558H33.0566ZM49.8753 124.123C51.8265 124.123 52.723 123.367 53.5579 120.985L57.0736 111.115H55.2015L52.6966 118.955H52.5736L50.0511 111.115H48.1175L51.6068 120.765L51.4574 121.24C51.1058 122.251 50.6048 122.637 49.682 122.637C49.5413 122.637 49.2513 122.629 49.1546 122.611V124.096C49.2689 124.105 49.6029 124.123 49.8753 124.123ZM72.5827 110.965C71.1941 110.965 70.2097 111.546 69.7615 112.635H69.5945V111.115H67.8279V123.912H69.6384V119.174H69.8054C70.1921 120.247 71.1941 120.853 72.5827 120.853C74.7888 120.853 76.1951 119.28 76.1951 116.784V115.035C76.1951 112.539 74.7888 110.965 72.5827 110.965ZM71.9939 112.53C73.4704 112.53 74.4109 113.567 74.4109 115.211V116.643C74.4109 118.287 73.4704 119.333 71.9939 119.333C70.5261 119.333 69.5945 118.296 69.5945 116.643V115.211C69.5945 113.567 70.5261 112.53 71.9939 112.53ZM92.3107 120.695V110.166H95.9406V108.012H86.1847V110.166H89.8146V120.695H92.3107ZM110.29 120.906C113.023 120.906 114.746 119.245 114.746 116.599V115.105C114.746 112.46 113.023 110.798 110.29 110.798C107.556 110.798 105.834 112.46 105.834 115.105V116.599C105.834 119.245 107.556 120.906 110.29 120.906ZM110.29 112.767C111.582 112.767 112.381 113.699 112.381 115.202V116.503C112.381 117.997 111.582 118.937 110.29 118.937C108.998 118.937 108.198 117.997 108.198 116.503V115.202C108.198 113.699 108.998 112.767 110.29 112.767ZM129.517 120.906C132.25 120.906 133.973 119.245 133.973 116.599V115.105C133.973 112.46 132.25 110.798 129.517 110.798C126.783 110.798 125.06 112.46 125.06 115.105V116.599C125.06 119.245 126.783 120.906 129.517 120.906ZM129.517 112.767C130.809 112.767 131.608 113.699 131.608 115.202V116.503C131.608 117.997 130.809 118.937 129.517 118.937C128.225 118.937 127.425 117.997 127.425 116.503V115.202C127.425 113.699 128.225 112.767 129.517 112.767ZM153.024 120.695V118.779H150.132V107.309H144.806V109.225H147.724V118.779H144.648V120.695H153.024Z"/><path stroke="#fff" stroke-width="4" d="M2 46.3616C2 21.8983 21.901 2 46.3643 2C56.0571 2 65.0332 5.12733 72.3415 10.4244C65.5686 17.017 60.6439 25.4985 58.4352 35.0101C55.4093 31.7912 51.1178 29.7782 46.3643 29.7782C37.217 29.7782 29.78 37.2151 29.78 46.3616C29.78 53.8443 34.7604 60.1846 41.5829 62.2412V90.4674C19.3598 88.0754 2 69.2072 2 46.3616Z"/><path stroke="#fff" stroke-width="4" d="M143.717 59.8059V90.4678L157.308 90.467V59.8055H149.444L143.717 59.8059Z"/><path stroke="#fff" stroke-width="4" d="M76.8341 78.569C76.1284 79.2367 75.4036 79.8826 74.6553 80.5014C73.9061 81.1256 73.1333 81.7226 72.3415 82.297C66.2492 86.7127 58.9979 89.6219 51.1386 90.4678V62.2412C53.9593 61.3899 56.4654 59.805 58.4352 57.7113C59.3266 56.7637 60.1058 55.7119 60.759 54.5749C62.1487 52.1533 62.945 49.3494 62.945 46.3616C62.945 33.6892 68.2874 22.2443 76.8341 14.1515C77.5399 13.4847 78.2646 12.8388 79.0129 12.2191C79.7649 11.5958 80.5376 10.9979 81.3294 10.4244C88.635 5.12733 97.5604 2 107.558 2H115.08H160.898V29.144H149.444H143.717H137.989V90.4674L115.08 90.4678V59.8059V29.144H107.558C103.541 29.588 97.8648 32.2116 95.2321 35.0101C94.3425 35.9604 93.5625 37.0113 92.9093 38.1465C91.5241 40.5708 90.725 43.3738 90.725 46.3616C90.725 59.0313 85.3827 70.4789 76.8341 78.569Z"/></svg>