<svg width="444" height="554" viewBox="0 0 444 554" fill="none" xmlns="http://www.w3.org/2000/svg">
<path d="M302.381 114.095C285.023 113.612 271.445 95.5105 272.053 73.664C272.662 51.8175 287.227 34.5001 304.585 34.9836C321.943 35.4671 335.521 53.5696 334.912 75.415C334.304 97.2615 319.739 114.579 302.381 114.095Z" fill="#0061D9"/>
<path d="M301.661 95.3045C299.947 93.1848 299.464 90.2143 300.608 87.7715C300.897 87.0664 301.366 86.5587 301.902 86.2819C303.701 85.2683 305.289 83.9423 306.157 81.8271C307.639 78.4178 307.989 72.3485 305.604 69.177C303.611 66.5151 299.676 65.6543 297.656 68.4716C295.877 70.8464 295.891 74.3246 295.334 77.097C291.519 74.0865 287.463 71.5187 283.649 68.5082C279.069 64.972 276.091 59.7314 273.828 54.4114C269.466 44.3449 267.887 31.1182 276.27 22.6208C281.142 17.7418 288.739 15.9365 295.361 18.0175C299.575 19.4205 306.745 24.7019 304.508 30.1928L304.346 30.4878C303.687 32.0455 301.968 32.9116 300.535 32.2028C298.842 31.4442 298.168 29.5237 299.088 28.0158L302.381 22.3467C306.044 15.8239 313.714 15.9881 319.609 19.3959C326.417 23.4139 328.292 29.0941 329.052 36.4624C329.121 37.561 328.931 38.6109 328.626 39.6934C327.966 41.25 325.921 41.8364 324.73 40.6862C323.573 39.6497 323.76 37.7311 324.992 36.8803L326.725 35.6368C328.573 34.3607 330.812 33.5942 333.168 33.6649C337.28 33.8543 340.669 36.2402 342.372 39.6071C346.123 47.112 347.587 55.647 346.287 63.978C345.369 70.2113 343.671 76.2942 341.126 81.9988C337.341 90.6691 331.945 98.4354 325.178 104.852L323.43 106.473C319.414 105.76 304.127 98.3284 301.661 95.3045Z" fill="#B28B67" stroke="black" stroke-width="5" stroke-miterlimit="10" stroke-linejoin="round"/>
<path fill-rule="evenodd" clip-rule="evenodd" d="M419.702 348.601H246.084C232.744 348.601 221.929 359.943 221.929 373.935V519.61C221.929 533.602 232.744 544.945 246.084 544.945H419.702C433.043 544.945 443.857 533.602 443.857 519.61V373.935C443.857 359.943 433.043 348.601 419.702 348.601ZM395.546 392.936C398.882 392.936 401.585 395.772 401.585 399.27V494.275C401.585 497.773 398.882 500.609 395.546 500.609H270.24C266.905 500.609 264.201 497.773 264.201 494.275V399.27C264.201 395.772 266.905 392.936 270.24 392.936H395.546Z" fill="#C5CFD6"/>
<path fill-rule="evenodd" clip-rule="evenodd" d="M72.2265 537.028C101.992 498.905 122.132 470.643 132.646 452.241C150.65 420.733 165.385 392.696 170.035 381.986C181.123 356.447 144.507 344.488 136.22 356.4C123.678 374.43 96.8906 431.165 55.8596 526.605L72.2265 537.028Z" fill="#0061D9"/>
<path fill-rule="evenodd" clip-rule="evenodd" d="M133.221 525.944L188.616 379.694C200.464 353.034 143.249 335.509 134.541 347.916C114.773 376.085 67.7882 487.204 61.8985 495.596L133.221 525.944Z" fill="#2F3676"/>
<path fill-rule="evenodd" clip-rule="evenodd" d="M280.758 496.614C269.967 480.105 230.717 424.564 209.339 401.584C203.196 394.98 197.202 388.642 191.532 382.735C174.68 365.179 141.123 394.687 157.943 410.678C199.833 450.501 260.953 504.262 266.06 509.055C273.217 515.773 287.539 506.989 280.758 496.614Z" fill="#0061D9"/>
<path fill-rule="evenodd" clip-rule="evenodd" d="M278.235 489.156C281.952 492.366 284.37 494.987 285.489 497.02C286.85 499.493 288.444 503.34 290.27 508.559C287.535 510.216 262.954 525.1 216.527 553.213C210.953 547.729 210.085 543.472 213.922 540.442C217.759 537.412 220.925 534.857 223.421 532.776L248.874 495.996C249.364 495.288 250.308 495.131 250.983 495.645C250.994 495.653 251.006 495.662 251.017 495.671L256.306 499.943C261.157 499.498 264.778 498.553 267.168 497.106C269.109 495.93 271.338 493.484 273.853 489.768L273.853 489.768C274.819 488.342 276.704 488.007 278.063 489.019C278.122 489.063 278.179 489.108 278.235 489.156Z" fill="#E4E4E4"/>
<path fill-rule="evenodd" clip-rule="evenodd" d="M85.03 531.33C86.719 536.059 87.5635 539.597 87.5635 541.945C87.5635 544.8 87.1099 548.967 86.2029 554.445C83.0446 554.445 54.661 554.445 1.05198 554.445C-1.16079 546.773 0.116547 542.631 4.884 542.019C9.65144 541.407 13.6118 540.855 16.7652 540.362L56.3425 521.857C57.104 521.501 57.9966 521.859 58.3361 522.658C58.3419 522.672 58.3476 522.685 58.353 522.699L60.897 529.172C65.3104 531.331 68.8968 532.411 71.6561 532.411C73.8979 532.411 76.9939 531.462 80.9441 529.562L80.9441 529.562C82.46 528.834 84.2523 529.532 84.9472 531.122C84.9771 531.19 85.0048 531.26 85.03 531.33Z" fill="#E4E4E4"/>
<path fill-rule="evenodd" clip-rule="evenodd" d="M208.549 386.999C254.591 379.132 285.43 373.752 301.067 370.861C345.639 362.618 358.636 337.462 350.951 282.576H268.829C257.962 285.867 212.553 306.224 132.602 343.647C118.218 351.137 120.897 373.219 123.526 380.494C123.633 380.791 147.883 424.372 196.275 511.238L263.455 466.352L208.423 392.288C206.97 389.218 207.012 387.455 208.549 386.999Z" fill="#5C63AB"/>
<path fill-rule="evenodd" clip-rule="evenodd" d="M202.633 261.848L154.475 298.937C141.414 302.633 130.502 307.232 121.738 312.734C119.668 314.712 117.167 318.719 125.751 318.026C134.336 317.334 143.396 317.011 144.581 320.082C145.765 323.153 140.57 326.826 142.965 330.969C144.561 333.732 152.103 326.805 165.59 310.189L213.278 289.448L202.633 261.848ZM387.533 263.128L355.984 263.258C375.464 329.213 385.98 364.208 387.533 368.244C391.026 377.324 383.634 391.153 380.472 398.585C390.769 403.417 389.672 385.521 402.66 391.859C414.516 397.644 423.534 408.125 437.231 399.261C438.915 398.171 440.761 394.068 436.302 390.862C425.194 382.873 409.186 368.892 407.023 364.29C404.074 358.014 397.577 324.293 387.533 263.128Z" fill="#0061D9"/>
<path fill-rule="evenodd" clip-rule="evenodd" d="M297.875 124.281L284.82 121.933C236.384 165.818 216.489 250.126 157.117 294.788L171.407 313.366C274.406 299.991 299.936 197.154 297.875 124.281Z" fill="#65CE60"/>
<path fill-rule="evenodd" clip-rule="evenodd" d="M354.784 296.348C302.44 296.348 263.936 296.348 239.273 296.348C233.995 296.348 234.99 288.354 235.753 284.321C244.559 237.767 278.934 187.585 278.934 121.318L312.253 115.838C339.812 162.325 349.342 219.559 354.784 296.348Z" fill="#65CE60"/>
<path fill-rule="evenodd" clip-rule="evenodd" d="M353.856 161.532C358.695 160.074 362.527 156.671 365.352 151.325C377.53 128.278 373.132 115.589 360.117 111.418C347.103 107.247 335.497 115.838 314.761 115.838C313.633 115.838 312.6 115.912 311.662 116.061L301.232 116.685C271.305 223.06 263.052 294.031 276.471 329.6H367.387C372.774 342.774 377.928 353.858 382.851 362.852H407.624C409.955 283.787 392.033 216.681 353.856 161.532Z" fill="#65CE60"/>
<path fill-rule="evenodd" clip-rule="evenodd" d="M347.59 274.968C344.73 300.06 340.083 318.27 333.648 329.6H367.387C361.104 314.233 354.505 296.022 347.59 274.968Z" fill="black" fill-opacity="0.1"/>
</svg>
