<svg xmlns="http://www.w3.org/2000/svg" width="811" height="883" fill="none" viewBox="0 0 811 883"><path fill="#DD3D12" d="M254.162 77.6433H42.0001V191.379H254.162V77.6433Z"/><path fill="#76B7FF" d="M173.061 3H123.934V37.7668H173.061V3Z"/><path fill="#232323" d="M159.544 17.8798H151V9.33618H145.995V17.8798H137.451V22.8872H145.995V31.4289H151V22.8872H159.544V17.8798Z"/><path fill="#76B7FF" d="M67.7998 86.9634H52.1494V102.618H67.7998V86.9634Z"/><path fill="#76B7FF" d="M93.3587 86.9634H77.7064V102.618H93.3587V86.9634Z"/><path fill="#76B7FF" d="M67.7997 112.308H52.1493V127.962H67.7997V112.308Z"/><path fill="#76B7FF" d="M93.3586 112.308H77.7063V127.962H93.3586V112.308Z"/><path fill="#76B7FF" d="M67.7997 137.65H52.1493V153.304H67.7997V137.65Z"/><path fill="#76B7FF" d="M93.3586 137.65H77.7063V153.304H93.3586V137.65Z"/><path fill="#76B7FF" d="M67.7997 162.992H52.1493V178.645H67.7997V162.992Z"/><path fill="#76B7FF" d="M93.3586 162.992H77.7063V178.645H93.3586V162.992Z"/><path fill="#76B7FF" d="M219.121 88.6736H203.467V104.328H219.121V88.6736Z"/><path fill="#76B7FF" d="M244.676 88.6736H229.026V104.328H244.676V88.6736Z"/><path fill="#76B7FF" d="M219.121 114.014H203.467V129.668H219.121V114.014Z"/><path fill="#76B7FF" d="M244.676 114.014H229.026V129.668H244.676V114.014Z"/><path fill="#76B7FF" d="M219.121 139.358H203.467V155.013H219.121V139.358Z"/><path fill="#76B7FF" d="M244.676 139.358H229.026V155.013H244.676V139.358Z"/><path fill="#76B7FF" d="M219.121 164.701H203.467V180.355H219.121V164.701Z"/><path fill="#76B7FF" d="M244.676 164.701H229.026V180.355H244.676V164.701Z"/><path fill="#EF4F28" d="M202.304 37.7668H92.1912V191.381H202.304V37.7668Z"/><path fill="#0061D9" d="M126.393 49.6057H107.753V68.2476H126.393V49.6057Z"/><path fill="#0061D9" d="M156.83 49.6057H138.188V68.2476H156.83V49.6057Z"/><path fill="#0061D9" d="M187.265 49.6057H168.624V68.2476H187.265V49.6057Z"/><path fill="#0061D9" d="M126.132 77.6436H107.492V96.2873H126.132V77.6436Z"/><path fill="#0061D9" d="M156.567 77.6436H137.927V96.2873H156.567V77.6436Z"/><path fill="#0061D9" d="M187.005 77.6436H168.363V96.2873H187.005V77.6436Z"/><path fill="#0061D9" d="M125.871 105.683H107.233V124.325H125.871V105.683Z"/><path fill="#0061D9" d="M156.309 105.683H137.669V124.325H156.309V105.683Z"/><path fill="#0061D9" d="M186.745 105.683H168.103V124.325H186.745V105.683Z"/><path fill="#0061D9" d="M125.613 133.723H106.971V152.367H125.613V133.723Z"/><path fill="#0061D9" d="M156.051 133.723H137.409V152.367H156.051V133.723Z"/><path fill="#0061D9" d="M186.487 133.723H167.845V152.367H186.487V133.723Z"/><path fill="#0061D9" d="M125.353 161.764H106.713V180.406H125.353V161.764Z"/><path fill="#0061D9" d="M159.544 160.519H132.655V191.382H159.544V160.519Z"/><path fill="#0061D9" d="M186.227 161.764H167.585V180.406H186.227V161.764Z"/><path fill="#131112" d="M202.304 191.381H92.1912V197.19H202.304V191.381Z"/><path fill="#212124" d="M206.153 197.19H87.7271V203H206.153V197.19Z"/><path fill="#1277EB" d="M292.898 747.427C306.007 881.028 517.076 782.308 620.972 716.247C1116.3 423.423 304.875 488.379 141.386 323.731C-14.477 166.763 -95.9334 508.03 -54.3514 591.956C-12.7692 675.884 276.513 580.427 292.898 747.427Z"/><path stroke="#65CE60" stroke-width="10" d="M367.706 113.85C368.511 114.632 369.332 115.409 370.166 116.178M367.706 113.85C367.185 114.802 366.645 115.74 366.085 116.663M367.706 113.85C366.807 112.978 365.926 112.099 365.064 111.218C357.029 103.001 350.261 93.4042 346.168 82.5565C341.714 70.8107 340.17 56.7487 345.573 45.0613C347.851 40.0618 353.194 33.7985 359.416 35.2196C365.207 36.5601 369.813 43.6825 372.452 48.6321C378.555 60.0576 379.3 73.3684 377.174 85.9416C375.502 95.4363 372.435 105.196 367.706 113.85ZM370.166 116.178C377.089 103.88 380.799 89.203 381.37 76.7297C382.045 63.0923 378.46 48.7473 369.116 38.4433C365.074 33.9805 360.047 30.54 353.883 32.7454C348.434 34.6741 344.655 39.588 342.418 44.6805C336.608 57.9067 338.858 73.6065 344.351 86.4978C349.261 98.0614 357.031 108.143 366.085 116.663M370.166 116.178C376.961 122.439 384.685 128.167 393.043 131.757C398.397 134.089 404 135 410 135L478 136L478 132L484 137L478 143.5L478 139.025L403.073 137.862C389.981 136.499 378.054 127.436 368.546 118.917M370.166 116.178C369.644 117.105 369.104 118.019 368.546 118.917M366.085 116.663C366.762 117.301 367.447 117.93 368.139 118.551C368.274 118.672 368.41 118.794 368.546 118.917M366.085 116.663C364.738 118.881 363.273 121.011 361.685 123.028C354.157 132.561 342.437 139.724 329.98 139.025L271.5 137.862L271.5 142.183L333.808 142.183C349.101 141.22 360.651 131.615 368.546 118.917"/><path fill="#fff" stroke="#000" stroke-linejoin="round" stroke-miterlimit="10" stroke-width="5" d="M509.149 187.257L494.141 196.903C488.18 200.74 480.091 199.185 476.152 193.272C472.214 187.464 473.811 179.581 479.878 175.743L494.886 166.097C500.847 162.26 508.937 163.815 512.875 169.728C516.813 175.536 515.11 183.315 509.149 187.257Z"/><path fill="#fff" stroke="#000" stroke-linejoin="round" stroke-miterlimit="10" stroke-width="5" d="M546.34 177L684 230.511L632.298 267L499 208.383L546.34 177Z"/><path fill="#76B7FF" d="M638.671 181L582 158.457V156L666 165.829V168.393L638.671 181Z"/><path fill="#C7DFFF" d="M638.671 178L582 155.485L609.117 143L666 165.302L638.671 178Z"/><path fill="#76B7FF" d="M640.687 166L613 155.789L613.104 100L641 104.316L640.687 166Z"/><path fill="#C7DFFF" d="M716.577 148L546 119.935L546.423 3L716.683 31.065H717L716.577 148Z"/><path fill="#76B7FF" d="M695.791 85L636 75.393L636.209 28L695.895 37.713H696L695.791 85Z"/><path stroke="#76B7FF" stroke-linejoin="round" stroke-miterlimit="10" stroke-width="5" d="M546 120L716 148"/><path fill="#fff" d="M657.788 120L577 107.334L577.106 39L657.788 51.666H658L657.788 120Z"/><path fill="#fff" stroke="#000" stroke-linejoin="round" stroke-miterlimit="10" stroke-width="5" d="M499 209L632.298 266.905L684 230.859V242.103L632.298 273L499 215.095V209Z"/><path stroke="#000" stroke-linejoin="round" stroke-miterlimit="10" stroke-width="5" d="M546 3L717 31"/><path stroke="#DD3D12" stroke-linecap="round" stroke-linejoin="round" stroke-miterlimit="10" stroke-width="5" d="M611 77L642 81"/><path stroke="#DD3D12" stroke-linecap="round" stroke-linejoin="round" stroke-miterlimit="10" stroke-width="5" d="M587 73L602 75"/><circle cx="613" cy="59" r="12" fill="#C4C4C4"/><path stroke="#DD3D12" stroke-linecap="round" stroke-linejoin="round" stroke-miterlimit="10" stroke-width="5" d="M605 59L621 59"/><path stroke="#DD3D12" stroke-linecap="round" stroke-linejoin="round" stroke-miterlimit="10" stroke-width="5" d="M613 67L613 52"/><path stroke="#EBEBEB" stroke-linecap="round" stroke-linejoin="round" stroke-miterlimit="10" stroke-width="5" d="M587 82L642 91"/><path stroke="#E5E5E5" stroke-linecap="round" stroke-linejoin="round" stroke-miterlimit="10" stroke-width="5" d="M614 97L634 100"/><path stroke="#E5E5E5" stroke-linecap="round" stroke-linejoin="round" stroke-miterlimit="10" stroke-width="5" d="M595 94L607 96"/><path stroke="#000" stroke-linejoin="round" stroke-miterlimit="10" stroke-width="5" d="M526 197L653 246"/><path stroke="#000" stroke-linejoin="round" stroke-miterlimit="10" stroke-width="5" d="M513 205L640 254"/><path stroke="#000" stroke-linejoin="round" stroke-miterlimit="10" stroke-width="5" d="M541 187L668 236"/><g filter="url(#filter0_ddi)"><rect width="145.644" height="300" x="73" y="394" fill="#070707" rx="25"/></g><rect width="132.457" height="286.813" x="79.594" y="400.593" fill="#EBEBEB" rx="20"/><mask id="mask0" width="134" height="288" x="79" y="400" mask-type="alpha" maskUnits="userSpaceOnUse"><rect width="132.457" height="286.813" x="79.594" y="400.593" fill="#fff" rx="66.228"/></mask><g mask="url(#mask0)"><path fill="#DD3D12" d="M116.029 512.167C116.864 512.167 117.356 511.657 117.356 510.787V508.001H119.729C122.401 508.001 124.256 506.261 124.256 503.659C124.256 501.049 122.463 499.317 119.861 499.317H116.029C115.194 499.317 114.702 499.827 114.702 500.697V510.787C114.702 511.657 115.194 512.167 116.029 512.167ZM117.356 505.927V501.418H119.158C120.679 501.418 121.558 502.227 121.558 503.668C121.558 505.118 120.67 505.927 119.149 505.927H117.356ZM129.617 512.202C132.465 512.202 134.284 510.383 134.284 507.28C134.284 504.222 132.438 502.376 129.617 502.376C126.796 502.376 124.95 504.23 124.95 507.28C124.95 510.374 126.77 512.202 129.617 512.202ZM129.617 510.242C128.352 510.242 127.552 509.179 127.552 507.289C127.552 505.417 128.369 504.336 129.617 504.336C130.865 504.336 131.674 505.417 131.674 507.289C131.674 509.179 130.874 510.242 129.617 510.242ZM139.452 512.202C141.939 512.202 143.618 510.989 143.618 509.117C143.618 507.711 142.792 506.973 140.788 506.551L139.232 506.217C138.292 506.015 137.923 505.689 137.923 505.197C137.923 504.591 138.529 504.178 139.399 504.178C140.322 504.178 140.832 504.617 141.28 505.188C141.509 505.461 141.878 505.584 142.212 505.584C142.871 505.584 143.196 505.224 143.196 504.705C143.196 504.582 143.17 504.459 143.135 504.327C142.827 503.264 141.395 502.376 139.443 502.376C137 502.376 135.444 503.536 135.444 505.338C135.444 506.735 136.376 507.676 138.222 508.071L139.804 508.405C140.727 508.607 141.052 508.88 141.052 509.39C141.052 510.014 140.445 510.4 139.514 510.4C138.538 510.4 137.958 510.102 137.457 509.442C137.105 509.047 136.754 508.862 136.341 508.862C135.743 508.862 135.304 509.258 135.304 509.847C135.304 509.987 135.339 510.154 135.4 510.321C135.849 511.429 137.29 512.202 139.452 512.202ZM146.22 501.409C146.993 501.409 147.591 500.82 147.591 500.082C147.591 499.335 146.993 498.755 146.22 498.755C145.446 498.755 144.849 499.335 144.849 500.082C144.849 500.82 145.446 501.409 146.22 501.409ZM146.22 512.185C147.011 512.185 147.503 511.684 147.503 510.849V503.729C147.503 502.895 147.011 502.385 146.22 502.385C145.42 502.385 144.937 502.895 144.937 503.729V510.849C144.937 511.684 145.42 512.185 146.22 512.185ZM149.902 509.592C149.902 511.253 150.772 512.105 152.486 512.105H152.574C153.655 512.105 154.394 511.719 154.394 510.963C154.394 510.365 154.051 510.102 153.418 510.031L153.251 510.014C152.697 509.97 152.469 509.688 152.469 509.021V504.512H153.374C153.98 504.512 154.358 504.134 154.358 503.545C154.358 502.956 153.98 502.578 153.374 502.578H152.469V501.532C152.469 500.706 151.985 500.196 151.186 500.196C150.386 500.196 149.902 500.706 149.902 501.532V502.578H149.41C148.804 502.578 148.417 502.947 148.417 503.545C148.417 504.143 148.804 504.512 149.41 504.512H149.902V509.592ZM156.942 501.409C157.716 501.409 158.313 500.82 158.313 500.082C158.313 499.335 157.716 498.755 156.942 498.755C156.169 498.755 155.571 499.335 155.571 500.082C155.571 500.82 156.169 501.409 156.942 501.409ZM156.942 512.185C157.733 512.185 158.226 511.684 158.226 510.849V503.729C158.226 502.895 157.733 502.385 156.942 502.385C156.143 502.385 155.659 502.895 155.659 503.729V510.849C155.659 511.684 156.143 512.185 156.942 512.185ZM163.895 512.185C164.826 512.185 165.362 511.78 165.688 510.875L168.14 504.248C168.219 504.028 168.28 503.765 168.28 503.527C168.28 502.877 167.744 502.385 167.032 502.385C166.435 502.385 166.004 502.71 165.828 503.387L163.921 509.732H163.868L161.961 503.413C161.768 502.719 161.354 502.385 160.73 502.385C160.001 502.385 159.447 502.842 159.447 503.536C159.447 503.8 159.509 504.072 159.588 504.301L162.04 510.875C162.383 511.789 162.91 512.185 163.895 512.185ZM173.519 512.202C175.338 512.202 176.797 511.517 177.421 510.356C177.535 510.146 177.597 509.935 177.597 509.732C177.597 509.144 177.148 508.792 176.595 508.792C176.261 508.792 176.032 508.889 175.76 509.17C175.065 509.987 174.45 510.304 173.51 510.304C172.209 510.304 171.365 509.39 171.365 507.992V507.878H176.744C177.456 507.878 177.86 507.474 177.86 506.762C177.86 504.204 176.067 502.376 173.396 502.376C170.609 502.376 168.843 504.301 168.843 507.333C168.843 510.383 170.574 512.202 173.519 512.202ZM171.392 506.305C171.479 505.101 172.297 504.274 173.422 504.274C174.547 504.274 175.338 505.074 175.391 506.305H171.392ZM134.196 533.167C135.031 533.167 135.523 532.657 135.523 531.787V522.515H138.151C138.863 522.515 139.347 522.102 139.347 521.416C139.347 520.73 138.872 520.317 138.151 520.317H130.25C129.521 520.317 129.046 520.73 129.046 521.416C129.046 522.102 129.529 522.515 130.25 522.515H132.869V531.787C132.869 532.657 133.361 533.167 134.196 533.167ZM142.704 533.202C144.523 533.202 145.982 532.517 146.606 531.356C146.721 531.146 146.782 530.935 146.782 530.732C146.782 530.144 146.334 529.792 145.78 529.792C145.446 529.792 145.218 529.889 144.945 530.17C144.251 530.987 143.636 531.304 142.695 531.304C141.395 531.304 140.551 530.39 140.551 528.992V528.878H145.93C146.642 528.878 147.046 528.474 147.046 527.762C147.046 525.204 145.253 523.376 142.581 523.376C139.795 523.376 138.028 525.301 138.028 528.333C138.028 531.383 139.76 533.202 142.704 533.202ZM140.577 527.305C140.665 526.101 141.482 525.274 142.607 525.274C143.732 525.274 144.523 526.074 144.576 527.305H140.577ZM152.214 533.202C154.701 533.202 156.38 531.989 156.38 530.117C156.38 528.711 155.554 527.973 153.55 527.551L151.994 527.217C151.054 527.015 150.685 526.689 150.685 526.197C150.685 525.591 151.291 525.178 152.161 525.178C153.084 525.178 153.594 525.617 154.042 526.188C154.271 526.461 154.64 526.584 154.974 526.584C155.633 526.584 155.958 526.224 155.958 525.705C155.958 525.582 155.932 525.459 155.896 525.327C155.589 524.264 154.156 523.376 152.205 523.376C149.762 523.376 148.206 524.536 148.206 526.338C148.206 527.735 149.138 528.676 150.983 529.071L152.565 529.405C153.488 529.607 153.813 529.88 153.813 530.39C153.813 531.014 153.207 531.4 152.275 531.4C151.3 531.4 150.72 531.102 150.219 530.442C149.867 530.047 149.516 529.862 149.103 529.862C148.505 529.862 148.065 530.258 148.065 530.847C148.065 530.987 148.101 531.154 148.162 531.321C148.61 532.429 150.052 533.202 152.214 533.202ZM158.34 530.592C158.34 532.253 159.21 533.105 160.924 533.105H161.012C162.093 533.105 162.831 532.719 162.831 531.963C162.831 531.365 162.488 531.102 161.855 531.031L161.688 531.014C161.135 530.97 160.906 530.688 160.906 530.021V525.512H161.812C162.418 525.512 162.796 525.134 162.796 524.545C162.796 523.956 162.418 523.578 161.812 523.578H160.906V522.532C160.906 521.706 160.423 521.196 159.623 521.196C158.823 521.196 158.34 521.706 158.34 522.532V523.578H157.848C157.241 523.578 156.854 523.947 156.854 524.545C156.854 525.143 157.241 525.512 157.848 525.512H158.34V530.592Z"/><rect width="100" height="25" x="96" y="626" fill="#0061D9"/><path fill="#fff" d="M126.793 640.586C126.846 642.18 128.188 643.146 130.203 643.146C132.318 643.146 133.613 642.098 133.613 640.445C133.613 639.162 132.834 638.441 131.047 638.084L130.15 637.902C129.154 637.703 128.744 637.381 128.744 636.859C128.744 636.238 129.33 635.828 130.203 635.828C131.094 635.828 131.721 636.262 131.779 636.982H133.449C133.42 635.43 132.178 634.398 130.203 634.398C128.322 634.398 126.975 635.424 126.975 636.971C126.975 638.23 127.801 639.039 129.488 639.373L130.379 639.549C131.439 639.766 131.838 640.082 131.838 640.639C131.838 641.26 131.193 641.717 130.25 641.717C129.289 641.717 128.574 641.295 128.463 640.586H126.793ZM140.352 636.719H138.641V640.316C138.641 641.148 138.166 641.693 137.404 641.693C136.648 641.693 136.232 641.248 136.232 640.41V636.719H134.521V640.768C134.521 642.232 135.424 643.117 136.783 643.117C137.732 643.117 138.354 642.66 138.664 641.869H138.699V643H140.352V636.719ZM145.197 643.1C146.779 643.1 147.746 641.881 147.746 639.859C147.746 637.832 146.773 636.619 145.191 636.619C144.295 636.619 143.598 637.064 143.252 637.809H143.217V634.545H141.506V643H143.193V641.922H143.229C143.574 642.654 144.277 643.1 145.197 643.1ZM144.605 637.99C145.455 637.99 145.994 638.717 145.994 639.859C145.994 641.008 145.461 641.723 144.605 641.723C143.773 641.723 143.211 640.996 143.211 639.859C143.211 638.734 143.779 637.99 144.605 637.99ZM148.637 643H150.348V639.209C150.348 638.506 150.787 638.014 151.438 638.014C152.07 638.014 152.451 638.412 152.451 639.086V643H154.098V639.186C154.098 638.488 154.525 638.014 155.176 638.014C155.838 638.014 156.201 638.412 156.201 639.139V643H157.912V638.711C157.912 637.445 157.086 636.602 155.855 636.602C154.936 636.602 154.186 637.1 153.904 637.891H153.869C153.658 637.07 153.025 636.602 152.117 636.602C151.262 636.602 150.588 637.1 150.324 637.855H150.289V636.719H148.637V643ZM159.025 643H160.736V636.719H159.025V643ZM159.875 635.869C160.373 635.869 160.766 635.471 160.766 634.99C160.766 634.504 160.373 634.111 159.875 634.111C159.377 634.111 158.984 634.504 158.984 634.99C158.984 635.471 159.377 635.869 159.875 635.869ZM162.336 635.271V636.719H161.451V638.008H162.336V641.307C162.336 642.531 162.91 643.023 164.387 643.023C164.732 643.023 165.025 642.994 165.201 642.953V641.693C165.096 641.711 164.938 641.723 164.785 641.723C164.281 641.723 164.047 641.494 164.047 641.014V638.008H165.207V636.719H164.047V635.271H162.336Z"/><circle cx="146" cy="465" r="25" fill="#C4C4C4"/><path stroke="#DD3D12" stroke-linecap="round" stroke-linejoin="round" stroke-miterlimit="10" stroke-width="10" d="M129.333 465L162.667 465"/><path stroke="#DD3D12" stroke-linecap="round" stroke-linejoin="round" stroke-miterlimit="10" stroke-width="10" d="M146 481.667L146 450.417"/></g><path fill="#070707" d="M110.206 400.358H181.556C181.556 406.08 176.917 410.719 171.195 410.719H120.567C114.845 410.719 110.206 406.08 110.206 400.358Z"/><path fill="#fff" d="M244.717 565.631L245.607 562.203H245.684L246.562 565.631H244.717ZM247.424 569H249.223L246.686 560.545H244.717L242.18 569H243.844L244.383 566.932H246.896L247.424 569ZM255.973 569V567.723H254.045V560.076H250.494V561.354H252.439V567.723H250.389V569H255.973ZM260.631 561.219C261.287 561.219 261.732 560.814 261.732 560.205C261.732 559.596 261.287 559.191 260.631 559.191C259.975 559.191 259.535 559.596 259.535 560.205C259.535 560.814 259.975 561.219 260.631 561.219ZM263.391 569V567.723H261.439V562.537H257.912V563.82H259.881V567.723H257.807V569H263.391ZM270.879 564.793C270.727 563.211 269.754 562.379 268.084 562.379C266.18 562.379 265.125 563.457 265.125 565.42V566.1C265.125 568.062 266.18 569.141 268.084 569.141C269.754 569.141 270.738 568.32 270.879 566.779H269.309C269.197 567.471 268.775 567.805 268.072 567.805C267.211 567.805 266.736 567.16 266.736 565.977V565.543C266.736 564.359 267.211 563.715 268.072 563.715C268.77 563.715 269.203 564.066 269.309 564.793H270.879ZM275.449 563.645C276.258 563.645 276.738 564.201 276.738 565.127H274.119C274.119 564.201 274.617 563.645 275.449 563.645ZM276.773 567.184C276.656 567.605 276.146 567.898 275.502 567.898C274.664 567.898 274.119 567.348 274.119 566.504V566.152H278.285V565.262C278.285 563.527 277.189 562.402 275.479 562.402C273.721 562.402 272.549 563.521 272.549 565.215V566.252C272.549 568.086 273.627 569.141 275.508 569.141C277.008 569.141 278.15 568.326 278.285 567.184H276.773ZM283.137 564.365L283.916 560.545H282.316L281.666 564.365H283.137ZM287.596 564.424C287.596 565.42 288.211 566.053 289.424 566.316L290.391 566.521C291.07 566.668 291.316 566.844 291.316 567.207C291.316 567.629 290.895 567.904 290.238 567.904C289.57 567.904 289.137 567.658 289.037 567.213H287.455C287.543 568.426 288.562 569.135 290.215 569.135C291.896 569.135 292.963 568.309 292.963 567.002C292.963 566.018 292.383 565.461 291.076 565.191L290.074 564.986C289.447 564.857 289.178 564.646 289.178 564.295C289.178 563.885 289.582 563.609 290.191 563.609C290.789 563.609 291.211 563.873 291.287 564.301H292.799C292.723 563.088 291.768 562.385 290.203 562.385C288.604 562.385 287.596 563.17 287.596 564.424ZM303.844 569V566.428L304.588 565.479L306.896 569H308.836L305.736 564.277L308.648 560.545H306.891L303.932 564.395H303.844V560.545H302.262V569H303.844ZM312.539 563.645C313.348 563.645 313.828 564.201 313.828 565.127H311.209C311.209 564.201 311.707 563.645 312.539 563.645ZM313.863 567.184C313.746 567.605 313.236 567.898 312.592 567.898C311.754 567.898 311.209 567.348 311.209 566.504V566.152H315.375V565.262C315.375 563.527 314.279 562.402 312.568 562.402C310.811 562.402 309.639 563.521 309.639 565.215V566.252C309.639 568.086 310.717 569.141 312.598 569.141C314.098 569.141 315.24 568.326 315.375 567.184H313.863ZM317.971 571.332C319.553 571.332 320.309 570.746 320.865 569.082L323.092 562.537H321.393L319.963 567.523H319.863L318.434 562.537H316.664L318.938 569.047L318.873 569.293C318.721 569.803 318.363 570.025 317.713 570.025C317.625 570.025 317.396 570.02 317.355 570.008V571.32C317.402 571.326 317.695 571.332 317.971 571.332ZM324.686 564.424C324.686 565.42 325.301 566.053 326.514 566.316L327.48 566.521C328.16 566.668 328.406 566.844 328.406 567.207C328.406 567.629 327.984 567.904 327.328 567.904C326.66 567.904 326.227 567.658 326.127 567.213H324.545C324.633 568.426 325.652 569.135 327.305 569.135C328.986 569.135 330.053 568.309 330.053 567.002C330.053 566.018 329.473 565.461 328.166 565.191L327.164 564.986C326.537 564.857 326.268 564.646 326.268 564.295C326.268 563.885 326.672 563.609 327.281 563.609C327.879 563.609 328.301 563.873 328.377 564.301H329.889C329.812 563.088 328.857 562.385 327.293 562.385C325.693 562.385 324.686 563.17 324.686 564.424Z"/><path stroke="#fff" stroke-linejoin="round" stroke-width="10" d="M264.769 536.538C270.717 536.538 275.538 531.717 275.538 525.769C275.538 519.822 270.717 515 264.769 515C258.822 515 254 519.822 254 525.769C254 531.717 258.822 536.538 264.769 536.538Z"/><path stroke="#fff" stroke-linejoin="round" stroke-width="10" d="M314 531.923H301.692M277.077 525.769H314H277.077Z"/><path fill="#65CE60" d="M668.098 507.321L663.118 506.868C662.991 508.268 663.458 509.656 664.406 510.693C665.353 511.73 666.693 512.321 668.098 512.321V507.321ZM654.878 464.893L658.719 461.692L654.878 464.893ZM552.447 496.807L551.84 501.77C553.183 501.935 554.535 501.548 555.588 500.698C556.64 499.848 557.304 498.607 557.426 497.26L552.447 496.807ZM540.881 591.431L540.275 596.394C540.476 596.419 540.679 596.431 540.881 596.431V591.431ZM605.015 538.862L608.551 535.327C607.613 534.389 606.341 533.862 605.014 533.862L605.015 538.862ZM668.098 596.431C680.578 596.431 692.546 591.474 701.371 582.649L694.3 575.578C687.351 582.527 677.925 586.431 668.098 586.431V596.431ZM701.371 582.649C710.195 573.825 715.153 561.856 715.153 549.376H705.153C705.153 559.204 701.249 568.629 694.3 575.578L701.371 582.649ZM715.153 549.376C715.153 536.896 710.195 524.928 701.371 516.103L694.3 523.174C701.249 530.123 705.153 539.549 705.153 549.376H715.153ZM701.371 516.103C692.546 507.279 680.578 502.321 668.098 502.321V512.321C677.925 512.321 687.351 516.225 694.3 523.174L701.371 516.103ZM673.077 507.774C673.827 499.526 672.945 491.212 670.482 483.305L660.934 486.279C663.007 492.932 663.749 499.929 663.118 506.868L673.077 507.774ZM670.482 483.305C668.018 475.398 664.021 468.054 658.719 461.692L651.037 468.093C655.498 473.447 658.861 479.626 660.934 486.279L670.482 483.305ZM658.719 461.692C648.012 448.843 632.639 440.773 615.982 439.259L615.076 449.218C629.092 450.492 642.028 457.282 651.037 468.093L658.719 461.692ZM615.982 439.259C599.325 437.745 582.749 442.91 569.9 453.617L576.301 461.299C587.113 452.29 601.061 447.944 615.076 449.218L615.982 439.259ZM569.9 453.617C557.051 464.325 548.981 479.698 547.467 496.355L557.426 497.26C558.7 483.244 565.49 470.309 576.301 461.299L569.9 453.617ZM553.053 491.844C546.188 491.005 539.225 491.527 532.562 493.378L535.24 503.013C540.638 501.513 546.279 501.091 551.84 501.77L553.053 491.844ZM532.562 493.378C525.899 495.23 519.665 498.377 514.218 502.637L520.379 510.514C524.792 507.062 529.842 504.514 535.24 503.013L532.562 493.378ZM514.218 502.637C508.77 506.898 504.215 512.191 500.813 518.212L509.52 523.131C512.276 518.253 515.966 513.966 520.379 510.514L514.218 502.637ZM500.813 518.212C497.411 524.233 495.228 530.865 494.389 537.73L504.315 538.943C504.995 533.382 506.763 528.009 509.52 523.131L500.813 518.212ZM494.389 537.73C493.55 544.595 494.071 551.558 495.923 558.221L505.558 555.544C504.058 550.145 503.635 544.505 504.315 538.943L494.389 537.73ZM495.923 558.221C497.775 564.885 500.921 571.118 505.182 576.565L513.059 570.404C509.607 565.991 507.058 560.942 505.558 555.544L495.923 558.221ZM505.182 576.565C509.443 582.013 514.735 586.568 520.756 589.97L525.676 581.264C520.798 578.508 516.511 574.818 513.059 570.404L505.182 576.565ZM520.756 589.97C526.778 593.372 533.41 595.555 540.275 596.394L541.488 586.468C535.927 585.788 530.554 584.02 525.676 581.264L520.756 589.97ZM540.881 596.431H541.933V586.431H540.881V596.431ZM605.014 533.862C601.751 533.863 600.056 536.241 599.418 537.671C598.812 539.029 598.607 540.543 598.517 541.756C598.326 544.307 598.515 547.703 598.857 551.455C599.54 558.961 601.015 569.56 602.244 580.55C603.495 591.731 604.542 603.691 604.492 614.682C604.44 625.789 603.261 635.357 600.415 642.041L609.616 645.959C613.262 637.393 614.438 626.194 614.491 614.728C614.545 603.147 613.445 590.729 612.182 579.438C610.898 567.957 609.493 557.99 608.815 550.548C608.477 546.827 608.365 544.153 608.489 542.503C608.555 541.616 608.662 541.496 608.55 541.745C608.407 542.068 607.389 543.862 605.016 543.862L605.014 533.862ZM566.496 584.453L608.551 542.398L601.48 535.327L559.425 577.382L566.496 584.453ZM601.48 542.398L643.535 584.453L650.606 577.382L608.551 535.327L601.48 542.398ZM600.415 642.041C598.032 647.639 591.83 651.923 581.84 655.666C571.94 659.376 560.056 661.976 547.631 665.353C535.546 668.638 523.084 672.636 513.455 679.154C503.572 685.843 496.467 695.346 495.747 709.241L505.734 709.759C506.258 699.642 511.187 692.764 519.06 687.435C527.187 681.934 538.204 678.278 550.253 675.003C561.962 671.821 574.869 668.957 585.349 665.03C595.739 661.137 605.507 655.611 609.616 645.959L600.415 642.041ZM495.747 709.241C495.05 722.689 500.351 736.008 507.737 746.942C515.128 757.884 524.985 767.004 534.258 771.978C538.868 774.45 543.714 776.103 548.264 776.113C553.04 776.124 557.591 774.279 560.521 769.846C563.247 765.719 564.062 760.091 563.497 753.488C562.924 746.79 560.879 738.446 557.139 728.275L547.754 731.725C551.321 741.429 553.064 748.851 553.533 754.34C554.011 759.924 553.122 762.903 552.178 764.333C551.435 765.456 550.345 766.118 548.287 766.113C546.003 766.108 542.822 765.223 538.985 763.166C531.367 759.08 522.661 751.171 516.024 741.344C509.381 731.511 505.186 720.323 505.734 709.759L495.747 709.241ZM557.139 728.275C542.213 687.677 506.501 634.498 464.437 592.093C443.37 570.857 420.549 552.156 397.732 539.044C374.973 525.965 351.807 518.212 330.2 519.509L330.8 529.491C349.693 528.357 370.867 535.139 392.749 547.714C414.574 560.256 436.696 578.327 457.337 599.136C498.688 640.821 533.45 692.823 547.754 731.725L557.139 728.275Z"/><defs><filter id="filter0_ddi" width="301.644" height="456" x="-5" y="366" color-interpolation-filters="sRGB" filterUnits="userSpaceOnUse"><feFlood flood-opacity="0" result="BackgroundImageFix"/><feColorMatrix in="SourceAlpha" type="matrix" values="0 0 0 0 0 0 0 0 0 0 0 0 0 0 0 0 0 0 127 0"/><feOffset dy="50"/><feGaussianBlur stdDeviation="39"/><feColorMatrix type="matrix" values="0 0 0 0 0 0 0 0 0 0 0 0 0 0 0 0 0 0 0.18 0"/><feBlend in2="BackgroundImageFix" mode="normal" result="effect1_dropShadow"/><feColorMatrix in="SourceAlpha" type="matrix" values="0 0 0 0 0 0 0 0 0 0 0 0 0 0 0 0 0 0 127 0"/><feOffset dy="8"/><feGaussianBlur stdDeviation="14"/><feColorMatrix type="matrix" values="0 0 0 0 0 0 0 0 0 0 0 0 0 0 0 0 0 0 0.16 0"/><feBlend in2="effect1_dropShadow" mode="normal" result="effect2_dropShadow"/><feBlend in="SourceGraphic" in2="effect2_dropShadow" mode="normal" result="shape"/><feColorMatrix in="SourceAlpha" result="hardAlpha" type="matrix" values="0 0 0 0 0 0 0 0 0 0 0 0 0 0 0 0 0 0 127 0"/><feOffset dy="-18"/><feGaussianBlur stdDeviation="15"/><feComposite in2="hardAlpha" k2="-1" k3="1" operator="arithmetic"/><feColorMatrix type="matrix" values="0 0 0 0 0 0 0 0 0 0 0 0 0 0 0 0 0 0 0.08 0"/><feBlend in2="shape" mode="normal" result="effect3_innerShadow"/></filter></defs></svg>