<svg width="825" height="656" viewBox="0 0 825 656" fill="none" xmlns="http://www.w3.org/2000/svg">
<g filter="url(#filter0_ddi)">
<rect x="73" y="28" width="242.739" height="500" rx="35" fill="#0061D9"/>
</g>
<rect x="83.989" y="38.989" width="220.761" height="478.022" rx="30" fill="#EBEBEB"/>
<mask id="mask0" mask-type="alpha" maskUnits="userSpaceOnUse" x="83" y="38" width="222" height="480">
<rect x="83.989" y="38.989" width="220.761" height="478.022" rx="30" fill="white"/>
</mask>
<g mask="url(#mask0)">
<rect x="189.25" y="259" width="9.375" height="50" rx="4.6875" fill="#333333"/>
<rect x="169" y="288.625" width="9.375" height="50" rx="4.6875" transform="rotate(-90 169 288.625)" fill="#333333"/>
<path d="M149.476 404C152.191 404 153.87 402.611 153.87 400.388C153.87 398.744 152.666 397.47 150.979 397.347V397.197C152.297 396.995 153.264 395.844 153.264 394.473C153.264 392.495 151.796 391.317 149.361 391.317H144.694V404H149.476ZM147.138 393.242H148.685C150.021 393.242 150.75 393.831 150.75 394.921C150.75 395.94 149.959 396.538 148.579 396.538H147.138V393.242ZM147.138 402.04V398.366H148.685C150.398 398.366 151.269 398.964 151.269 400.168C151.269 401.451 150.442 402.04 148.702 402.04H147.138ZM160.119 404.211C162.853 404.211 164.575 402.55 164.575 399.904V398.41C164.575 395.765 162.853 394.104 160.119 394.104C157.386 394.104 155.663 395.765 155.663 398.41V399.904C155.663 402.55 157.386 404.211 160.119 404.211ZM160.119 396.072C161.411 396.072 162.211 397.004 162.211 398.507V399.808C162.211 401.302 161.411 402.242 160.119 402.242C158.827 402.242 158.027 401.302 158.027 399.808V398.507C158.027 397.004 158.827 396.072 160.119 396.072ZM172.318 404.149C174.542 404.149 175.852 402.62 175.852 399.983V398.313C175.852 395.677 174.542 394.147 172.318 394.147C170.93 394.147 169.963 394.798 169.638 395.958H169.453V390.614H166.948V404H169.427V402.33H169.603C169.945 403.508 170.903 404.149 172.318 404.149ZM171.396 402.066C170.156 402.066 169.392 401.249 169.392 399.913V398.313C169.392 396.978 170.156 396.169 171.396 396.169C172.644 396.169 173.399 396.978 173.399 398.313V399.913C173.399 401.249 172.644 402.066 171.396 402.066ZM182.892 397.048L184.061 391.317H181.661L180.686 397.048H182.892ZM189.58 397.136C189.58 398.63 190.503 399.579 192.322 399.975L193.772 400.282C194.792 400.502 195.161 400.766 195.161 401.311C195.161 401.943 194.528 402.356 193.544 402.356C192.542 402.356 191.892 401.987 191.742 401.319H189.369C189.501 403.139 191.03 404.202 193.509 404.202C196.031 404.202 197.631 402.963 197.631 401.003C197.631 399.526 196.761 398.691 194.801 398.287L193.298 397.979C192.357 397.786 191.953 397.47 191.953 396.942C191.953 396.327 192.56 395.914 193.474 395.914C194.37 395.914 195.003 396.31 195.117 396.951H197.385C197.271 395.132 195.838 394.077 193.491 394.077C191.092 394.077 189.58 395.255 189.58 397.136ZM213.952 404V400.142L215.068 398.718L218.531 404H221.44L216.791 396.916L221.159 391.317H218.522L214.084 397.092H213.952V391.317H211.579V404H213.952ZM226.995 395.967C228.208 395.967 228.929 396.802 228.929 398.19H225C225 396.802 225.747 395.967 226.995 395.967ZM228.981 401.275C228.806 401.908 228.041 402.348 227.074 402.348C225.817 402.348 225 401.521 225 400.256V399.729H231.249V398.393C231.249 395.791 229.605 394.104 227.039 394.104C224.402 394.104 222.645 395.782 222.645 398.322V399.878C222.645 402.629 224.262 404.211 227.083 404.211C229.333 404.211 231.047 402.989 231.249 401.275H228.981ZM235.143 407.498C237.516 407.498 238.649 406.619 239.484 404.123L242.824 394.306H240.275L238.131 401.785H237.981L235.837 394.306H233.183L236.593 404.07L236.496 404.439C236.268 405.204 235.731 405.538 234.756 405.538C234.624 405.538 234.281 405.529 234.22 405.512V407.48C234.29 407.489 234.729 407.498 235.143 407.498Z" fill="black"/>
<path d="M178.058 233V222.471H181.688V220.317H171.932V222.471H175.562V233H178.058ZM188.077 221.328C189.062 221.328 189.729 220.722 189.729 219.808C189.729 218.894 189.062 218.287 188.077 218.287C187.093 218.287 186.434 218.894 186.434 219.808C186.434 220.722 187.093 221.328 188.077 221.328ZM192.217 233V231.084H189.29V223.306H183.999V225.23H186.952V231.084H183.841V233H192.217ZM203.959 225.477C203.959 223.938 203.309 223.104 202.113 223.104C201.19 223.104 200.514 223.71 200.312 224.747H200.057C199.854 223.701 199.239 223.104 198.36 223.104C197.402 223.104 196.743 223.71 196.523 224.826H196.269V223.306H194.168V233H196.207V226.347C196.207 225.635 196.585 225.178 197.165 225.178C197.736 225.178 198.062 225.591 198.062 226.285V233H200.074V226.347C200.074 225.635 200.452 225.178 201.023 225.178C201.577 225.178 201.92 225.591 201.92 226.285V233H203.959V225.477ZM210.305 224.967C211.518 224.967 212.238 225.802 212.238 227.19H208.31C208.31 225.802 209.057 224.967 210.305 224.967ZM212.291 230.275C212.115 230.908 211.351 231.348 210.384 231.348C209.127 231.348 208.31 230.521 208.31 229.256V228.729H214.559V227.393C214.559 224.791 212.915 223.104 210.349 223.104C207.712 223.104 205.954 224.782 205.954 227.322V228.878C205.954 231.629 207.571 233.211 210.393 233.211C212.643 233.211 214.356 231.989 214.559 230.275H212.291Z" fill="black"/>
<path d="M161.949 365.897C171.862 365.897 179.897 357.862 179.897 347.949C179.897 338.036 171.862 330 161.949 330C152.036 330 144 338.036 144 347.949C144 357.862 152.036 365.897 161.949 365.897Z" stroke="#1277EB" stroke-width="15" stroke-linejoin="round"/>
<path d="M244 358.205H223.487M182.461 347.949H244H182.461Z" stroke="#1277EB" stroke-width="15" stroke-linejoin="round"/>
<path d="M169 169.875H219M181.5 148V163.625M206.5 148V163.625M169 157.375H219V201.125H169V157.375Z" stroke="#0061D9" stroke-width="7" stroke-linejoin="round"/>
</g>
<path d="M135.009 38.5964H253.926C253.926 48.1335 246.195 55.8649 236.658 55.8649H152.278C142.741 55.8649 135.009 48.1335 135.009 38.5964Z" fill="#0061D9"/>
<g filter="url(#filter1_ddi)">
<rect x="510" y="28" width="242.739" height="500" rx="35" fill="#070707"/>
</g>
<rect x="520.989" y="38.989" width="220.761" height="478.022" rx="30" fill="#EBEBEB"/>
<mask id="mask1" mask-type="alpha" maskUnits="userSpaceOnUse" x="520" y="38" width="222" height="480">
<rect x="520.989" y="38.989" width="220.761" height="478.022" rx="110.381" fill="white"/>
</mask>
<g mask="url(#mask1)">
<rect x="626.25" y="259" width="9.375" height="50" rx="4.6875" fill="#333333"/>
<rect x="606" y="288.625" width="9.375" height="50" rx="4.6875" transform="rotate(-90 606 288.625)" fill="#333333"/>
<path d="M573.389 398.946L574.725 393.805H574.839L576.157 398.946H573.389ZM577.449 404H580.147L576.342 391.317H573.389L569.583 404H572.079L572.888 400.897H576.658L577.449 404ZM590.272 404V402.084H587.381V390.614H582.055V392.53H584.973V402.084H581.896V404H590.272ZM597.26 392.328C598.244 392.328 598.912 391.722 598.912 390.808C598.912 389.894 598.244 389.287 597.26 389.287C596.275 389.287 595.616 389.894 595.616 390.808C595.616 391.722 596.275 392.328 597.26 392.328ZM601.399 404V402.084H598.473V394.306H593.182V396.23H596.135V402.084H593.023V404H601.399ZM612.632 397.689C612.403 395.316 610.944 394.068 608.439 394.068C605.583 394.068 604.001 395.686 604.001 398.63V399.649C604.001 402.594 605.583 404.211 608.439 404.211C610.944 404.211 612.421 402.98 612.632 400.669H610.276C610.109 401.706 609.477 402.207 608.422 402.207C607.13 402.207 606.418 401.24 606.418 399.465V398.814C606.418 397.039 607.13 396.072 608.422 396.072C609.468 396.072 610.118 396.6 610.276 397.689H612.632ZM619.487 395.967C620.7 395.967 621.421 396.802 621.421 398.19H617.492C617.492 396.802 618.239 395.967 619.487 395.967ZM621.474 401.275C621.298 401.908 620.533 402.348 619.566 402.348C618.31 402.348 617.492 401.521 617.492 400.256V399.729H623.741V398.393C623.741 395.791 622.098 394.104 619.531 394.104C616.895 394.104 615.137 395.782 615.137 398.322V399.878C615.137 402.629 616.754 404.211 619.575 404.211C621.825 404.211 623.539 402.989 623.741 401.275H621.474ZM631.019 397.048L632.188 391.317H629.788L628.812 397.048H631.019ZM637.707 397.136C637.707 398.63 638.63 399.579 640.449 399.975L641.899 400.282C642.919 400.502 643.288 400.766 643.288 401.311C643.288 401.943 642.655 402.356 641.671 402.356C640.669 402.356 640.019 401.987 639.869 401.319H637.496C637.628 403.139 639.157 404.202 641.636 404.202C644.158 404.202 645.758 402.963 645.758 401.003C645.758 399.526 644.888 398.691 642.928 398.287L641.425 397.979C640.484 397.786 640.08 397.47 640.08 396.942C640.08 396.327 640.687 395.914 641.601 395.914C642.497 395.914 643.13 396.31 643.244 396.951H645.512C645.397 395.132 643.965 394.077 641.618 394.077C639.219 394.077 637.707 395.255 637.707 397.136ZM662.079 404V400.142L663.195 398.718L666.658 404H669.567L664.918 396.916L669.286 391.317H666.649L662.211 397.092H662.079V391.317H659.706V404H662.079ZM675.122 395.967C676.335 395.967 677.056 396.802 677.056 398.19H673.127C673.127 396.802 673.874 395.967 675.122 395.967ZM677.108 401.275C676.933 401.908 676.168 402.348 675.201 402.348C673.944 402.348 673.127 401.521 673.127 400.256V399.729H679.376V398.393C679.376 395.791 677.732 394.104 675.166 394.104C672.529 394.104 670.771 395.782 670.771 398.322V399.878C670.771 402.629 672.389 404.211 675.21 404.211C677.46 404.211 679.174 402.989 679.376 401.275H677.108ZM683.27 407.498C685.643 407.498 686.776 406.619 687.611 404.123L690.951 394.306H688.402L686.258 401.785H686.108L683.964 394.306H681.31L684.72 404.07L684.623 404.439C684.395 405.204 683.858 405.538 682.883 405.538C682.751 405.538 682.408 405.529 682.347 405.512V407.48C682.417 407.489 682.856 407.498 683.27 407.498Z" fill="black"/>
<path d="M615.058 233V222.471H618.688V220.317H608.932V222.471H612.562V233H615.058ZM625.077 221.328C626.062 221.328 626.729 220.722 626.729 219.808C626.729 218.894 626.062 218.287 625.077 218.287C624.093 218.287 623.434 218.894 623.434 219.808C623.434 220.722 624.093 221.328 625.077 221.328ZM629.217 233V231.084H626.29V223.306H620.999V225.23H623.952V231.084H620.841V233H629.217ZM640.959 225.477C640.959 223.938 640.309 223.104 639.113 223.104C638.19 223.104 637.514 223.71 637.312 224.747H637.057C636.854 223.701 636.239 223.104 635.36 223.104C634.402 223.104 633.743 223.71 633.523 224.826H633.269V223.306H631.168V233H633.207V226.347C633.207 225.635 633.585 225.178 634.165 225.178C634.736 225.178 635.062 225.591 635.062 226.285V233H637.074V226.347C637.074 225.635 637.452 225.178 638.023 225.178C638.577 225.178 638.92 225.591 638.92 226.285V233H640.959V225.477ZM647.305 224.967C648.518 224.967 649.238 225.802 649.238 227.19H645.31C645.31 225.802 646.057 224.967 647.305 224.967ZM649.291 230.275C649.115 230.908 648.351 231.348 647.384 231.348C646.127 231.348 645.31 230.521 645.31 229.256V228.729H651.559V227.393C651.559 224.791 649.915 223.104 647.349 223.104C644.712 223.104 642.954 224.782 642.954 227.322V228.878C642.954 231.629 644.571 233.211 647.393 233.211C649.643 233.211 651.356 231.989 651.559 230.275H649.291Z" fill="black"/>
<path d="M598.949 365.897C608.862 365.897 616.897 357.862 616.897 347.949C616.897 338.036 608.862 330 598.949 330C589.036 330 581 338.036 581 347.949C581 357.862 589.036 365.897 598.949 365.897Z" stroke="black" stroke-width="15" stroke-linejoin="round"/>
<path d="M681 358.205H660.487M619.461 347.949H681H619.461Z" stroke="black" stroke-width="15" stroke-linejoin="round"/>
<path d="M606 169.875H656M618.5 148V163.625M643.5 148V163.625M606 157.375H656V201.125H606V157.375Z" stroke="black" stroke-width="7" stroke-linejoin="round"/>
</g>
<path d="M572.01 38.5964H690.926C690.926 48.1335 683.195 55.8649 673.658 55.8649H589.278C579.741 55.8649 572.01 48.1335 572.01 38.5964Z" fill="#070707"/>
<path d="M421.727 443.302C421.727 428.154 415.968 414.742 407.116 406.502L396.587 413.333C404.599 419.329 409.987 430.503 409.987 443.302C409.987 455.153 405.365 465.611 398.321 471.858L408.317 478.939C416.487 470.63 421.727 457.756 421.727 443.302Z" fill="#0061D9"/>
<path d="M395.381 442.086C395.381 433.47 392.174 425.604 386.896 419.619L378 425.388C381.797 429.897 384.089 435.722 384.089 442.086C384.089 448.06 382.071 453.557 378.683 457.941L387.328 464.061C392.352 458.14 395.381 450.469 395.381 442.086Z" fill="#0061D9"/>
<path d="M447.878 443.109C447.878 423.201 440.172 405.317 427.931 393L417.957 399.473C428.494 408.575 435.492 424.578 435.492 442.811C435.492 460.903 428.604 476.805 418.202 485.945L428.155 493C440.267 480.687 447.878 462.898 447.878 443.109Z" fill="#0061D9"/>
<path d="M400.151 105.698C400.151 120.846 405.91 134.258 414.763 142.498L425.291 135.667C417.279 129.671 411.892 118.497 411.892 105.698C411.892 93.8468 416.513 83.3886 423.557 77.1421L413.562 70.0606C405.391 78.3699 400.151 91.2444 400.151 105.698Z" fill="black"/>
<path d="M426.498 106.914C426.498 115.53 429.705 123.396 434.983 129.381L443.878 123.612C440.081 119.103 437.79 113.278 437.79 106.914C437.79 100.94 439.807 95.4425 443.195 91.0595L434.55 84.9385C429.526 90.8602 426.498 98.5313 426.498 106.914Z" fill="black"/>
<path d="M374 105.891C374 125.799 381.706 143.683 393.948 156L403.922 149.527C393.385 140.425 386.386 124.422 386.386 106.189C386.386 88.0974 393.275 72.1945 403.676 63.0548L393.724 56C381.611 68.3135 374 86.1016 374 105.891Z" fill="black"/>
<defs>
<filter id="filter0_ddi" x="-5" y="0" width="398.739" height="656" filterUnits="userSpaceOnUse" color-interpolation-filters="sRGB">
<feFlood flood-opacity="0" result="BackgroundImageFix"/>
<feColorMatrix in="SourceAlpha" type="matrix" values="0 0 0 0 0 0 0 0 0 0 0 0 0 0 0 0 0 0 127 0"/>
<feOffset dy="50"/>
<feGaussianBlur stdDeviation="39"/>
<feColorMatrix type="matrix" values="0 0 0 0 0 0 0 0 0 0 0 0 0 0 0 0 0 0 0.18 0"/>
<feBlend mode="normal" in2="BackgroundImageFix" result="effect1_dropShadow"/>
<feColorMatrix in="SourceAlpha" type="matrix" values="0 0 0 0 0 0 0 0 0 0 0 0 0 0 0 0 0 0 127 0"/>
<feOffset dy="8"/>
<feGaussianBlur stdDeviation="14"/>
<feColorMatrix type="matrix" values="0 0 0 0 0 0 0 0 0 0 0 0 0 0 0 0 0 0 0.16 0"/>
<feBlend mode="normal" in2="effect1_dropShadow" result="effect2_dropShadow"/>
<feBlend mode="normal" in="SourceGraphic" in2="effect2_dropShadow" result="shape"/>
<feColorMatrix in="SourceAlpha" type="matrix" values="0 0 0 0 0 0 0 0 0 0 0 0 0 0 0 0 0 0 127 0" result="hardAlpha"/>
<feOffset dy="-18"/>
<feGaussianBlur stdDeviation="15"/>
<feComposite in2="hardAlpha" operator="arithmetic" k2="-1" k3="1"/>
<feColorMatrix type="matrix" values="0 0 0 0 0 0 0 0 0 0 0 0 0 0 0 0 0 0 0.08 0"/>
<feBlend mode="normal" in2="shape" result="effect3_innerShadow"/>
</filter>
<filter id="filter1_ddi" x="432" y="0" width="398.739" height="656" filterUnits="userSpaceOnUse" color-interpolation-filters="sRGB">
<feFlood flood-opacity="0" result="BackgroundImageFix"/>
<feColorMatrix in="SourceAlpha" type="matrix" values="0 0 0 0 0 0 0 0 0 0 0 0 0 0 0 0 0 0 127 0"/>
<feOffset dy="50"/>
<feGaussianBlur stdDeviation="39"/>
<feColorMatrix type="matrix" values="0 0 0 0 0 0 0 0 0 0 0 0 0 0 0 0 0 0 0.18 0"/>
<feBlend mode="normal" in2="BackgroundImageFix" result="effect1_dropShadow"/>
<feColorMatrix in="SourceAlpha" type="matrix" values="0 0 0 0 0 0 0 0 0 0 0 0 0 0 0 0 0 0 127 0"/>
<feOffset dy="8"/>
<feGaussianBlur stdDeviation="14"/>
<feColorMatrix type="matrix" values="0 0 0 0 0 0 0 0 0 0 0 0 0 0 0 0 0 0 0.16 0"/>
<feBlend mode="normal" in2="effect1_dropShadow" result="effect2_dropShadow"/>
<feBlend mode="normal" in="SourceGraphic" in2="effect2_dropShadow" result="shape"/>
<feColorMatrix in="SourceAlpha" type="matrix" values="0 0 0 0 0 0 0 0 0 0 0 0 0 0 0 0 0 0 127 0" result="hardAlpha"/>
<feOffset dy="-18"/>
<feGaussianBlur stdDeviation="15"/>
<feComposite in2="hardAlpha" operator="arithmetic" k2="-1" k3="1"/>
<feColorMatrix type="matrix" values="0 0 0 0 0 0 0 0 0 0 0 0 0 0 0 0 0 0 0.08 0"/>
<feBlend mode="normal" in2="shape" result="effect3_innerShadow"/>
</filter>
</defs>
</svg>
