<svg xmlns="http://www.w3.org/2000/svg" width="802" height="870" fill="none" viewBox="0 0 802 870"><path fill="#FFADB6" d="M611.115 242.962L578.26 238.214L555.091 227.579C555.091 223.591 557.18 219.982 562.687 217.324C568.385 214.475 572.563 208.588 575.222 202.51C578.45 195.294 583.957 189.407 590.984 185.798L594.593 183.899C602.189 180.101 608.076 173.454 611.115 165.288L612.634 161.11L633.904 165.288L651.376 220.742L631.436 245.621L611.115 242.962Z"/><path fill="#FFF" stroke="#03254D" stroke-linejoin="round" stroke-miterlimit="10" stroke-width="5" d="M701.893 505.8L789.632 415.972C801.597 403.817 802.167 384.446 790.962 371.532L749.181 303.923C736.457 283.413 717.466 267.65 695.056 258.914L690.498 257.205L579.21 238.784L482.734 194.344L431.458 60.0763L384.55 74.5096L422.342 191.495C423.102 193.774 423.862 196.243 424.811 198.522C436.206 227.959 458.616 251.698 486.722 265.941L558.699 302.594L545.215 344.185C544.456 347.793 544.076 351.591 544.076 355.39C544.076 365.075 546.735 374.571 551.672 383.117C558.889 395.461 561.168 410.084 557.75 423.948L547.684 479.782L542.747 505.99L701.893 505.8ZM703.792 440.28L708.16 351.781L744.243 395.081L703.792 440.28Z"/><path fill="#F66A09" d="M680.621 189.786C686.698 162.439 676.823 137.181 658.781 133.003C640.549 129.014 620.039 152.753 613.962 180.101C607.884 207.448 618.709 227.769 636.751 231.757C654.793 235.745 674.544 217.134 680.621 189.786Z"/><path fill="#F66A09" d="M633.524 264.802C625.928 263.472 620.8 256.066 622.13 248.279L630.676 202.131L658.403 207.258L649.857 253.407C648.528 261.193 641.121 266.321 633.524 264.802Z"/><path fill="#FFADB6" d="M611.876 163.579L613.966 163.958C623.651 166.047 633.526 160.54 636.755 151.234L639.983 171.745C640.363 173.834 641.313 175.543 643.022 176.682C647.96 174.214 654.037 176.113 656.316 181.05C656.696 182 657.076 182.95 657.076 184.089C657.265 186.178 656.886 188.267 655.936 190.166L654.037 193.775C651.758 198.143 646.44 199.852 642.072 197.763L641.313 197.383L639.794 204.22C638.464 209.727 639.414 215.425 642.262 220.362L646.251 227.199C650.049 233.846 650.239 242.202 646.63 249.039C643.782 254.167 643.212 260.244 644.731 265.751L648.53 278.665L763.616 239.543L758.489 231.757C755.83 227.579 752.032 223.971 747.664 221.502L746.334 220.742C737.978 215.994 732.091 207.638 730.761 197.953C729.622 190.546 726.014 183.709 720.316 178.771L712.53 172.125C708.352 168.516 705.313 163.958 703.414 158.831L699.236 147.246C697.147 141.359 693.349 136.041 688.221 132.433C683.473 129.204 678.536 126.546 673.028 124.836C661.633 121.608 648.909 123.127 638.654 129.204C623.081 137.75 616.624 147.436 611.876 163.579Z"/><path fill="#F86A00" d="M424.621 16.9669L420.253 38.237L421.962 63.3054L395.754 71.4716L374.674 37.8572C372.965 35.0085 374.674 31.2103 377.903 30.6405C379.232 30.4506 380.562 30.8304 381.511 31.5901L390.057 41.8453C390.817 42.7949 392.336 42.0352 392.146 40.8958L389.677 19.4357L387.968 4.24274C387.778 2.34362 389.297 0.634406 391.387 0.634406C392.906 0.634406 394.235 1.77388 394.425 3.29318L396.894 19.2458V4.81247V3.86291C396.894 2.1537 398.033 0.444495 399.743 0.0646707C401.832 -0.315153 403.921 1.01424 404.111 3.10327C404.111 3.29318 404.111 3.48309 404.111 3.673V5.1923L403.731 23.044L407.149 6.71159C407.339 6.14186 407.529 5.76204 407.909 5.1923C408.479 4.43265 409.618 4.05283 410.568 4.05283H410.758C411.707 4.05283 412.657 4.62256 413.226 5.38221C413.606 5.95194 413.796 6.52168 413.796 7.28133L412.847 29.691L417.974 15.0677C418.164 14.6879 418.354 14.3081 418.544 14.1182C419.304 13.1686 420.633 12.7888 421.962 13.1686L422.342 13.3585C424.051 13.7383 424.811 15.2576 424.621 16.9669Z"/><path stroke="#03254D" stroke-linejoin="round" stroke-miterlimit="10" stroke-width="5" d="M397.654 29.6908L394.615 2.53333"/><path stroke="#03254D" stroke-linejoin="round" stroke-miterlimit="10" stroke-width="5" d="M403.541 1.77295L404.68 29.69"/><path stroke="#03254D" stroke-linejoin="round" stroke-miterlimit="10" stroke-width="5" d="M648.336 278.475L644.537 265.561C642.828 259.864 643.588 253.976 646.437 248.849C650.045 242.012 650.045 233.846 646.057 227.009L642.069 220.172C639.22 215.234 638.46 209.537 639.6 204.03L641.119 197.193L644.537 197.952C648.336 198.902 652.324 197.003 654.033 193.395L656.312 188.457C656.882 187.317 657.072 186.178 657.072 185.038V182.759C657.072 179.531 655.173 176.682 652.324 175.353C649.665 174.023 646.627 174.403 644.158 175.923L641.879 177.442L636.561 150.664L633.902 154.842C628.965 162.629 619.849 166.617 610.733 164.718"/><path fill="#65CE60" d="M212.057 615.598L116.47 625.858C84.7864 629.279 57.7844 650.52 47.1636 680.583L1.8001 809.292C-5.40045 829.994 9.90072 851.416 31.6824 851.416H229.518L231.318 814.513L53.6441 800.652L90.5469 703.624L81.5462 802.812L224.658 814.333L232.578 674.282L326.186 595.796C338.967 585.175 348.687 571.314 354.628 555.833L406.652 427.484L362.548 410.923L304.044 547.192L212.057 615.598Z"/><path fill="#0061D9" d="M150.31 637.559C143.83 638.459 137.709 633.779 136.809 627.298L131.589 587.875L155.351 584.815L160.571 624.238C161.651 630.719 156.971 636.839 150.31 637.559Z"/><path fill="#0061D9" d="M152.58 619.392C171.011 618.557 185.1 599.075 184.048 575.878C182.997 552.681 167.203 534.554 148.772 535.39C130.34 536.225 116.252 555.708 117.303 578.904C118.355 602.101 134.149 620.228 152.58 619.392Z"/><path fill="#B28B67" stroke="#000" stroke-linejoin="round" stroke-miterlimit="10" stroke-width="5" d="M152.997 599.417C154.779 597.133 155.237 593.969 153.976 591.395C153.655 590.651 153.147 590.12 152.574 589.836C150.643 588.793 148.932 587.414 147.97 585.183C146.333 581.588 145.849 575.147 148.323 571.734C150.391 568.869 154.556 567.882 156.754 570.837C158.687 573.327 158.737 577.022 159.381 579.957C163.377 576.688 167.638 573.885 171.635 570.616C176.434 566.775 179.501 561.152 181.807 555.459C186.254 544.684 187.686 530.603 178.623 521.732C173.357 516.639 165.252 514.862 158.257 517.195C153.806 518.764 146.287 524.507 148.765 530.299L148.942 530.61C149.672 532.252 151.514 533.14 153.023 532.361C154.807 531.523 155.487 529.471 154.482 527.886L150.879 521.924C146.867 515.063 138.722 515.38 132.522 519.109C125.364 523.504 123.478 529.573 122.807 537.415C122.754 538.583 122.976 539.695 123.319 540.839C124.049 542.481 126.233 543.066 127.476 541.822C128.687 540.699 128.452 538.664 127.128 537.783L125.263 536.494C123.277 535.173 120.884 534.4 118.382 534.519C114.017 534.797 110.461 537.394 108.714 541.002C104.869 549.045 103.473 558.139 105.008 566.965C106.098 573.57 108.016 580.001 110.825 586.014C115.006 595.154 120.883 603.305 128.19 609.996L130.078 611.685C134.331 610.853 150.434 602.675 152.997 599.417Z"/><path fill="#0061D9" d="M230.778 821.713L268.041 819.913C274.702 819.553 281.182 821.893 286.223 826.034L309.624 845.655C311.425 847.095 311.965 849.435 311.064 851.596C309.804 854.836 305.664 855.916 302.964 853.756L276.502 832.514L300.624 858.256C302.244 860.056 302.604 862.756 301.164 864.737C299.364 867.617 295.403 867.977 292.883 865.637L269.301 842.415L284.782 863.657C286.223 865.637 285.143 868.517 282.622 869.057C281.542 869.237 280.462 868.877 279.562 868.157L259.941 849.975L229.158 847.275L230.778 821.713Z"/><path stroke="#000" stroke-linejoin="round" stroke-miterlimit="10" stroke-width="5" d="M231.498 814.513L53.6455 800.652L90.5483 703.624"/><path fill="#0061D9" d="M373.889 362.318L376.049 385L370.649 414.342L396.571 424.063L423.933 390.04C426.093 387.16 424.833 383.02 421.413 382.12C420.153 381.76 418.713 381.94 417.453 382.66L404.312 395.441L410.252 368.979L413.852 353.138C414.392 351.157 412.772 349.177 410.792 348.997C409.172 348.817 407.732 349.897 407.372 351.517L402.871 367.899L404.672 352.598L404.852 351.337C405.032 349.177 403.591 347.197 401.431 347.017C399.631 346.837 397.831 348.097 397.291 349.897C397.291 350.077 397.111 350.257 397.111 350.617L396.931 352.237L395.131 371.139L393.511 353.678C393.511 353.138 393.331 352.598 392.971 352.057C392.431 351.157 391.35 350.617 390.27 350.617H390.09C389.01 350.617 388.11 350.977 387.39 351.877C386.85 352.418 386.67 353.138 386.67 353.858L384.87 377.079L381.09 361.058C380.91 360.698 380.73 360.158 380.55 359.978C379.83 358.898 378.57 358.358 377.129 358.538H376.589C374.969 358.898 373.709 360.518 373.889 362.318Z"/><path stroke="#000" stroke-linejoin="round" stroke-miterlimit="10" stroke-width="5" d="M405.572 350.797L401.971 374.919"/><path stroke="#000" stroke-linejoin="round" stroke-miterlimit="10" stroke-width="5" d="M393.151 352.777V379.959"/></svg>