<svg width="445" height="730" viewBox="0 0 445 730" fill="none" xmlns="http://www.w3.org/2000/svg">
<mask id="path-1-inside-1" fill="white">
<path fill-rule="evenodd" clip-rule="evenodd" d="M179.361 115.949C169.813 109.113 162.106 99.6132 159.813 87.1854C153.207 51.3773 202.24 45.8833 215.925 61.0473C229.61 76.2113 240.016 121.507 228.996 128.002C224.601 130.592 213.759 130.319 201.892 126.785L220.376 172.2L182.465 182.854L179.361 115.949Z"/>
</mask>
<path fill-rule="evenodd" clip-rule="evenodd" d="M179.361 115.949C169.813 109.113 162.106 99.6132 159.813 87.1854C153.207 51.3773 202.24 45.8833 215.925 61.0473C229.61 76.2113 240.016 121.507 228.996 128.002C224.601 130.592 213.759 130.319 201.892 126.785L220.376 172.2L182.465 182.854L179.361 115.949Z" fill="#E87613" stroke="black" stroke-width="10" mask="url(#path-1-inside-1)"/>
<mask id="path-2-inside-2" fill="white">
<path fill-rule="evenodd" clip-rule="evenodd" d="M196.015 45.9382C190.415 45.7519 182.753 47.3084 179.686 48.5741C180.34 43.5864 179.779 38.3923 177.954 33.6939C176.182 29.1286 173.123 25.6767 170.168 21.9893C168.806 20.2896 167.331 18.633 165.489 17.5579C163.612 16.4626 161.47 15.9933 159.371 16.0723C157.222 16.1531 155.116 16.7885 153.202 17.8011C152.355 18.2491 151.659 18.9014 150.84 19.3856C150.002 19.8814 149.415 19.4182 148.611 19.013C146.673 18.0367 144.184 17.9853 142.127 18.2947C139.819 18.642 137.588 19.6447 135.651 21.0082C133.765 22.3355 132.08 24.104 131.028 26.2856C130.56 27.2568 130.182 28.3189 130.039 29.4142C129.98 29.8636 130.015 30.1104 129.665 30.3674C129.341 30.6052 128.923 30.7271 128.586 30.9615C125.329 33.2275 123.003 36.9624 122.28 41.1218C121.858 43.5484 122.366 47.4692 123.578 51.6833C124.789 55.8974 131.313 65.9483 135.799 69.0226C139.803 71.7666 144.941 72.876 149.579 72.6903C147.558 76.9533 146.727 81.8043 146.418 86.5871C146.083 91.7825 146.386 96.9976 147.319 102.136C148.205 107.018 149.467 112.089 151.744 116.471C153.873 120.569 156.951 123.556 161.14 124.823C163.058 125.403 165.036 125.689 167.006 125.903C168.948 126.115 170.89 126.306 172.837 126.184C176.52 125.953 180.511 124.693 182.463 121.048C183.166 119.734 183.898 118.125 184.28 116.654C184.418 116.125 184.495 115.783 184.071 115.422C183.564 114.99 182.861 114.748 182.278 114.463C178.956 112.835 176.463 110.117 175.071 106.445C173.659 102.72 173.385 97.4756 176.553 94.7861C180.464 91.466 185.962 92.4701 190.476 93.578C190.581 86.9525 192.609 80.4434 197.288 76.1029C202.464 71.301 209.225 69.0091 214.68 64.6042C216.101 63.4564 217.528 62.2059 218.343 60.4521C218.683 59.7192 219.063 58.7856 219.059 57.944C219.053 56.8384 218.191 56.1524 217.49 55.4862C213.774 51.9538 201.615 46.1244 196.015 45.9382Z"/>
</mask>
<path fill-rule="evenodd" clip-rule="evenodd" d="M196.015 45.9382C190.415 45.7519 182.753 47.3084 179.686 48.5741C180.34 43.5864 179.779 38.3923 177.954 33.6939C176.182 29.1286 173.123 25.6767 170.168 21.9893C168.806 20.2896 167.331 18.633 165.489 17.5579C163.612 16.4626 161.47 15.9933 159.371 16.0723C157.222 16.1531 155.116 16.7885 153.202 17.8011C152.355 18.2491 151.659 18.9014 150.84 19.3856C150.002 19.8814 149.415 19.4182 148.611 19.013C146.673 18.0367 144.184 17.9853 142.127 18.2947C139.819 18.642 137.588 19.6447 135.651 21.0082C133.765 22.3355 132.08 24.104 131.028 26.2856C130.56 27.2568 130.182 28.3189 130.039 29.4142C129.98 29.8636 130.015 30.1104 129.665 30.3674C129.341 30.6052 128.923 30.7271 128.586 30.9615C125.329 33.2275 123.003 36.9624 122.28 41.1218C121.858 43.5484 122.366 47.4692 123.578 51.6833C124.789 55.8974 131.313 65.9483 135.799 69.0226C139.803 71.7666 144.941 72.876 149.579 72.6903C147.558 76.9533 146.727 81.8043 146.418 86.5871C146.083 91.7825 146.386 96.9976 147.319 102.136C148.205 107.018 149.467 112.089 151.744 116.471C153.873 120.569 156.951 123.556 161.14 124.823C163.058 125.403 165.036 125.689 167.006 125.903C168.948 126.115 170.89 126.306 172.837 126.184C176.52 125.953 180.511 124.693 182.463 121.048C183.166 119.734 183.898 118.125 184.28 116.654C184.418 116.125 184.495 115.783 184.071 115.422C183.564 114.99 182.861 114.748 182.278 114.463C178.956 112.835 176.463 110.117 175.071 106.445C173.659 102.72 173.385 97.4756 176.553 94.7861C180.464 91.466 185.962 92.4701 190.476 93.578C190.581 86.9525 192.609 80.4434 197.288 76.1029C202.464 71.301 209.225 69.0091 214.68 64.6042C216.101 63.4564 217.528 62.2059 218.343 60.4521C218.683 59.7192 219.063 58.7856 219.059 57.944C219.053 56.8384 218.191 56.1524 217.49 55.4862C213.774 51.9538 201.615 46.1244 196.015 45.9382Z" fill="#FFADB6" stroke="black" stroke-width="10" mask="url(#path-2-inside-2)"/>
<path fill-rule="evenodd" clip-rule="evenodd" d="M191.111 321.311L250.401 538.688L293.66 698.906H325.211L279.242 321.311H191.111Z" fill="#191847"/>
<path fill-rule="evenodd" clip-rule="evenodd" d="M175.255 321.311C173.884 433.349 169.208 494.458 167.768 504.637C166.328 514.816 144.556 579.573 102.452 698.906H135.137C188.738 584.426 218.66 519.67 224.902 504.637C231.144 489.605 250.407 428.496 279.421 321.311H175.255Z" fill="#2F3676"/>
<path fill-rule="evenodd" clip-rule="evenodd" d="M99.5308 729.925L101.166 693.906H135.509C151.793 705.912 173.053 715.632 199.288 723.064V729.925H137.144L115.884 726.495V729.925H99.5308Z" fill="#191847"/>
<path fill-rule="evenodd" clip-rule="evenodd" d="M289.233 729.925L290.868 693.906H325.211C341.495 705.912 362.755 715.632 388.99 723.064V729.925H326.846L305.587 726.495V729.925H289.233Z" fill="#191847"/>
<path fill-rule="evenodd" clip-rule="evenodd" d="M324.412 276.028L380.26 310.052C394.725 312.459 406.973 316.089 417.002 320.943C419.444 322.817 422.568 326.814 413.246 327.095C403.924 327.375 394.13 328.108 393.182 331.542C392.235 334.975 398.225 338.293 396.089 343.021C394.665 346.173 385.799 339.645 369.492 323.439L315.9 306.885L324.412 276.028ZM101.138 298.127L130.39 297.175C111.427 372.17 101.176 411.874 99.6376 416.284C96.1756 426.208 104.664 440.808 108.347 448.687C97.372 454.309 97.9301 434.984 84.0937 442.337C71.4645 449.049 62.0714 460.706 46.9333 451.709C45.0722 450.603 42.9304 446.257 47.6438 442.623C59.3867 433.567 76.2221 417.857 78.4014 412.812C81.3733 405.931 88.9522 367.703 101.138 298.127Z" fill="#E87613"/>
<path fill-rule="evenodd" clip-rule="evenodd" d="M199.958 154.717L216.608 145.348C251.094 203.424 297.02 257.292 365.354 297.33L355.052 326.664C297.118 304.094 243.198 288.21 214.885 243.502C205.382 228.497 202.674 174.257 199.958 154.717Z" fill="#C5CFD6"/>
<mask id="path-9-inside-3" fill="white">
<path fill-rule="evenodd" clip-rule="evenodd" d="M168.827 341.872C220.401 338.111 260.254 330.741 288.386 319.761C291.871 318.401 291.381 312.002 288.992 308.039C251.796 246.329 224.199 191.584 216.431 145.38C212.08 148.774 203.79 150.696 191.561 151.144C167.494 204.69 161.937 262.048 168.827 341.872Z"/>
</mask>
<path fill-rule="evenodd" clip-rule="evenodd" d="M168.827 341.872C220.401 338.111 260.254 330.741 288.386 319.761C291.871 318.401 291.381 312.002 288.992 308.039C251.796 246.329 224.199 191.584 216.431 145.38C212.08 148.774 203.79 150.696 191.561 151.144C167.494 204.69 161.937 262.048 168.827 341.872Z" fill="#323337" stroke="black" stroke-width="10" mask="url(#path-9-inside-3)"/>
<path fill-rule="evenodd" clip-rule="evenodd" d="M182.917 148.627L196.283 146.156C202.606 164.682 255.91 421.541 300.438 500.555L136.479 530.877C127.001 452.703 139.386 354.4 154.691 271.226C133.607 299.858 118.549 344.551 109.517 405.305L77.422 402.757C82.9923 295.842 117.251 211.68 180.199 150.272C180.291 149.873 180.382 149.475 180.472 149.08L181.655 148.861C182.041 148.489 182.429 148.117 182.817 147.747L182.917 148.627Z" fill="#DDE3E9"/>
</svg>
