<svg width="614" height="530" viewBox="0 0 614 530" fill="none" xmlns="http://www.w3.org/2000/svg">
<path d="M372.9 288.699L428.036 242.592L478.973 234.023C482.599 233.508 486.033 235.565 486.604 238.821C487.368 242.078 484.697 245.334 481.072 245.849L463.712 248.078L491.947 254.076C495.954 254.933 497.861 259.218 495.572 262.304C494.237 264.018 491.757 265.046 489.466 264.531L460.85 259.904L483.744 265.731C486.986 266.589 488.131 270.017 486.033 272.417C484.887 273.787 482.981 274.302 481.264 273.788L461.421 268.987L453.791 275.844C445.206 283.386 434.14 288.184 422.12 289.555L410.292 306.525L372.9 288.699Z" fill="#F66A09"/>
<path d="M480.427 245.234L446.377 250.073" stroke="black" stroke-width="2" stroke-miterlimit="10" stroke-linejoin="round"/>
<path d="M485.803 262.976L460.292 259.75L446.377 262.976" stroke="black" stroke-width="2" stroke-miterlimit="10" stroke-linejoin="round"/>
<path d="M324.289 321.252L380.612 266.178L433.62 301.362L367.15 375.235L324.289 321.252Z" fill="white" stroke="#03254D" stroke-width="5"/>
<path d="M243.868 196.793V254.912H283.294V188.783L243.868 196.793Z" fill="#F66A09"/>
<rect width="52.2315" height="100.864" rx="7" transform="matrix(0.996353 -0.0663102 -0.269873 0.968431 455.18 208.448)" fill="black"/>
<rect width="47.4492" height="96.4154" rx="5" transform="matrix(0.99637 -0.0663734 -0.269616 0.968417 456.95 210.445)" fill="#EBEBEB"/>
<path d="M466.731 209.766L492.987 208.017C492.452 209.938 490.417 211.602 488.44 211.734L469.341 213.006C467.365 213.138 466.196 211.687 466.731 209.766Z" fill="black"/>
<path d="M455.982 231.258L457.895 224.669L456.804 224.741L454.153 226.315L453.836 227.407L456.376 225.908L456.462 225.902L454.885 231.33L452.67 231.476L452.402 232.398L457.828 232.04L458.095 231.119L455.982 231.258ZM462.756 230.812L464.669 224.223L463.578 224.295L460.927 225.868L460.61 226.961L463.15 225.461L463.235 225.456L461.659 230.884L459.444 231.03L459.176 231.951L464.602 231.594L464.869 230.673L462.756 230.812ZM473.264 225.459L472.226 225.527L470.258 229.97L470.135 229.979L470.559 225.647L469.606 225.71L467.481 230.153L467.358 230.162L467.945 225.809L466.907 225.877L466.49 231.469L467.48 231.404L469.646 227.091L469.705 227.087L469.396 231.278L470.386 231.213L473.264 225.459ZM474.599 227.729C474.881 226.756 475.628 226.099 476.527 226.04C477.426 225.981 477.815 226.558 477.531 227.536L477.284 228.384C477.002 229.358 476.256 230.009 475.357 230.068C474.458 230.128 474.07 229.551 474.352 228.578L474.599 227.729ZM476.842 229.909L476.582 230.805L477.657 230.734L479.947 222.849L478.845 222.921L477.941 226.034L477.839 226.04C477.788 225.421 477.277 225.102 476.437 225.158C475.094 225.246 473.967 226.234 473.537 227.718L473.237 228.748C472.807 230.231 473.392 231.107 474.735 231.018C475.575 230.963 476.276 230.575 476.74 229.916L476.842 229.909ZM481.311 230.585C482.135 230.531 482.858 230.156 483.305 229.555L483.407 229.548L483.167 230.376L484.189 230.308L485.315 226.431C485.661 225.239 485.058 224.605 483.65 224.698C482.398 224.78 481.299 225.476 480.92 226.419L481.969 226.35C482.238 225.894 482.757 225.604 483.378 225.563C484.127 225.514 484.439 225.851 484.25 226.501L484.105 227.001L482.552 227.18C481.17 227.347 480.249 227.99 479.955 229C479.658 230.025 480.198 230.658 481.311 230.585ZM481.895 229.694C481.21 229.739 480.88 229.429 481.039 228.882C481.199 228.331 481.697 227.992 482.485 227.899L483.89 227.74L483.716 228.338C483.506 229.062 482.73 229.639 481.895 229.694ZM492.218 227.38C492.617 226.006 491.901 225.058 490.526 225.148C490.039 225.18 489.442 225.429 489.111 225.737L489.035 225.711C489.11 225.614 489.113 225.604 489.442 225.266L492.289 222.403L491.021 222.487C490.883 222.618 488.827 224.709 488.651 224.899C487.598 225.995 487.052 226.827 486.794 227.717C486.348 229.252 487.162 230.261 488.751 230.156C490.319 230.053 491.783 228.879 492.218 227.38ZM489.018 229.219C488.093 229.28 487.593 228.634 487.859 227.718C488.126 226.797 489.028 226.059 489.954 225.998C490.879 225.937 491.379 226.583 491.112 227.504C490.846 228.42 489.944 229.158 489.018 229.219Z" fill="black"/>
<path d="M450.565 247.973C452.18 247.866 453.569 246.754 454.018 245.208C454.446 243.735 453.748 242.775 452.32 242.87C451.629 242.915 450.998 243.191 450.503 243.668L450.412 243.674L451.291 241.334L454.774 241.105L455.047 240.163L450.681 240.45L449.062 244.743L450.122 244.673C450.564 244.144 451.177 243.823 451.83 243.78C452.771 243.718 453.216 244.337 452.935 245.305C452.654 246.273 451.835 246.96 450.888 247.022C450.037 247.078 449.542 246.616 449.664 245.888L448.594 245.958C448.28 247.255 449.077 248.071 450.565 247.973ZM458.533 246.396L460.446 239.807L459.355 239.879L456.704 241.452L456.387 242.545L458.927 241.046L459.012 241.04L457.436 246.468L455.221 246.614L454.953 247.536L460.379 247.178L460.646 246.257L458.533 246.396ZM463.988 239.574L461.807 247.084L462.925 247.01L463.684 244.398L465.177 244.299C466.729 244.197 468.025 243.167 468.456 241.684C468.888 240.195 468.167 239.298 466.631 239.4L463.988 239.574ZM464.837 240.426L466.089 240.344C467.176 240.272 467.61 240.765 467.321 241.759C467.034 242.747 466.29 243.322 465.204 243.394L463.952 243.476L464.837 240.426ZM470.957 246.588C472.53 246.485 473.815 245.44 474.261 243.905L474.51 243.046C474.957 241.506 474.239 240.598 472.666 240.702C471.093 240.806 469.81 241.845 469.363 243.385L469.113 244.244C468.667 245.779 469.384 246.692 470.957 246.588ZM472.409 241.587C473.34 241.525 473.735 242.138 473.429 243.189L473.222 243.902C472.917 244.953 472.145 245.642 471.214 245.704C470.283 245.765 469.889 245.153 470.194 244.101L470.401 243.388C470.706 242.337 471.478 241.648 472.409 241.587ZM481.846 241.603C482.138 240.599 481.882 240.09 481.095 240.141C480.517 240.18 479.966 240.558 479.664 241.129L479.546 241.137C479.591 240.567 479.308 240.259 478.762 240.295C478.206 240.332 477.694 240.703 477.384 241.3L477.266 241.308L477.505 240.485L476.558 240.548L474.911 246.221L475.852 246.159L476.969 242.312C477.151 241.688 477.557 241.283 478.028 241.252C478.472 241.223 478.619 241.53 478.442 242.139L477.302 246.063L478.239 246.001L479.356 242.155C479.537 241.531 479.938 241.126 480.398 241.096C480.837 241.067 480.988 241.379 480.811 241.988L479.673 245.907L480.614 245.845L481.846 241.603ZM487.447 245.395L486.046 242.158L488.939 239.732L487.666 239.816L484.562 242.445L484.481 242.45L485.842 237.766L484.771 237.837L482.482 245.722L483.552 245.651L484.137 243.637L485.071 242.897L486.184 245.478L487.447 245.395Z" fill="black"/>
<path d="M447.729 259.05C446.878 259.106 446.458 258.654 446.672 257.92C446.883 257.191 447.587 256.665 448.438 256.609C449.283 256.553 449.708 257.005 449.497 257.734C449.284 258.467 448.574 258.994 447.729 259.05ZM446.675 262.677C445.68 262.743 445.159 262.226 445.396 261.409C445.633 260.592 446.481 259.984 447.476 259.919C448.472 259.853 448.993 260.37 448.756 261.187C448.519 262.005 447.671 262.612 446.675 262.677ZM446.417 263.567C448.081 263.458 449.49 262.492 449.865 261.201C450.137 260.264 449.715 259.531 448.814 259.397L448.838 259.314C449.703 259.047 450.38 258.38 450.615 257.568C450.957 256.392 450.161 255.627 448.695 255.724C447.229 255.821 445.949 256.722 445.607 257.898C445.373 258.705 445.683 259.317 446.415 259.473L446.39 259.557C445.352 259.844 444.505 260.646 444.236 261.572C443.861 262.863 444.748 263.677 446.417 263.567ZM456.203 257.195L452.57 257.434L452.325 258.277L454.909 258.107L453.552 262.781C453.336 263.525 452.948 263.796 451.968 263.86C451.674 263.879 450.8 263.927 450.576 263.921L450.311 264.832C450.619 264.837 451.403 264.796 451.74 264.774C453.393 264.665 454.196 264.106 454.58 262.784L456.203 257.195ZM455.989 255.907C456.465 255.876 456.907 255.53 457.037 255.082C457.168 254.63 456.914 254.33 456.438 254.361C455.956 254.393 455.515 254.739 455.383 255.191C455.253 255.639 455.507 255.939 455.989 255.907ZM460.235 261.672C459.186 261.741 458.778 261.104 459.118 259.933L460.519 255.108L459.406 255.182L457.986 260.074C457.481 261.812 458.213 262.78 459.946 262.666C461.68 262.551 463.013 261.448 463.518 259.709L464.939 254.817L463.826 254.89L462.425 259.715C462.085 260.886 461.284 261.603 460.235 261.672ZM468.895 261.923L469.168 260.981L467.595 261.085L469.229 255.458L470.802 255.355L471.076 254.413L466.817 254.693L466.543 255.635L468.116 255.532L466.482 261.158L464.909 261.262L464.636 262.204L468.895 261.923ZM476.477 260.464L472.898 260.699L474.794 254.168L473.692 254.24L471.511 261.751L476.193 261.442L476.477 260.464ZM481.126 261.117L482.159 261.049L482.606 259.508L483.74 259.434L484.005 258.523L482.865 258.598L483.468 256.521L482.468 256.587L481.865 258.664L479.521 258.818L479.542 258.745L483.484 253.595L482.355 253.67L478.331 258.943L478.08 259.807L481.574 259.577L481.126 261.117Z" fill="black"/>
<path d="M557.466 168.068C547.598 155.643 533.767 147.889 520.569 146.123L515.707 157.664C526.7 158.064 538.744 164.19 547.082 174.689C554.803 184.409 557.528 195.594 555.367 204.691L568.821 204.862C570.635 193.438 566.882 179.923 557.466 168.068Z" fill="#F66A09"/>
<path d="M532.917 182.286C527.299 175.214 519.331 170.568 510.756 168.634L506.642 178.389C512.944 179.948 518.771 183.435 522.921 188.659C526.816 193.562 528.615 199.213 528.473 204.723L540.118 204.868C540.704 197.172 538.383 189.166 532.917 182.286Z" fill="#F66A09"/>
<path d="M580.948 152.789C567.993 136.471 549.546 126.157 530.715 122.96L526.116 133.886C541.349 135.408 557.946 144.581 569.811 159.524C581.584 174.353 585.847 191.269 582.605 204.622L595.989 204.795C598.677 187.877 593.826 169.008 580.948 152.789Z" fill="#F66A09"/>
<path d="M503.156 345.642C508.942 329.097 510.392 311.593 507.654 294.288L506.036 284.404L481.544 258.805C479.419 256.485 475.55 256.322 473.262 258.526C471.478 260.353 471.269 263.044 472.991 265.067L491.748 287.322L480.219 277.302L463.436 272.084C460.389 271.18 457.091 272.638 456.157 275.393C455.042 278.163 456.91 281.342 459.956 282.245L476.336 287.165L486.457 297.642L478.866 289.784L460.27 289.069C457.168 289.172 454.924 291.708 455.823 294.47C456.234 296.272 458.054 297.617 459.928 297.954L471.095 299.318C470.041 306.928 471.366 314.5 474.642 321.564L479.179 331.361L503.156 345.642Z" fill="#F66A09"/>
<path d="M493.34 287.598L472.958 263.818" stroke="black" stroke-width="2" stroke-miterlimit="10" stroke-linejoin="round"/>
<path d="M486.083 301.025L476.859 287.037L461.017 282.372" stroke="black" stroke-width="2" stroke-miterlimit="10" stroke-linejoin="round"/>
<path d="M340.63 298.469L358.534 280.246L375.552 264.279C375.692 257.283 373.826 250.986 368.665 246.41C363.33 241.503 359.551 231.242 357.228 220.624C354.402 208.016 349.355 197.776 342.778 191.557L339.402 188.283C332.288 181.74 332.317 169.673 329.706 155.397L328.455 145.538L308.014 153.203L266.338 241.904L307.538 294.077L340.63 298.469Z" fill="#FFADB6"/>
<path d="M254.382 224.288C280.56 230.88 310.179 211.752 320.54 181.564C330.901 151.377 318.078 121.561 291.9 114.969C265.723 108.377 236.102 127.506 225.742 157.693C215.381 187.881 228.204 217.696 254.382 224.288Z" fill="#F66A09"/>
<path d="M326.885 145.124L323.872 145.665C309.895 148.602 295.846 141.689 291.451 129.693L286.268 156.377C285.667 159.096 284.257 161.335 281.77 162.853C274.738 159.766 265.952 162.373 262.546 168.832C261.975 170.072 261.404 171.313 261.374 172.791C261.045 175.506 261.536 178.207 262.851 180.648L265.485 185.285C268.645 190.898 276.244 192.991 282.577 190.178L283.679 189.668L285.682 198.501C287.447 205.615 285.932 213.028 281.707 219.501L275.793 228.463C270.158 237.175 269.664 248.02 274.67 256.805C278.629 263.39 279.287 271.26 276.957 278.441L271.156 295.283L106.766 247.229L114.343 237.008C118.275 231.526 123.83 226.755 130.174 223.45L132.104 222.434C144.241 216.078 152.924 205.1 155.092 192.504C156.925 182.869 162.293 173.915 170.613 167.376L181.981 158.57C188.082 153.791 192.57 147.807 195.435 141.111L201.747 125.984C204.906 118.298 210.506 111.31 217.972 106.509C224.882 102.209 232.049 98.6445 240.011 96.2981C256.475 91.8426 274.724 93.5152 289.304 101.159C311.463 111.88 320.488 124.293 326.885 145.124Z" fill="#FFADB6"/>
<path d="M272.409 297.51L278.06 280.456C280.6 272.931 279.687 265.215 275.83 258.547C270.953 249.652 271.162 238.924 276.923 229.848L282.683 220.772C286.799 214.218 288.01 206.716 286.555 199.508L284.603 190.563L279.797 191.643C274.454 192.98 268.918 190.581 266.617 185.881L263.552 179.449C262.784 177.966 262.547 176.474 262.576 174.977L262.635 171.983C262.718 167.742 265.451 163.955 269.474 162.141C273.231 160.331 277.477 160.758 280.895 162.695L284.047 164.636L292.181 129.333L295.797 134.759C302.512 144.869 315.175 149.891 327.989 147.18" stroke="#03254D" stroke-width="5" stroke-miterlimit="10" stroke-linejoin="round"/>
<path d="M509.372 338.862L436.398 488.6C415.268 502.482 385.681 497.592 371.456 478.067C371.455 478.065 371.454 478.064 371.453 478.062L335.767 428.67L331.241 422.405V430.134V526.605H146.156L146.764 515.924C146.764 515.922 146.765 515.921 146.765 515.919C148.365 489.497 158.894 437.101 170.34 387.945C181.789 338.781 194.04 293.341 198.991 280.805C199.306 280.018 199.618 279.234 199.93 278.452C207.214 260.173 213.863 243.487 234.384 235.724L234.395 235.72L234.406 235.716C249.168 229.973 266.722 230.297 281.324 236.375C285.683 238.212 290.904 242.034 296.769 247.538C302.6 253.011 308.921 260.005 315.484 268.005C328.61 284.004 342.585 303.876 355.401 323.297C368.212 342.709 379.836 361.626 388.259 375.693C392.47 382.725 395.88 388.543 398.236 392.601C399.414 394.63 400.328 396.219 400.948 397.3C401.154 397.66 401.328 397.964 401.467 398.209C401.537 398.331 401.599 398.439 401.652 398.532L401.831 398.846L401.875 398.925L401.886 398.945L401.889 398.95C401.89 398.951 401.89 398.951 404.065 397.719L401.89 398.951L403.7 402.146L406.009 399.291L464.437 327.047L509.372 338.862Z" fill="white" stroke="#03254D" stroke-width="5"/>
</svg>
