<svg width="773" height="826" viewBox="0 0 773 826" fill="none" xmlns="http://www.w3.org/2000/svg">
<path d="M236.452 584.981L286.074 538.874L331.918 530.305C335.181 529.79 338.271 531.847 338.786 535.103C339.473 538.36 337.069 541.616 333.807 542.131L318.182 544.36L343.594 550.358C347.2 551.214 348.916 555.5 346.857 558.585C345.655 560.3 343.423 561.327 341.361 560.813L315.607 556.185L336.211 562.013C339.129 562.871 340.16 566.298 338.271 568.698C337.24 570.069 335.524 570.584 333.979 570.069L316.121 565.269L309.253 572.126C301.527 579.668 291.568 584.466 280.75 585.837L270.105 602.806L236.452 584.981Z" fill="#0061D9"/>
<path d="M333.226 541.516L302.581 546.355" stroke="black" stroke-width="2" stroke-miterlimit="10" stroke-linejoin="round"/>
<path d="M338.065 559.258L315.105 556.032L302.581 559.258" stroke="black" stroke-width="2" stroke-miterlimit="10" stroke-linejoin="round"/>
<path d="M243.121 559.258L294.516 597.163L231.169 675.387L189.677 617.322L243.121 559.258Z" fill="#65CE60"/>
<path d="M120.323 493.074V551.194H155.807V485.064L120.323 493.074Z" fill="#0061D9"/>
<rect x="-1.10773" y="-1.4478" width="51.5479" height="103" rx="6.5" transform="matrix(1 0 -0.261515 0.965199 308.564 505.024)" fill="#0061D9" stroke="black" stroke-width="3"/>
<rect width="44.1523" height="95.6044" rx="5" transform="matrix(1 0 -0.261515 0.965199 310.565 507.196)" fill="#EBEBEB"/>
<mask id="mask0" mask-type="alpha" maskUnits="userSpaceOnUse" x="290" y="507" width="60" height="93">
<rect width="44.1523" height="95.6044" rx="22.0761" transform="matrix(1 0 -0.261515 0.965199 310.565 507.196)" fill="white"/>
</mask>
<g mask="url(#mask0)">
<path d="M325.116 518.44L337.83 541.483L310.97 539.348L325.116 518.44Z" fill="#DD3D12"/>
<path d="M324.701 533.109C325.034 533.135 325.224 532.938 325.246 532.597L325.448 528.391C325.448 528.37 325.449 528.348 325.45 528.332C325.461 527.968 325.227 527.715 324.883 527.688C324.534 527.66 324.285 527.874 324.273 528.238C324.272 528.254 324.271 528.276 324.271 528.298L324.198 532.514C324.198 532.857 324.373 533.083 324.701 533.109ZM324.617 535.703C325.02 535.735 325.336 535.455 325.349 535.059C325.362 534.663 325.065 534.335 324.662 534.303C324.27 534.272 323.949 534.551 323.936 534.947C323.923 535.343 324.225 535.672 324.617 535.703Z" fill="white"/>
</g>
<path d="M320.79 507.12H344.573C344.075 508.961 342.124 510.454 340.217 510.454H323.341C321.433 510.454 320.291 508.961 320.79 507.12Z" fill="#0061D9"/>
<path d="M353.504 641.559C358.986 625.026 360.51 607.578 358.197 590.366L356.828 580.536L334.698 555.268C332.779 552.977 329.239 552.85 327.121 555.067C325.468 556.903 325.246 559.585 326.8 561.585L343.717 583.577L333.278 573.703L317.975 568.663C315.197 567.791 312.162 569.274 311.276 572.026C310.224 574.796 311.898 577.944 314.676 578.816L329.613 583.564L338.759 593.905L331.899 586.149L314.887 585.61C312.046 585.742 309.964 588.288 310.755 591.031C311.112 592.822 312.762 594.144 314.474 594.463L324.68 595.718C323.629 603.308 324.757 610.837 327.677 617.843L331.719 627.558L353.504 641.559Z" fill="#0061D9"/>
<path d="M344.848 583.726L326.504 560.252" stroke="black" stroke-width="2" stroke-miterlimit="10" stroke-linejoin="round"/>
<path d="M338.316 597.114L330.094 583.326L315.757 578.845" stroke="black" stroke-width="2" stroke-miterlimit="10" stroke-linejoin="round"/>
<path d="M30 825.387H201.208V726.416L233.331 775.816C247 796.669 275.365 801.627 295.355 786.585L362.5 633.5L318 620.5L264.5 694C264.5 694 189.247 546.42 154.903 530.351C141.234 524.027 124.831 523.685 110.991 529.667C90.6576 538.214 84.6773 557.188 77.8426 576.162C68.7866 601.632 33.5882 758.722 30.6835 812.054L30 825.387Z" fill="#65CE60"/>
<path d="M130.691 520.182C154.507 527.193 180.966 508.579 189.79 478.605C198.614 448.632 186.461 418.65 162.645 411.639C138.83 404.627 112.37 423.243 103.547 453.215C94.7223 483.189 106.876 513.17 130.691 520.182Z" fill="#0061D9"/>
<path d="M139.972 494.949C143.24 492.825 145.208 488.999 144.732 485.172C144.65 484.086 144.236 483.188 143.631 482.575C141.632 480.402 140.059 477.898 139.812 474.638C139.304 469.348 141.51 460.94 146.154 457.682C150.039 454.943 155.771 455.511 157.273 460.234C158.642 464.249 157.086 468.972 156.62 472.988C163.136 470.58 169.785 468.88 176.302 466.472C184.091 463.687 190.456 457.877 195.883 451.643C206.262 439.883 214.253 422.596 206.608 407.338C202.139 398.552 192.607 392.741 182.684 392.645C176.334 392.691 164.251 396.704 164.867 405.159L164.956 405.631C165.166 408.041 167.12 409.978 169.381 409.647C172.019 409.363 173.783 407.05 173.198 404.593L171.226 395.43C169.127 384.943 158.625 381.777 149.104 383.806C138.072 386.262 133.013 393.157 128.724 402.84C128.145 404.303 127.94 405.815 127.876 407.421C128.086 409.829 130.607 411.53 132.734 410.492C134.767 409.595 135.359 406.903 134.061 405.202L132.253 402.745C130.305 400.194 127.599 398.162 124.363 397.218C118.689 395.658 113.026 397.405 109.223 401.231C100.808 409.778 95.0468 420.737 93.1335 432.639C91.6275 441.52 91.2496 450.541 92.1893 459.422C93.5048 472.883 97.411 485.827 103.777 497.542L105.439 500.518C111.214 501.322 135.284 497.972 139.972 494.949Z" fill="#B28B67" stroke="black" stroke-width="5" stroke-miterlimit="10" stroke-linejoin="round"/>
<path d="M149.355 646.354L233.226 775.387" stroke="black" stroke-width="5" stroke-miterlimit="10" stroke-linejoin="round"/>
<g filter="url(#filter0_ddi)">
<rect x="78" y="28" width="145.644" height="300" rx="25" fill="#0061D9"/>
</g>
<rect x="84.5934" y="34.5933" width="132.457" height="286.813" rx="20" fill="#EBEBEB"/>
<mask id="mask1" mask-type="alpha" maskUnits="userSpaceOnUse" x="84" y="34" width="134" height="288">
<rect x="84.5934" y="34.5933" width="132.457" height="286.813" rx="66.2284" fill="white"/>
</mask>
<g mask="url(#mask1)">
<path d="M118.949 138.897C128.861 138.897 136.897 130.862 136.897 120.949C136.897 111.036 128.861 103 118.949 103C109.036 103 101 111.036 101 120.949C101 130.862 109.036 138.897 118.949 138.897Z" stroke="black" stroke-width="15" stroke-linejoin="round"/>
<path d="M201 131.205H180.487M139.461 120.949H201H139.461Z" stroke="black" stroke-width="15" stroke-linejoin="round"/>
<path d="M118.949 213.897C128.861 213.897 136.897 205.862 136.897 195.949C136.897 186.036 128.861 178 118.949 178C109.036 178 101 186.036 101 195.949C101 205.862 109.036 213.897 118.949 213.897Z" stroke="#0061D9" stroke-width="15" stroke-linejoin="round"/>
<path d="M201 206.205H180.487M139.461 195.949H201H139.461Z" stroke="#0061D9" stroke-width="15" stroke-linejoin="round"/>
</g>
<path d="M115.206 34.3579H186.556C186.556 40.0802 181.917 44.719 176.195 44.719H125.567C119.844 44.719 115.206 40.0802 115.206 34.3579Z" fill="#0061D9"/>
<path d="M673.098 141.321L668.118 140.868C667.991 142.268 668.458 143.656 669.406 144.693C670.353 145.73 671.693 146.321 673.098 146.321V141.321ZM659.878 98.8925L663.719 95.6916L659.878 98.8925ZM557.447 130.807L556.84 135.77C558.183 135.935 559.535 135.548 560.588 134.698C561.64 133.848 562.303 132.607 562.426 131.26L557.447 130.807ZM545.881 225.431L545.275 230.394C545.476 230.419 545.679 230.431 545.881 230.431V225.431ZM610.015 278L614.616 279.959L610.015 278ZM412.5 225.431L416.093 221.954L412.5 225.431ZM406.5 130.807L409.257 134.979L406.5 130.807ZM466 130.807L461.727 133.404L466 130.807ZM673.098 230.431C685.578 230.431 697.546 225.474 706.371 216.649L699.3 209.578C692.351 216.527 682.925 220.431 673.098 220.431V230.431ZM706.371 216.649C715.195 207.825 720.153 195.856 720.153 183.376H710.153C710.153 193.204 706.249 202.629 699.3 209.578L706.371 216.649ZM720.153 183.376C720.153 170.896 715.195 158.928 706.371 150.103L699.3 157.174C706.249 164.123 710.153 173.549 710.153 183.376H720.153ZM706.371 150.103C697.546 141.279 685.578 136.321 673.098 136.321V146.321C682.925 146.321 692.351 150.225 699.3 157.174L706.371 150.103ZM678.077 141.774C678.827 133.526 677.945 125.212 675.482 117.305L665.934 120.279C668.007 126.932 668.749 133.929 668.118 140.868L678.077 141.774ZM675.482 117.305C673.018 109.398 669.021 102.054 663.719 95.6916L656.037 102.093C660.498 107.447 663.861 113.626 665.934 120.279L675.482 117.305ZM663.719 95.6916C653.012 82.8426 637.639 74.7734 620.982 73.2592L620.076 83.2181C634.092 84.4922 647.028 91.2819 656.037 102.093L663.719 95.6916ZM620.982 73.2592C604.325 71.7449 587.749 76.9096 574.9 87.6171L581.301 95.2993C592.113 86.2897 606.061 81.9439 620.076 83.2181L620.982 73.2592ZM574.9 87.6171C562.051 98.3246 553.981 113.698 552.467 130.355L562.426 131.26C563.7 117.244 570.49 104.309 581.301 95.2993L574.9 87.6171ZM558.053 125.844C551.188 125.005 544.225 125.527 537.562 127.378L540.24 137.013C545.638 135.513 551.279 135.091 556.84 135.77L558.053 125.844ZM537.562 127.378C530.899 129.23 524.665 132.377 519.218 136.637L525.379 144.514C529.792 141.062 534.842 138.514 540.24 137.013L537.562 127.378ZM519.218 136.637C513.77 140.898 509.215 146.191 505.813 152.212L514.52 157.131C517.276 152.253 520.966 147.966 525.379 144.514L519.218 136.637ZM505.813 152.212C502.411 158.233 500.228 164.865 499.389 171.73L509.315 172.943C509.995 167.382 511.763 162.009 514.52 157.131L505.813 152.212ZM499.389 171.73C498.55 178.595 499.071 185.558 500.923 192.221L510.558 189.544C509.058 184.145 508.635 178.505 509.315 172.943L499.389 171.73ZM500.923 192.221C502.775 198.885 505.921 205.118 510.182 210.565L518.059 204.404C514.607 199.991 512.058 194.942 510.558 189.544L500.923 192.221ZM510.182 210.565C514.443 216.013 519.735 220.568 525.756 223.97L530.676 215.264C525.798 212.508 521.511 208.818 518.059 204.404L510.182 210.565ZM525.756 223.97C531.778 227.372 538.41 229.555 545.275 230.394L546.488 220.468C540.927 219.788 535.554 218.02 530.676 215.264L525.756 223.97ZM545.881 230.431H546.933V220.431H545.881V230.431ZM605.015 172.862C605.015 174.309 605.266 176.612 605.585 179.217C605.917 181.926 606.38 185.385 606.882 189.284C607.893 197.137 609.097 207.047 609.899 217.611C610.701 228.187 611.093 239.326 610.501 249.633C609.906 260.011 608.332 269.19 605.415 276.041L614.616 279.959C618.191 271.56 619.863 261.052 620.485 250.206C621.111 239.291 620.691 227.67 619.87 216.855C619.049 206.026 617.818 195.91 616.8 188.007C616.288 184.026 615.838 180.674 615.511 178.001C615.171 175.224 615.015 173.575 615.015 172.862H605.015ZM272.5 160.5C272.5 161.592 272.114 162.325 272.047 162.455C271.931 162.678 271.845 162.779 271.884 162.729C271.956 162.635 272.177 162.379 272.63 161.936C273.512 161.073 274.864 159.893 276.61 158.46C280.076 155.615 284.747 152.055 289.479 148.544C294.198 145.043 298.923 141.631 302.472 139.091C304.246 137.822 305.723 136.773 306.757 136.041C307.273 135.675 307.679 135.389 307.954 135.194C308.092 135.097 308.198 135.023 308.268 134.973C308.304 134.948 308.33 134.929 308.348 134.917C308.357 134.911 308.364 134.906 308.368 134.903C308.37 134.902 308.372 134.901 308.373 134.9C308.373 134.899 308.374 134.899 308.374 134.899C308.374 134.899 308.374 134.899 305.5 130.807C302.626 126.716 302.626 126.716 302.625 126.716C302.625 126.717 302.624 126.717 302.624 126.717C302.623 126.718 302.621 126.72 302.618 126.721C302.613 126.725 302.606 126.73 302.597 126.736C302.578 126.75 302.55 126.769 302.514 126.795C302.44 126.846 302.332 126.922 302.192 127.021C301.911 127.22 301.5 127.51 300.978 127.88C299.933 128.619 298.442 129.679 296.653 130.959C293.077 133.518 288.302 136.966 283.521 140.513C278.753 144.05 273.924 147.726 270.265 150.73C268.449 152.221 266.831 153.619 265.635 154.79C265.049 155.363 264.454 155.989 263.97 156.616C263.73 156.926 263.431 157.347 263.171 157.847C262.96 158.254 262.5 159.221 262.5 160.5H272.5ZM262.5 160.5C262.5 161.652 262.864 162.552 263.081 163.016C263.326 163.539 263.616 163.986 263.86 164.327C264.348 165.009 264.951 165.681 265.546 166.294C266.756 167.54 268.387 169.001 270.209 170.542C273.881 173.647 278.721 177.402 283.491 180.997C288.277 184.603 293.056 188.094 296.634 190.68C298.424 191.974 299.916 193.043 300.962 193.79C301.485 194.163 301.896 194.456 302.177 194.656C302.318 194.756 302.426 194.832 302.499 194.884C302.536 194.91 302.564 194.93 302.583 194.943C302.592 194.95 302.6 194.955 302.604 194.959C302.607 194.96 302.609 194.962 302.61 194.963C302.611 194.963 302.611 194.964 302.612 194.964C302.612 194.964 302.612 194.964 305.5 190.882C308.388 186.801 308.388 186.801 308.387 186.8C308.387 186.8 308.387 186.8 308.386 186.8C308.385 186.799 308.384 186.798 308.382 186.796C308.377 186.793 308.371 186.789 308.362 186.782C308.344 186.77 308.318 186.751 308.283 186.726C308.212 186.676 308.107 186.602 307.969 186.504C307.694 186.308 307.289 186.02 306.773 185.651C305.74 184.914 304.264 183.856 302.491 182.575C298.944 180.011 294.223 176.563 289.509 173.01C284.779 169.447 280.119 165.826 276.666 162.906C274.926 161.434 273.588 160.221 272.72 159.327C272.276 158.87 272.063 158.606 271.994 158.509C271.959 158.461 272.036 158.558 272.137 158.774C272.21 158.931 272.5 159.567 272.5 160.5H262.5ZM605.415 276.041C604.464 278.276 602.263 280.463 598.097 282.259C593.927 284.058 588.222 285.261 581.15 285.731C567.028 286.669 548.479 284.622 528.368 279.802C488.053 270.137 442.937 249.696 416.093 221.954L408.907 228.908C437.569 258.529 484.717 279.621 526.037 289.526C546.744 294.49 566.356 296.736 581.813 295.709C589.53 295.196 596.468 293.852 602.057 291.442C607.649 289.031 612.321 285.349 614.616 279.959L605.415 276.041ZM416.093 221.954C401.961 207.35 392.422 190.42 390.377 174.835C388.385 159.645 393.418 145.445 409.257 134.979L403.743 126.636C384.559 139.313 377.997 157.341 380.462 176.135C382.876 194.534 393.848 213.345 408.907 228.908L416.093 221.954ZM409.257 134.979C418.481 128.884 429.536 124.334 439.396 123.541C449.093 122.76 456.969 125.572 461.727 133.404L470.273 128.211C462.966 116.184 450.784 112.591 438.594 113.573C426.567 114.541 413.905 119.921 403.743 126.636L409.257 134.979ZM461.727 133.404C465.708 139.956 465.316 143.986 463.656 146.771C461.672 150.098 456.946 153.349 448.81 156.045C432.748 161.367 407.513 163.225 380.445 163.182C353.556 163.139 325.481 161.232 304.092 159.328C293.406 158.377 284.407 157.429 278.084 156.719C274.923 156.364 272.431 156.069 270.733 155.863C269.884 155.76 269.233 155.679 268.796 155.624C268.577 155.597 268.412 155.576 268.302 155.562C268.247 155.555 268.206 155.55 268.179 155.546C268.166 155.544 268.156 155.543 268.15 155.542C268.146 155.542 268.144 155.542 268.143 155.541C268.141 155.541 268.141 155.541 267.5 160.5C266.859 165.459 266.86 165.459 266.863 165.459C266.865 165.459 266.868 165.46 266.872 165.46C266.88 165.461 266.891 165.463 266.906 165.465C266.936 165.469 266.98 165.474 267.038 165.482C267.154 165.496 267.326 165.518 267.551 165.546C268 165.603 268.665 165.685 269.528 165.79C271.254 166 273.775 166.298 276.969 166.657C283.354 167.374 292.43 168.33 303.205 169.289C324.737 171.205 353.132 173.138 380.43 173.182C407.55 173.225 434.221 171.414 451.956 165.537C460.718 162.634 468.363 158.402 472.245 151.892C476.45 144.84 475.417 136.677 470.273 128.211L461.727 133.404Z" fill="#65CE60"/>
<path d="M120.476 251.816L120.159 246.754H120.344L122.339 253.021H124.026L126.021 246.754H126.206L125.89 251.816V256H127.981V243.317H125.397L123.262 250.568H123.112L120.968 243.317H118.384V256H120.476V251.816ZM133 256.158C134.266 256.158 135.285 255.622 135.76 254.708H135.971V256H138.256V249.426C138.256 247.308 136.858 246.121 134.371 246.121C132.068 246.121 130.478 247.255 130.302 249.013H132.64C132.842 248.406 133.466 248.037 134.301 248.037C135.294 248.037 135.874 248.529 135.874 249.373V250.146L133.606 250.287C131.216 250.454 129.941 251.482 129.941 253.231C129.941 254.98 131.172 256.158 133 256.158ZM133.826 254.233C132.895 254.233 132.314 253.776 132.314 253.056C132.314 252.309 132.886 251.878 134.011 251.808L135.874 251.693V252.396C135.874 253.478 135.021 254.233 133.826 254.233ZM143.433 243.537V246.402H140.91V248.327H143.433V252.933C143.433 255.183 144.443 256.018 147.08 256.018C147.273 256.018 149.189 256 149.286 255.982V254.084C149.181 254.093 147.502 254.102 147.273 254.102C146.351 254.102 145.832 253.688 145.832 252.959V248.327H149.4V246.402H145.788V243.537H143.433ZM160.949 249.689C160.721 247.316 159.262 246.068 156.757 246.068C153.9 246.068 152.318 247.686 152.318 250.63V251.649C152.318 254.594 153.9 256.211 156.757 256.211C159.262 256.211 160.738 254.98 160.949 252.669H158.594C158.427 253.706 157.794 254.207 156.739 254.207C155.447 254.207 154.735 253.24 154.735 251.465V250.814C154.735 249.039 155.447 248.072 156.739 248.072C157.785 248.072 158.436 248.6 158.594 249.689H160.949ZM163.34 256H165.739V250.428C165.739 249.092 166.557 248.23 167.822 248.23C169.044 248.23 169.642 248.925 169.642 250.34V256H172.05V249.751C172.05 247.413 170.89 246.13 168.789 246.13C167.374 246.13 166.293 246.798 165.827 247.958H165.687V242.614H163.34V256ZM177.429 243.317L177.648 252.054H179.978L180.215 243.317H177.429ZM178.817 256.272C179.705 256.272 180.399 255.604 180.399 254.743C180.399 253.882 179.705 253.214 178.817 253.214C177.93 253.214 177.235 253.882 177.235 254.743C177.235 255.604 177.93 256.272 178.817 256.272Z" fill="black"/>
<g filter="url(#filter1_d)">
<rect x="419" y="527" width="344" height="70" rx="8" fill="#F7F7F7"/>
</g>
<path d="M718.08 557.793H714.119V550.545H712.807V559H718.08V557.793ZM721.924 553.568C722.855 553.568 723.465 554.219 723.494 555.221H720.271C720.342 554.225 720.992 553.568 721.924 553.568ZM723.488 557.277C723.254 557.775 722.732 558.051 721.971 558.051C720.963 558.051 720.312 557.342 720.271 556.223V556.152H724.777V555.713C724.777 553.709 723.705 552.496 721.93 552.496C720.131 552.496 718.988 553.791 718.988 555.83C718.988 557.869 720.107 559.123 721.936 559.123C723.395 559.123 724.426 558.414 724.701 557.277H723.488ZM728.375 558.045C727.689 558.045 727.191 557.711 727.191 557.137C727.191 556.574 727.59 556.275 728.469 556.217L730.027 556.117V556.65C730.027 557.441 729.324 558.045 728.375 558.045ZM728.053 559.105C728.891 559.105 729.588 558.742 729.969 558.104H730.068V559H731.281V554.641C731.281 553.293 730.379 552.496 728.779 552.496C727.332 552.496 726.301 553.199 726.172 554.295H727.391C727.531 553.844 728.018 553.586 728.721 553.586C729.582 553.586 730.027 553.967 730.027 554.641V555.191L728.299 555.291C726.781 555.385 725.926 556.047 725.926 557.195C725.926 558.361 726.822 559.105 728.053 559.105ZM733.074 559H734.334V555.232C734.334 554.336 735.008 553.732 735.963 553.732C736.186 553.732 736.561 553.773 736.666 553.809V552.566C736.531 552.531 736.291 552.514 736.104 552.514C735.271 552.514 734.562 552.971 734.381 553.598H734.287V552.619H733.074V559ZM737.973 559H739.232V555.268C739.232 554.271 739.824 553.65 740.756 553.65C741.688 553.65 742.133 554.16 742.133 555.186V559H743.393V554.869C743.393 553.352 742.607 552.496 741.184 552.496C740.223 552.496 739.59 552.924 739.279 553.633H739.186V552.619H737.973V559ZM722.855 573V564.545H721.32L718.625 571.014H718.525L715.836 564.545H714.301V573H715.52V566.895H715.602L718.08 572.801H719.076L721.555 566.895H721.637V573H722.855ZM727.525 573.123C729.389 573.123 730.531 571.875 730.531 569.807C730.531 567.75 729.383 566.496 727.525 566.496C725.662 566.496 724.514 567.75 724.514 569.807C724.514 571.875 725.656 573.123 727.525 573.123ZM727.525 572.004C726.43 572.004 725.814 571.201 725.814 569.807C725.814 568.424 726.43 567.615 727.525 567.615C728.615 567.615 729.236 568.424 729.236 569.807C729.236 571.195 728.615 572.004 727.525 572.004ZM732.049 573H733.309V569.232C733.309 568.336 733.982 567.732 734.938 567.732C735.16 567.732 735.535 567.773 735.641 567.809V566.566C735.506 566.531 735.266 566.514 735.078 566.514C734.246 566.514 733.537 566.971 733.355 567.598H733.262V566.619H732.049V573ZM739.309 567.568C740.24 567.568 740.85 568.219 740.879 569.221H737.656C737.727 568.225 738.377 567.568 739.309 567.568ZM740.873 571.277C740.639 571.775 740.117 572.051 739.355 572.051C738.348 572.051 737.697 571.342 737.656 570.223V570.152H742.162V569.713C742.162 567.709 741.09 566.496 739.314 566.496C737.516 566.496 736.373 567.791 736.373 569.83C736.373 571.869 737.492 573.123 739.32 573.123C740.779 573.123 741.811 572.414 742.086 571.277H740.873Z" fill="#717171"/>
<path fill-rule="evenodd" clip-rule="evenodd" d="M692 530H693V593H692V530Z" fill="#D9D9D9"/>
<path d="M474.485 571V567.971L477.203 563.25H475.683L473.84 566.563H473.749L471.901 563.25H470.381L473.099 567.971V571H474.485ZM480.007 571.118C481.763 571.118 482.832 569.969 482.832 568.062C482.832 566.161 481.758 565.006 480.007 565.006C478.261 565.006 477.181 566.166 477.181 568.062C477.181 569.969 478.245 571.118 480.007 571.118ZM480.007 570.001C479.077 570.001 478.546 569.292 478.546 568.062C478.546 566.837 479.077 566.123 480.007 566.123C480.93 566.123 481.462 566.837 481.462 568.062C481.462 569.292 480.936 570.001 480.007 570.001ZM489.358 565.124H488.026V568.545C488.026 569.416 487.553 569.947 486.688 569.947C485.893 569.947 485.523 569.507 485.523 568.61V565.124H484.191V568.943C484.191 570.318 484.943 571.118 486.226 571.118C487.123 571.118 487.698 570.737 487.983 570.065H488.074V571H489.358V565.124ZM491.877 566.392L492.892 563.25H491.528L490.937 566.392H491.877ZM499.424 565.124H498.016L496.668 569.668H496.577L495.218 565.124H493.789L495.879 571H497.345L499.424 565.124ZM502.85 566.064C503.651 566.064 504.177 566.623 504.204 567.493H501.438C501.497 566.633 502.056 566.064 502.85 566.064ZM504.215 569.383C504.021 569.818 503.565 570.06 502.904 570.06C502.029 570.06 501.465 569.448 501.433 568.47V568.4H505.536V567.971C505.536 566.118 504.532 565.006 502.856 565.006C501.153 565.006 500.095 566.193 500.095 568.083C500.095 569.974 501.137 571.118 502.867 571.118C504.252 571.118 505.235 570.452 505.477 569.383H504.215ZM513.212 571.097C514.694 571.097 515.623 569.931 515.623 568.062C515.623 566.182 514.699 565.027 513.212 565.027C512.406 565.027 511.729 565.419 511.423 566.059H511.332V562.852H510V571H511.283V570.071H511.375C511.708 570.715 512.39 571.097 513.212 571.097ZM512.793 566.161C513.7 566.161 514.254 566.88 514.254 568.062C514.254 569.244 513.706 569.963 512.793 569.963C511.88 569.963 511.31 569.233 511.31 568.062C511.31 566.891 511.885 566.161 512.793 566.161ZM519.496 566.064C520.296 566.064 520.823 566.623 520.85 567.493H518.083C518.143 566.633 518.701 566.064 519.496 566.064ZM520.86 569.383C520.667 569.818 520.21 570.06 519.55 570.06C518.674 570.06 518.11 569.448 518.078 568.47V568.4H522.182V567.971C522.182 566.118 521.177 565.006 519.501 565.006C517.799 565.006 516.741 566.193 516.741 568.083C516.741 569.974 517.783 571.118 519.512 571.118C520.898 571.118 521.881 570.452 522.123 569.383H520.86ZM526.054 566.064C526.855 566.064 527.381 566.623 527.408 567.493H524.642C524.701 566.633 525.259 566.064 526.054 566.064ZM527.419 569.383C527.225 569.818 526.769 570.06 526.108 570.06C525.233 570.06 524.669 569.448 524.636 568.47V568.4H528.74V567.971C528.74 566.118 527.735 565.006 526.06 565.006C524.357 565.006 523.299 566.193 523.299 568.083C523.299 569.974 524.341 571.118 526.07 571.118C527.456 571.118 528.439 570.452 528.681 569.383H527.419ZM530.147 571H531.479V567.579C531.479 566.714 531.979 566.166 532.774 566.166C533.585 566.166 533.961 566.617 533.961 567.514V571H535.293V567.197C535.293 565.795 534.578 565.006 533.268 565.006C532.392 565.006 531.802 565.409 531.522 566.064H531.431V565.124H530.147V571ZM539.961 571H541.287V565.124H539.961V571ZM540.621 564.152C541.062 564.152 541.416 563.797 541.416 563.352C541.416 562.906 541.062 562.546 540.621 562.546C540.186 562.546 539.826 562.906 539.826 563.352C539.826 563.797 540.186 564.152 540.621 564.152ZM543.012 571H544.344V567.579C544.344 566.714 544.843 566.166 545.638 566.166C546.449 566.166 546.825 566.617 546.825 567.514V571H548.157V567.197C548.157 565.795 547.443 565.006 546.132 565.006C545.257 565.006 544.666 565.409 544.387 566.064H544.295V565.124H543.012V571ZM557.884 567.101C557.745 565.865 556.832 565.006 555.322 565.006C553.555 565.006 552.519 566.139 552.519 568.046C552.519 569.979 553.561 571.118 555.328 571.118C556.816 571.118 557.739 570.291 557.884 569.061H556.617C556.477 569.673 556.015 570.001 555.322 570.001C554.415 570.001 553.867 569.281 553.867 568.046C553.867 566.827 554.409 566.123 555.322 566.123C556.053 566.123 556.493 566.531 556.617 567.101H557.884ZM561.763 571.118C563.519 571.118 564.588 569.969 564.588 568.062C564.588 566.161 563.514 565.006 561.763 565.006C560.017 565.006 558.937 566.166 558.937 568.062C558.937 569.969 560.001 571.118 561.763 571.118ZM561.763 570.001C560.833 570.001 560.302 569.292 560.302 568.062C560.302 566.837 560.833 566.123 561.763 566.123C562.686 566.123 563.218 566.837 563.218 568.062C563.218 569.292 562.692 570.001 561.763 570.001ZM566.001 571H567.333V567.579C567.333 566.714 567.832 566.166 568.627 566.166C569.438 566.166 569.814 566.617 569.814 567.514V571H571.146V567.197C571.146 565.795 570.432 565.006 569.121 565.006C568.246 565.006 567.655 565.409 567.376 566.064H567.284V565.124H566.001V571ZM573.219 563.685V565.162H572.29V566.225H573.219V569.432C573.219 570.57 573.757 571.027 575.105 571.027C575.363 571.027 575.61 571 575.803 570.962V569.92C575.642 569.937 575.54 569.947 575.352 569.947C574.793 569.947 574.546 569.689 574.546 569.109V566.225H575.803V565.162H574.546V563.685H573.219ZM579.214 570.049C578.623 570.049 578.199 569.754 578.199 569.26C578.199 568.782 578.548 568.513 579.294 568.465L580.621 568.379V568.846C580.621 569.528 580.019 570.049 579.214 570.049ZM578.822 571.097C579.59 571.097 580.234 570.764 580.562 570.194H580.653V571H581.937V566.988C581.937 565.742 581.088 565.006 579.579 565.006C578.183 565.006 577.21 565.667 577.103 566.703H578.36C578.483 566.306 578.902 566.091 579.515 566.091C580.234 566.091 580.621 566.413 580.621 566.988V567.482L579.106 567.573C577.678 567.659 576.877 568.271 576.877 569.335C576.877 570.409 577.688 571.097 578.822 571.097ZM588.689 567.101C588.549 565.865 587.636 565.006 586.127 565.006C584.359 565.006 583.323 566.139 583.323 568.046C583.323 569.979 584.365 571.118 586.132 571.118C587.62 571.118 588.544 570.291 588.689 569.061H587.421C587.281 569.673 586.819 570.001 586.127 570.001C585.219 570.001 584.671 569.281 584.671 568.046C584.671 566.827 585.213 566.123 586.127 566.123C586.857 566.123 587.297 566.531 587.421 567.101H588.689ZM590.531 563.685V565.162H589.602V566.225H590.531V569.432C590.531 570.57 591.068 571.027 592.416 571.027C592.674 571.027 592.921 571 593.115 570.962V569.92C592.953 569.937 592.851 569.947 592.663 569.947C592.105 569.947 591.858 569.689 591.858 569.109V566.225H593.115V565.162H591.858V563.685H590.531ZM605.388 565.124H604.061L603.089 569.512H602.998L601.859 565.124H600.586L599.458 569.512H599.367L598.389 565.124H597.047L598.636 571H600.022L601.161 566.768H601.252L602.396 571H603.798L605.388 565.124ZM606.639 571H607.966V565.124H606.639V571ZM607.3 564.152C607.741 564.152 608.095 563.797 608.095 563.352C608.095 562.906 607.741 562.546 607.3 562.546C606.865 562.546 606.505 562.906 606.505 563.352C606.505 563.797 606.865 564.152 607.3 564.152ZM610.115 563.685V565.162H609.186V566.225H610.115V569.432C610.115 570.57 610.652 571.027 612 571.027C612.258 571.027 612.505 571 612.698 570.962V569.92C612.537 569.937 612.435 569.947 612.247 569.947C611.688 569.947 611.441 569.689 611.441 569.109V566.225H612.698V565.162H611.441V563.685H610.115ZM614.154 571H615.486V567.589C615.486 566.746 615.975 566.177 616.85 566.177C617.624 566.177 618.032 566.633 618.032 567.525V571H619.364V567.208C619.364 565.812 618.601 565.017 617.344 565.017C616.469 565.017 615.841 565.414 615.561 566.075H615.465V562.852H614.154V571ZM626.024 570.049C625.434 570.049 625.009 569.754 625.009 569.26C625.009 568.782 625.358 568.513 626.105 568.465L627.432 568.379V568.846C627.432 569.528 626.83 570.049 626.024 570.049ZM625.632 571.097C626.4 571.097 627.045 570.764 627.373 570.194H627.464V571H628.748V566.988C628.748 565.742 627.899 565.006 626.39 565.006C624.993 565.006 624.021 565.667 623.914 566.703H625.17C625.294 566.306 625.713 566.091 626.325 566.091C627.045 566.091 627.432 566.413 627.432 566.988V567.482L625.917 567.573C624.488 567.659 623.688 568.271 623.688 569.335C623.688 570.409 624.499 571.097 625.632 571.097ZM475.892 580.101C475.752 578.865 474.839 578.006 473.33 578.006C471.563 578.006 470.526 579.139 470.526 581.046C470.526 582.979 471.568 584.118 473.335 584.118C474.823 584.118 475.747 583.291 475.892 582.061H474.625C474.485 582.673 474.023 583.001 473.33 583.001C472.422 583.001 471.875 582.281 471.875 581.046C471.875 579.827 472.417 579.123 473.33 579.123C474.061 579.123 474.501 579.531 474.625 580.101H475.892ZM479.77 584.118C481.527 584.118 482.595 582.969 482.595 581.062C482.595 579.161 481.521 578.006 479.77 578.006C478.025 578.006 476.945 579.166 476.945 581.062C476.945 582.969 478.008 584.118 479.77 584.118ZM479.77 583.001C478.841 583.001 478.309 582.292 478.309 581.062C478.309 579.837 478.841 579.123 479.77 579.123C480.694 579.123 481.226 579.837 481.226 581.062C481.226 582.292 480.699 583.001 479.77 583.001ZM484.008 584H485.34V580.579C485.34 579.714 485.84 579.166 486.635 579.166C487.446 579.166 487.822 579.617 487.822 580.514V584H489.154V580.197C489.154 578.795 488.439 578.006 487.129 578.006C486.253 578.006 485.662 578.409 485.383 579.064H485.292V578.124H484.008V584ZM491.227 576.685V578.162H490.298V579.225H491.227V582.432C491.227 583.57 491.764 584.027 493.112 584.027C493.37 584.027 493.617 584 493.811 583.962V582.92C493.649 582.937 493.547 582.947 493.359 582.947C492.801 582.947 492.554 582.689 492.554 582.109V579.225H493.811V578.162H492.554V576.685H491.227ZM497.221 583.049C496.631 583.049 496.206 582.754 496.206 582.26C496.206 581.782 496.555 581.513 497.302 581.465L498.629 581.379V581.846C498.629 582.528 498.027 583.049 497.221 583.049ZM496.829 584.097C497.597 584.097 498.242 583.764 498.57 583.194H498.661V584H499.945V579.988C499.945 578.742 499.096 578.006 497.587 578.006C496.19 578.006 495.218 578.667 495.111 579.703H496.367C496.491 579.306 496.91 579.091 497.522 579.091C498.242 579.091 498.629 579.413 498.629 579.988V580.482L497.114 580.573C495.685 580.659 494.885 581.271 494.885 582.335C494.885 583.409 495.696 584.097 496.829 584.097ZM504.145 582.829C503.216 582.829 502.689 582.12 502.689 580.998C502.689 579.875 503.216 579.161 504.145 579.161C505.069 579.161 505.633 579.875 505.633 580.998C505.633 582.12 505.074 582.829 504.145 582.829ZM504.145 586.234C505.858 586.234 506.943 585.38 506.943 584.021V578.124H505.66V579.064H505.568C505.246 578.425 504.548 578.027 503.747 578.027C502.249 578.027 501.32 579.198 501.32 580.998C501.32 582.765 502.244 583.914 503.726 583.914C504.542 583.914 505.182 583.57 505.52 582.942H505.611V584.054C505.611 584.79 505.079 585.219 504.166 585.219C503.436 585.219 502.963 584.961 502.877 584.559H501.54C501.647 585.568 502.636 586.234 504.145 586.234ZM508.668 584H509.994V578.124H508.668V584ZM509.328 577.152C509.769 577.152 510.123 576.797 510.123 576.352C510.123 575.906 509.769 575.546 509.328 575.546C508.893 575.546 508.533 575.906 508.533 576.352C508.533 576.797 508.893 577.152 509.328 577.152ZM514.254 584.118C516.01 584.118 517.079 582.969 517.079 581.062C517.079 579.161 516.005 578.006 514.254 578.006C512.508 578.006 511.428 579.166 511.428 581.062C511.428 582.969 512.492 584.118 514.254 584.118ZM514.254 583.001C513.324 583.001 512.793 582.292 512.793 581.062C512.793 579.837 513.324 579.123 514.254 579.123C515.178 579.123 515.709 579.837 515.709 581.062C515.709 582.292 515.183 583.001 514.254 583.001ZM523.605 578.124H522.273V581.545C522.273 582.416 521.8 582.947 520.935 582.947C520.141 582.947 519.77 582.507 519.77 581.61V578.124H518.438V581.943C518.438 583.318 519.19 584.118 520.474 584.118C521.371 584.118 521.945 583.737 522.23 583.065H522.321V584H523.605V578.124ZM525.173 579.805C525.173 580.691 525.705 581.212 526.833 581.47L527.875 581.712C528.434 581.835 528.686 582.045 528.686 582.378C528.686 582.813 528.219 583.108 527.547 583.108C526.881 583.108 526.468 582.851 526.339 582.416H525.023C525.125 583.484 526.049 584.118 527.515 584.118C528.982 584.118 530.018 583.366 530.018 582.238C530.018 581.374 529.497 580.89 528.375 580.638L527.338 580.401C526.747 580.267 526.468 580.063 526.468 579.73C526.468 579.306 526.924 579.016 527.531 579.016C528.154 579.016 528.547 579.279 528.643 579.692H529.895C529.798 578.624 528.922 578.006 527.526 578.006C526.14 578.006 525.173 578.742 525.173 579.805ZM537.64 578.027C536.834 578.027 536.152 578.43 535.814 579.096H535.723V578.124H534.439V585.955H535.771V583.108H535.862C536.163 583.731 536.813 584.097 537.656 584.097C539.139 584.097 540.062 582.937 540.062 581.062C540.062 579.177 539.128 578.027 537.64 578.027ZM537.221 582.963C536.313 582.963 535.749 582.238 535.744 581.062C535.749 579.891 536.319 579.161 537.227 579.161C538.14 579.161 538.693 579.875 538.693 581.062C538.693 582.249 538.145 582.963 537.221 582.963ZM543.935 579.064C544.736 579.064 545.262 579.623 545.289 580.493H542.523C542.582 579.633 543.14 579.064 543.935 579.064ZM545.299 582.383C545.106 582.818 544.65 583.06 543.989 583.06C543.113 583.06 542.549 582.448 542.517 581.47V581.4H546.621V580.971C546.621 579.118 545.616 578.006 543.941 578.006C542.238 578.006 541.18 579.193 541.18 581.083C541.18 582.974 542.222 584.118 543.951 584.118C545.337 584.118 546.32 583.452 546.562 582.383H545.299ZM548.028 584H549.36V580.605C549.36 579.784 549.962 579.247 550.827 579.247C551.052 579.247 551.407 579.284 551.509 579.322V578.086C551.385 578.049 551.149 578.027 550.955 578.027C550.198 578.027 549.564 578.457 549.403 579.037H549.312V578.124H548.028V584ZM552.411 579.805C552.411 580.691 552.943 581.212 554.071 581.47L555.113 581.712C555.671 581.835 555.924 582.045 555.924 582.378C555.924 582.813 555.457 583.108 554.785 583.108C554.119 583.108 553.706 582.851 553.577 582.416H552.261C552.363 583.484 553.287 584.118 554.753 584.118C556.219 584.118 557.256 583.366 557.256 582.238C557.256 581.374 556.735 580.89 555.612 580.638L554.576 580.401C553.985 580.267 553.706 580.063 553.706 579.73C553.706 579.306 554.162 579.016 554.769 579.016C555.392 579.016 555.784 579.279 555.881 579.692H557.132C557.036 578.624 556.16 578.006 554.764 578.006C553.378 578.006 552.411 578.742 552.411 579.805ZM561.209 584.118C562.966 584.118 564.034 582.969 564.034 581.062C564.034 579.161 562.96 578.006 561.209 578.006C559.464 578.006 558.384 579.166 558.384 581.062C558.384 582.969 559.447 584.118 561.209 584.118ZM561.209 583.001C560.28 583.001 559.748 582.292 559.748 581.062C559.748 579.837 560.28 579.123 561.209 579.123C562.133 579.123 562.665 579.837 562.665 581.062C562.665 582.292 562.138 583.001 561.209 583.001ZM565.447 584H566.779V580.579C566.779 579.714 567.279 579.166 568.074 579.166C568.885 579.166 569.261 579.617 569.261 580.514V584H570.593V580.197C570.593 578.795 569.878 578.006 568.568 578.006C567.692 578.006 567.101 578.409 566.822 579.064H566.731V578.124H565.447V584Z" fill="#4C4C4C"/>
<path d="M474.57 554.211C476.521 554.211 477.951 553.045 478.15 551.316H476.662C476.457 552.266 475.643 552.863 474.57 552.863C473.129 552.863 472.232 551.68 472.232 549.77C472.232 547.865 473.129 546.682 474.564 546.682C475.631 546.682 476.445 547.338 476.656 548.352H478.145C477.969 546.588 476.486 545.334 474.564 545.334C472.168 545.334 470.686 547.027 470.686 549.775C470.686 552.512 472.174 554.211 474.57 554.211ZM483.477 545.334C481.021 545.334 479.475 547.039 479.475 549.77C479.475 552.5 480.998 554.211 483.477 554.211C485.943 554.211 487.473 552.494 487.473 549.77C487.473 547.039 485.938 545.334 483.477 545.334ZM483.477 546.676C484.977 546.676 485.932 547.877 485.932 549.77C485.932 551.656 484.982 552.869 483.477 552.869C481.953 552.869 481.021 551.656 481.021 549.77C481.021 547.877 481.977 546.676 483.477 546.676ZM492.992 554L495.916 545.545H494.305L492.195 552.236H492.096L489.969 545.545H488.299L491.252 554H492.992ZM498.887 554V545.545H497.375V554H498.887ZM500.973 545.545V554H504.143C506.674 554 508.121 552.447 508.121 549.734C508.121 547.08 506.656 545.545 504.143 545.545H500.973ZM502.484 546.852H503.943C505.602 546.852 506.58 547.912 506.58 549.758C506.58 551.645 505.625 552.693 503.943 552.693H502.484V546.852ZM513.617 551.275V549.91H509.768V551.275H513.617ZM517.502 554H519.014V545.545H517.508L515.299 547.092V548.545L517.402 547.068H517.502V554ZM524.521 554.211C526.543 554.211 527.744 552.57 527.744 549.775C527.744 546.969 526.525 545.334 524.521 545.334C522.512 545.334 521.293 546.969 521.293 549.764C521.293 552.57 522.494 554.211 524.521 554.211ZM524.521 552.957C523.449 552.957 522.822 551.861 522.822 549.764C522.822 547.684 523.461 546.594 524.521 546.594C525.582 546.594 526.215 547.678 526.215 549.764C526.215 551.861 525.594 552.957 524.521 552.957Z" fill="#4C4C4C"/>
<circle cx="445" cy="562.5" r="15" fill="#C4C4C4"/>
<path d="M435 562.5L455 562.5" stroke="#DD3D12" stroke-width="5" stroke-miterlimit="10" stroke-linecap="round" stroke-linejoin="round"/>
<path d="M445 572.5L445 553.75" stroke="#DD3D12" stroke-width="5" stroke-miterlimit="10" stroke-linecap="round" stroke-linejoin="round"/>
<defs>
<filter id="filter0_ddi" x="0" y="0" width="301.644" height="456" filterUnits="userSpaceOnUse" color-interpolation-filters="sRGB">
<feFlood flood-opacity="0" result="BackgroundImageFix"/>
<feColorMatrix in="SourceAlpha" type="matrix" values="0 0 0 0 0 0 0 0 0 0 0 0 0 0 0 0 0 0 127 0"/>
<feOffset dy="50"/>
<feGaussianBlur stdDeviation="39"/>
<feColorMatrix type="matrix" values="0 0 0 0 0 0 0 0 0 0 0 0 0 0 0 0 0 0 0.18 0"/>
<feBlend mode="normal" in2="BackgroundImageFix" result="effect1_dropShadow"/>
<feColorMatrix in="SourceAlpha" type="matrix" values="0 0 0 0 0 0 0 0 0 0 0 0 0 0 0 0 0 0 127 0"/>
<feOffset dy="8"/>
<feGaussianBlur stdDeviation="14"/>
<feColorMatrix type="matrix" values="0 0 0 0 0 0 0 0 0 0 0 0 0 0 0 0 0 0 0.16 0"/>
<feBlend mode="normal" in2="effect1_dropShadow" result="effect2_dropShadow"/>
<feBlend mode="normal" in="SourceGraphic" in2="effect2_dropShadow" result="shape"/>
<feColorMatrix in="SourceAlpha" type="matrix" values="0 0 0 0 0 0 0 0 0 0 0 0 0 0 0 0 0 0 127 0" result="hardAlpha"/>
<feOffset dy="-18"/>
<feGaussianBlur stdDeviation="15"/>
<feComposite in2="hardAlpha" operator="arithmetic" k2="-1" k3="1"/>
<feColorMatrix type="matrix" values="0 0 0 0 0 0 0 0 0 0 0 0 0 0 0 0 0 0 0.08 0"/>
<feBlend mode="normal" in2="shape" result="effect3_innerShadow"/>
</filter>
<filter id="filter1_d" x="409" y="519" width="364" height="90" filterUnits="userSpaceOnUse" color-interpolation-filters="sRGB">
<feFlood flood-opacity="0" result="BackgroundImageFix"/>
<feColorMatrix in="SourceAlpha" type="matrix" values="0 0 0 0 0 0 0 0 0 0 0 0 0 0 0 0 0 0 127 0"/>
<feOffset dy="2"/>
<feGaussianBlur stdDeviation="5"/>
<feColorMatrix type="matrix" values="0 0 0 0 0 0 0 0 0 0 0 0 0 0 0 0 0 0 0.3 0"/>
<feBlend mode="normal" in2="BackgroundImageFix" result="effect1_dropShadow"/>
<feBlend mode="normal" in="SourceGraphic" in2="effect1_dropShadow" result="shape"/>
</filter>
</defs>
</svg>
